<?xml version="1.0" encoding="utf-8"?>
<!-- Generator: Adobe Illustrator 17.0.0, SVG Export Plug-In . SVG Version: 6.00 Build 0)  -->
<!DOCTYPE svg PUBLIC "-//W3C//DTD SVG 1.1//EN" "http://www.w3.org/Graphics/SVG/1.1/DTD/svg11.dtd">
<svg version="1.1" id="Слой_1" xmlns="http://www.w3.org/2000/svg" xmlns:xlink="http://www.w3.org/1999/xlink" x="0px" y="0px"
	 width="104px" height="40px" viewBox="0 0 104 40" enable-background="new 0 0 104 40" xml:space="preserve">
<path fill="#4C4C4C" d="M6.211,31.172H1.613l4.788-19.874h4.598L6.211,31.172z M9.631,8.296c-0.684,0-1.279-0.203-1.786-0.608
	s-0.76-1.013-0.76-1.824c0-0.937,0.323-1.71,0.969-2.318C8.7,2.938,9.441,2.634,10.277,2.634c0.684,0,1.285,0.209,1.805,0.627
	c0.519,0.418,0.779,1.033,0.779,1.843c0,0.938-0.33,1.704-0.988,2.299C11.214,7.999,10.467,8.296,9.631,8.296z M13.8,12.134
	c1.013-0.304,2.172-0.589,3.477-0.855s2.729-0.399,4.275-0.399c2.33,0,4.041,0.57,5.13,1.71s1.634,2.673,1.634,4.598
	c0,0.532-0.044,1.096-0.133,1.691c-0.089,0.596-0.196,1.21-0.323,1.843l-2.508,10.45h-4.593l2.351-9.956
	c0.127-0.557,0.253-1.127,0.381-1.71c0.126-0.583,0.202-1.14,0.228-1.672c0.025-0.887-0.184-1.621-0.627-2.204
	c-0.443-0.583-1.311-0.874-2.603-0.874c-1.09,0-2.027,0.114-2.813,0.342l-3.811,16.074H9.24L13.8,12.134z M33.703,27.942
	c1.216,0,2.179-0.195,2.889-0.588c0.709-0.393,1.063-0.994,1.063-1.806c0-0.658-0.228-1.185-0.684-1.577s-1.254-0.855-2.395-1.387
	c-0.607-0.279-1.172-0.57-1.69-0.874c-0.52-0.304-0.97-0.659-1.35-1.063c-0.38-0.406-0.684-0.88-0.912-1.426
	c-0.228-0.544-0.342-1.197-0.342-1.957c0-1.976,0.723-3.546,2.166-4.712c1.444-1.165,3.534-1.748,6.271-1.748
	c1.267,0,2.399,0.133,3.4,0.399c1.001,0.266,1.754,0.539,2.262,0.817l-1.635,3.572c-0.431-0.253-1.051-0.5-1.861-0.741
	c-0.812-0.241-1.66-0.361-2.546-0.361c-0.432,0-0.855,0.038-1.273,0.114c-0.418,0.076-0.792,0.203-1.121,0.38
	c-0.329,0.178-0.602,0.424-0.817,0.741c-0.215,0.317-0.322,0.703-0.322,1.159c0,0.583,0.233,1.058,0.703,1.425
	c0.468,0.367,1.146,0.754,2.032,1.159c0.836,0.38,1.545,0.747,2.128,1.103c0.583,0.354,1.064,0.754,1.444,1.197
	s0.658,0.938,0.836,1.481c0.177,0.545,0.267,1.196,0.267,1.957c0,0.938-0.19,1.805-0.57,2.603c-0.38,0.799-0.931,1.482-1.653,2.053
	c-0.722,0.569-1.615,1.02-2.679,1.349c-1.064,0.329-2.28,0.494-3.648,0.494c-0.938,0-1.779-0.063-2.526-0.19
	c-0.748-0.127-1.4-0.272-1.957-0.438c-0.558-0.164-1.026-0.335-1.406-0.512c-0.38-0.178-0.672-0.33-0.874-0.457l1.634-3.609
	c0.177,0.102,0.438,0.234,0.779,0.398c0.342,0.166,0.734,0.323,1.178,0.476c0.443,0.151,0.938,0.284,1.482,0.399
	C32.519,27.885,33.096,27.942,33.703,27.942z M46.768,31.172H42.17l4.788-19.874h4.598L46.768,31.172z M50.188,8.296
	c-0.684,0-1.279-0.203-1.786-0.608s-0.76-1.013-0.76-1.824c0-0.937,0.323-1.71,0.969-2.318c0.646-0.608,1.388-0.912,2.224-0.912
	c0.684,0,1.285,0.209,1.805,0.627c0.519,0.418,0.779,1.033,0.779,1.843c0,0.938-0.33,1.704-0.988,2.299
	C51.771,7.999,51.023,8.296,50.188,8.296z M55.128,34.44c1.874,0,3.287-0.431,4.236-1.292c0.95-0.861,1.59-2.038,1.919-3.534
	l0.114-0.531c-0.507,0.254-1.115,0.488-1.824,0.703s-1.457,0.322-2.241,0.322c-2.23,0-3.883-0.602-4.959-1.805
	c-1.077-1.203-1.615-2.805-1.615-4.807c0-1.824,0.316-3.509,0.95-5.054c0.633-1.545,1.525-2.881,2.679-4.009
	c1.152-1.127,2.539-2.008,4.161-2.641c1.621-0.633,3.42-0.95,5.396-0.95c0.963,0,1.995,0.108,3.098,0.323
	c1.102,0.215,2.096,0.564,2.982,1.045l-4.028,16.872c-0.354,1.495-0.804,2.817-1.349,3.971c-0.545,1.152-1.261,2.115-2.146,2.888
	c-0.888,0.772-1.983,1.362-3.287,1.768c-1.306,0.405-2.883,0.607-4.731,0.607c-1.343,0-2.553-0.146-3.629-0.437
	c-1.077-0.292-2.021-0.652-2.831-1.083l1.634-3.724c0.685,0.404,1.476,0.734,2.375,0.987S53.962,34.44,55.128,34.44z M58.465,26.384
	c0.683,0,1.384-0.126,2.104-0.38c0.72-0.253,1.32-0.57,1.801-0.95l2.45-10.146c-0.583-0.126-1.152-0.19-1.71-0.19
	c-1.167,0-2.225,0.216-3.175,0.646c-0.95,0.431-1.768,1.014-2.451,1.748c-0.685,0.735-1.217,1.59-1.597,2.565
	c-0.38,0.976-0.57,2.021-0.57,3.136c0,1.114,0.24,1.988,0.721,2.621C56.519,26.068,57.327,26.384,58.465,26.384z M68.419,31.172
	l6.878-28.728l4.788-0.76l-2.339,9.766c0.506-0.126,1.056-0.247,1.65-0.361c0.594-0.114,1.182-0.171,1.764-0.171
	c1.112,0,2.066,0.158,2.863,0.475s1.454,0.754,1.973,1.311s0.897,1.229,1.138,2.014c0.24,0.786,0.36,1.634,0.36,2.546
	c0,1.09-0.151,2.242-0.456,3.458l-2.508,10.45h-4.594l2.39-9.956c0.127-0.583,0.253-1.178,0.38-1.786
	c0.127-0.608,0.19-1.178,0.19-1.71c0-0.836-0.222-1.539-0.666-2.109s-1.287-0.855-2.53-0.855c-0.508,0-1.016,0.044-1.522,0.133
	c-0.508,0.089-0.965,0.197-1.371,0.323l-3.782,15.96H68.419z M92.545,6.054l4.788-0.76l-1.451,6.004h6.505l-0.912,3.8h-6.512
	l-1.9,7.866c-0.122,0.558-0.207,1.021-0.255,1.388c-0.049,0.367-0.073,0.702-0.073,1.006c0,0.305,0.032,0.603,0.096,0.894
	c0.063,0.292,0.189,0.545,0.38,0.76c0.189,0.216,0.468,0.394,0.836,0.532c0.367,0.14,0.867,0.209,1.501,0.209
	c0.684,0,1.343-0.088,1.976-0.266s1.19-0.367,1.672-0.57l0.343,3.686c-0.583,0.254-1.318,0.494-2.204,0.723
	c-0.888,0.228-1.926,0.342-3.116,0.342c-2.179,0-3.737-0.476-4.674-1.426c-0.938-0.949-1.406-2.247-1.406-3.895
	c0-0.607,0.044-1.234,0.133-1.881s0.222-1.336,0.399-2.07L92.545,6.054z"/>
</svg>
