<svg xmlns="http://www.w3.org/2000/svg" width="146" height="38" viewBox="0 0 146 38"><g fill="#2E9AD0"><path d="M49.612 10.525L44.822 30.4h4.6l4.788-19.875M52.842 7.523c.836 0 1.583-.297 2.242-.893.658-.595.988-1.36.988-2.3 0-.81-.26-1.424-.78-1.842-.52-.418-1.12-.627-1.804-.627-.836 0-1.577.305-2.223.913-.646.608-.97 1.38-.97 2.318 0 .812.254 1.42.76 1.825s1.102.608 1.787.608zM71.393 18.106c.09-.595.133-1.16.133-1.69 0-1.926-.545-3.46-1.634-4.6s-2.8-1.71-5.13-1.71c-1.545 0-2.97.134-4.275.4-1.305.266-2.464.55-3.477.855L52.45 30.4h4.625l3.81-16.075c.786-.228 1.724-.342 2.813-.342 1.292 0 2.16.292 2.603.874.444.583.653 1.317.628 2.204-.025.533-.102 1.09-.228 1.673-.127.583-.253 1.153-.38 1.71L63.97 30.4h4.592l2.508-10.45c.127-.634.234-1.248.323-1.844zM85.16 22.477c-.177-.544-.456-1.04-.836-1.482s-.86-.842-1.444-1.197c-.583-.354-1.292-.722-2.128-1.102-.887-.405-1.564-.792-2.033-1.16s-.704-.84-.704-1.424c0-.456.108-.842.323-1.16.214-.316.486-.562.816-.74.33-.177.703-.304 1.12-.38.42-.076.843-.114 1.274-.114.887 0 1.735.12 2.546.36.81.242 1.43.49 1.862.742l1.634-3.572c-.507-.28-1.26-.55-2.26-.817-1.002-.265-2.136-.398-3.402-.398-2.736 0-4.826.583-6.27 1.748-1.444 1.166-2.166 2.736-2.166 4.712 0 .76.114 1.413.342 1.957.228.544.532 1.02.912 1.424.38.405.83.76 1.35 1.064.518.304 1.082.595 1.69.874 1.14.532 1.938.995 2.394 1.387.456.392.684.918.684 1.576 0 .81-.355 1.413-1.064 1.805-.71.394-1.672.59-2.888.59-.608 0-1.185-.057-1.73-.17-.544-.115-1.038-.248-1.48-.4-.444-.152-.837-.31-1.18-.475-.34-.165-.6-.297-.778-.4l-1.634 3.61c.203.128.494.28.874.457s.85.35 1.406.513c.557.165 1.21.31 1.957.437.746.126 1.59.19 2.526.19 1.368 0 2.584-.166 3.648-.494 1.064-.33 1.957-.78 2.68-1.35.72-.57 1.272-1.253 1.652-2.05.38-.8.57-1.667.57-2.604 0-.76-.09-1.413-.266-1.957zM90.168 10.525L85.38 30.4h4.598l4.788-19.875M93.398 7.523c.836 0 1.583-.297 2.242-.893.658-.595.988-1.36.988-2.3 0-.81-.26-1.424-.78-1.842-.52-.418-1.12-.627-1.804-.627-.836 0-1.577.305-2.223.913-.645.608-.968 1.38-.968 2.318 0 .812.253 1.42.76 1.825s1.102.608 1.786.608zM110.25 10.393c-1.1-.215-2.133-.323-3.096-.323-1.976 0-3.775.317-5.396.95-1.62.633-3.008 1.514-4.16 2.64-1.154 1.128-2.047 2.465-2.68 4.01s-.95 3.23-.95 5.054c0 2 .538 3.604 1.615 4.807 1.077 1.205 2.73 1.806 4.96 1.806.784 0 1.532-.107 2.24-.323.71-.215 1.318-.45 1.825-.703l-.114.532c-.33 1.495-.97 2.672-1.92 3.534-.95.86-2.362 1.292-4.236 1.292-1.166 0-2.198-.127-3.097-.38-.9-.254-1.69-.583-2.374-.988l-1.634 3.724c.81.43 1.754.792 2.83 1.083 1.078.29 2.287.437 3.63.437 1.85 0 3.426-.203 4.73-.608 1.306-.406 2.4-.995 3.288-1.767.887-.774 1.602-1.736 2.147-2.89.544-1.152.994-2.475 1.35-3.97l4.027-16.872c-.887-.48-1.88-.83-2.983-1.045zm-4.67 13.888c-.48.38-1.08.698-1.8.95-.722.254-1.423.38-2.106.38-1.138 0-1.946-.315-2.427-.95-.48-.632-.72-1.506-.72-2.62s.19-2.16.57-3.136c.38-.975.913-1.83 1.597-2.565.684-.735 1.5-1.318 2.45-1.75.95-.43 2.01-.645 3.175-.645.557 0 1.126.063 1.71.19l-2.45 10.146zM129.207 11.932c-.52-.557-1.176-.994-1.973-1.31s-1.75-.476-2.864-.476c-.582 0-1.17.057-1.763.17-.594.115-1.144.235-1.65.362l2.338-9.766-4.788.76L111.63 30.4h4.605l3.783-15.96c.406-.126.863-.234 1.37-.323.507-.088 1.015-.133 1.522-.133 1.243 0 2.086.285 2.53.855.445.57.667 1.272.667 2.108 0 .532-.063 1.102-.19 1.71-.127.608-.253 1.204-.38 1.786l-2.39 9.956h4.594l2.51-10.45c.303-1.216.455-2.368.455-3.458 0-.912-.12-1.76-.36-2.546-.24-.785-.62-1.457-1.138-2.014zM136.273 22.19l1.9-7.865h6.512l.912-3.8h-6.505l1.45-6.004-4.787.76-3.876 16.34c-.18.736-.312 1.426-.4 2.072s-.133 1.273-.133 1.88c0 1.648.468 2.946 1.406 3.896.937.95 2.495 1.425 4.674 1.425 1.19 0 2.23-.114 3.116-.342s1.62-.467 2.204-.72l-.342-3.687c-.48.203-1.04.393-1.672.57-.634.178-1.292.266-1.976.266-.634 0-1.134-.07-1.5-.21-.37-.14-.647-.316-.837-.532-.19-.215-.317-.468-.38-.76-.063-.29-.095-.59-.095-.893s.023-.64.072-1.007.135-.83.256-1.387zM33.804 28.117l3.185-9.888.028-.1v-.048c.003-.042.003-.075.003-.097l-.004-.107v-.047L33.653 7.384l-.06-.13-.013-.026c-.036-.06-.078-.114-.117-.154l-.655-.493-.048-.15-.007.11L24.485.534l-11.17-.07-.02-.006-.452.08-.085.126L4.67 6.54l-.007-.11-.048.15-.582.422-.083.08c-.038.04-.066.077-.072.094l-.036.072-.005-.003L.407 17.83v.055c-.005.042-.005.077-.005.1l.005.11v.046l3.352 10.4.036.168.05.046c.046.072.086.106.07.082l.7.556.047.146.007-.107 8.103 5.888.083.108.317.084 11.054-.006 8.527-6.072.007.108.048-.147.047-.034 6.556 5.946c.144.132.33.204.527.204.218 0 .428-.093.576-.255.14-.153.212-.353.203-.56-.01-.21-.1-.4-.255-.54l-6.656-6.038zm1.375-9.352l-1.745 5.416-.33-5.415h2.074zm-2.076-1.558l.33-5.417 1.745 5.417h-2.076zm-1.05 9.93l-3.096-1.343 2.708-5.03.388 6.372zM22.6 33.95h-7.777l3.89-5.32 3.887 5.32zM8.465 25.794L5.37 27.136l.387-6.37 2.708 5.028zm0-15.617l-2.708 5.03-.388-6.372 3.095 1.342zM18.712 7.34l-3.89-5.32H22.6l-3.888 5.32zm10.247 2.837l3.095-1.342-.39 6.372-2.706-5.03zm-3.648 7.03l2.612-5.663 3.048 5.663h-5.66zm5.66 1.558l-3.048 5.663-2.612-5.663h5.66zM20.17 9.627l6.546.814-2.7 5.853-3.847-6.666zm2.575 7.58h-8.067l4.034-6.988 4.033 6.987zm0 1.557L18.71 25.75l-4.033-6.986h8.068zm-9.34-2.47l-2.698-5.854 6.547-.814-3.848 6.667zm-1.294 2.47L9.5 24.43l-3.05-5.663h5.66zm-5.66-1.557l3.048-5.663 2.61 5.663H6.45zm6.956 2.47l3.848 6.667-6.548-.813 2.7-5.852zm10.61 0l2.7 5.852-6.547.814 3.847-6.666zm7.33-12.234l-3.073 1.333-2.28-5.22 5.353 3.887zm-11.223.61l3.84-5.257 2.647 6.062-6.487-.806zm-2.822 0l-6.486.805 2.646-6.062 3.84 5.256zm-8.15.723L6.074 7.443l5.353-3.888-2.28 5.22zM6.075 28.528l3.074-1.333 2.28 5.22-5.354-3.887zM17.3 27.92l-3.84 5.256-2.646-6.063 6.487.807zm2.822 0l6.486-.807-2.646 6.063-3.84-5.256zm8.15-.725l3.074 1.333-5.352 3.888 2.28-5.22zM2.245 17.207l1.744-5.416.33 5.417H2.245zm2.075 1.558l-.332 5.416-1.744-5.415H4.32z"/></g></svg>