<?xml version="1.0" standalone="no"?>
<!DOCTYPE svg PUBLIC "-//W3C//DTD SVG 1.1//EN" "http://www.w3.org/Graphics/SVG/1.1/DTD/svg11.dtd" >
<svg xmlns="http://www.w3.org/2000/svg" xmlns:xlink="http://www.w3.org/1999/xlink" version="1.1">
<metadata></metadata>
<defs>
<font id="efmmedium" horiz-adv-x="1642" >
<font-face units-per-em="2048" ascent="1638" descent="-410" />
<missing-glyph horiz-adv-x="471" />
<glyph horiz-adv-x="0" />
<glyph unicode="&#xd;" horiz-adv-x="681" />
<glyph unicode=" "  horiz-adv-x="471" />
<glyph unicode="&#x09;" horiz-adv-x="471" />
<glyph unicode="&#xa0;" horiz-adv-x="471" />
<glyph unicode="!" horiz-adv-x="610" d="M129 162q0 45 19.5 82t54.5 61h207q33 -25 53 -61.5t20 -81.5q0 -74 -52 -126t-126 -52q-37 0 -68.5 14t-55 37.5t-38 56.5t-14.5 70zM193 870v584h227v-584l-43 -393h-139z" />
<glyph unicode="&#x22;" horiz-adv-x="876" d="M133 913v541h197v-541h-197zM547 913v541h196v-541h-196z" />
<glyph unicode="#" horiz-adv-x="1515" d="M76 395v180h266l98 312h-217v180h273l120 387h199l-121 -387h334l121 387h199l-121 -387h213v-180h-271l-96 -312h219v-180h-276l-123 -395h-199l123 395h-332l-123 -395h-198l123 395h-211zM541 575h333l97 312h-332z" />
<glyph unicode="$" horiz-adv-x="1079" d="M57 231l164 136q49 -72 128 -123t183 -51q111 0 171.5 53t60.5 131q0 82 -56.5 129t-162.5 98l-115 58q-164 78 -239.5 180t-75.5 243q0 76 25.5 138.5t70.5 110.5t105.5 81t127.5 45v174h193v-172q88 -16 159.5 -59t137.5 -117l-150 -147q-55 63 -109 93t-132 30 q-92 0 -148.5 -49.5t-56.5 -120.5q0 -76 52 -123t163 -99l113 -55q74 -35 133 -76t101 -92t65.5 -112.5t23.5 -137.5q0 -162 -93 -270.5t-259 -134.5v-172h-193v170q-133 16 -231 79.5t-156 161.5z" />
<glyph unicode="%" horiz-adv-x="880" d="M137 635v180h606v-180h-606zM147 268q0 61 23 112.5t61.5 90.5t91 60.5t112 21.5t111.5 -21.5t91 -60.5t61.5 -90t22.5 -113q0 -59 -22.5 -109t-61.5 -88t-91 -59.5t-111.5 -21.5t-112 21.5t-91 59.5t-61.5 88t-23 109zM147 1183.5q0 59.5 23 111t61.5 89t91 59t112 21.5 t111.5 -21.5t91 -59t61.5 -89t22.5 -111t-22.5 -111.5t-61.5 -90t-91 -59.5t-111.5 -21.5t-112 21.5t-91 59.5t-61.5 90t-23 111.5zM307 268q0 -53 36 -90t91 -37t91 37t36 90q0 55 -36 93t-91 38t-91 -37.5t-36 -93.5zM307 1183.5q0 -53.5 36 -91t91 -37.5t91 37.5t36 91 t-36 90.5t-91 37t-91 -37t-36 -90.5z" />
<glyph unicode="&#x26;" horiz-adv-x="1253" d="M49 444q0 94 35 178.5t97.5 148t147.5 99t183 35.5q10 0 17.5 -1t17.5 -1l-279 551h770v-201h-424l639 -1253h-247l-113 219q-55 -117 -153.5 -176t-227.5 -59q-98 0 -183 35.5t-147.5 99t-97.5 146.5t-35 179zM268 444.5q0 -53.5 18.5 -99.5t51.5 -80t77 -52t97 -18 q51 0 95 18t77 52t51.5 80t18.5 99.5t-18.5 99.5t-51.5 79.5t-77 52t-95 18.5q-53 0 -97 -18.5t-77 -52t-51.5 -79.5t-18.5 -99.5z" />
<glyph unicode="'" horiz-adv-x="462" d="M133 913v541h197v-541h-197z" />
<glyph unicode="(" horiz-adv-x="526" d="M111 614.5q0 135.5 14 256t42 232t70 218t97 217.5l172 -76q-98 -213 -148.5 -418.5t-50.5 -429t50.5 -429t148.5 -418.5l-172 -76q-55 111 -97 217t-70 218t-42 232.5t-14 256z" />
<glyph unicode=")" horiz-adv-x="526" d="M20 -233q98 213 148.5 418.5t50.5 429t-50 429t-149 418.5l173 76q55 -111 97 -217.5t69.5 -218t42 -232t14.5 -256t-14.5 -256t-42 -232.5t-69.5 -218t-97 -217z" />
<glyph unicode="*" horiz-adv-x="946" d="M72 1110l49 158l272 -90v276h162v-276l270 88l49 -154l-266 -90l166 -229l-133 -95l-166 228l-168 -226l-133 93l166 227z" />
<glyph unicode="+" horiz-adv-x="1259" d="M182 477v180h357v349h182v-349h356v-180h-356v-356h-182v356h-357z" />
<glyph unicode="," horiz-adv-x="548" d="M131 0v289h289v-289l-121 -299h-139l90 299h-119z" />
<glyph unicode="-" horiz-adv-x="706" d="M90 455v223h528v-223h-528z" />
<glyph unicode="." horiz-adv-x="579" d="M113 162q0 37 14 68.5t37.5 55t56.5 38t70 14.5t68.5 -14.5t56 -38t38 -55t13.5 -68.5q0 -74 -51 -126t-125 -52t-126 52t-52 126z" />
<glyph unicode="/" horiz-adv-x="901" d="M0 0l694 1454h207l-694 -1454h-207z" />
<glyph unicode="0" horiz-adv-x="1669" d="M88 727q0 156 58.5 292t160 236.5t237.5 157.5t290 57q156 0 292 -57t237 -157.5t159.5 -236.5t58.5 -292t-58.5 -292t-159.5 -236.5t-237 -157.5t-292 -57q-154 0 -290 57t-237.5 157.5t-160 236.5t-58.5 292zM315 727q0 -113 39 -210t107.5 -170t164 -113.5t208 -40.5 t208 40.5t165 113.5t108.5 170t39 210t-39 210t-108.5 169t-165 114t-208 42t-208 -42t-164 -114t-107.5 -169t-39 -210z" />
<glyph unicode="1" horiz-adv-x="589" d="M182 0v1245l226 225v-1470h-226z" />
<glyph unicode="2" horiz-adv-x="1155" d="M43 0l516 588q-98 0 -179 35.5t-137.5 95t-88 138.5t-31.5 165q0 94 35 176t97 142.5t146 95t182.5 34.5t182.5 -34.5t145.5 -95t97 -142.5t35.5 -176q0 -129 -55 -236.5t-127 -187.5l-340 -387h520v-211h-999zM348 1022q0 -104 63.5 -172t172.5 -68q106 0 170.5 68 t64.5 172q0 102 -64.5 171t-170.5 69q-109 0 -172.5 -69t-63.5 -171z" />
<glyph unicode="3" horiz-adv-x="1058" d="M51 193l166 139q37 -59 101.5 -99t150.5 -40q61 0 112.5 19t89.5 54t59.5 86t21.5 117q-2 125 -79 204t-212 79h-137l266 489h-477v213h819l-287 -528q158 -47 246 -167t88 -290q0 -109 -36 -198t-102.5 -153.5t-158.5 -99t-205 -34.5q-131 0 -244.5 55t-181.5 154z" />
<glyph unicode="4" horiz-adv-x="1204" d="M-41 375l1034 1095v-884h170v-211h-170v-375h-223v375h-811zM438 586h332v350z" />
<glyph unicode="5" horiz-adv-x="1112" d="M96 193l168 143q35 -59 102.5 -101t155.5 -42q123 0 197 76.5t74 191.5q0 57 -19.5 107t-54.5 87t-86 58.5t-115 21.5q-78 0 -132 -34.5t-83 -79.5l-147 65v768h755v-211h-530v-332q35 16 70.5 24.5t76.5 8.5q113 0 205 -36t155.5 -100.5t98.5 -153.5t35 -193.5 t-36 -192.5t-100.5 -150.5t-154.5 -98t-201 -35.5q-131 0 -249.5 55t-184.5 154z" />
<glyph unicode="6" horiz-adv-x="1087" d="M53 459q0 76 26.5 143.5t61.5 128.5l418 723h250l-307 -528q31 6 61 6q90 0 174 -35t149.5 -97.5t105.5 -149.5t40 -191q0 -100 -37 -186.5t-103.5 -151t-155.5 -101t-193.5 -36.5t-193.5 36.5t-155.5 101t-103.5 150.5t-37 187zM281 459q0 -55 18 -103.5t53 -84t83 -57 t107.5 -21.5t108.5 21.5t83 57t52.5 83.5t18.5 104q0 53 -18.5 101t-52.5 85t-83 58.5t-108.5 21.5t-107.5 -21.5t-83 -58.5t-53 -85t-18 -101z" />
<glyph unicode="7" horiz-adv-x="1044" d="M63 1243v211h971l-682 -1454h-241l585 1243h-633z" />
<glyph unicode="8" horiz-adv-x="1173" d="M92 453q0 127 59.5 226t161.5 159q-51 47 -78.5 111.5t-27.5 142.5q0 80 28.5 148.5t80 119.5t121 80.5t149.5 29.5q82 0 151.5 -29.5t120.5 -80.5t81 -120t30 -148q0 -78 -29 -143.5t-80 -112.5q102 -59 161.5 -157.5t59.5 -225.5q0 -98 -37.5 -184.5t-104.5 -150 t-157 -99t-196 -35.5q-104 0 -194.5 35.5t-157 99t-104.5 149.5t-38 185zM322 453q0 -53 19 -101.5t54 -83.5t83.5 -55t107.5 -20q61 0 110 20t84 55t54.5 83t19.5 102q0 55 -19.5 102t-54.5 83t-84 56.5t-110 20.5q-59 0 -107.5 -20.5t-83.5 -56.5t-54 -83t-19 -102z M422 1091.5q0 -71.5 45 -120.5t119 -49q76 0 122 49t46 120.5t-46 121t-122 49.5q-74 0 -119 -49.5t-45 -121z" />
<glyph unicode="9" horiz-adv-x="1087" d="M53 995q0 100 37 186.5t103.5 151t155.5 101t193.5 36.5t193.5 -36.5t155.5 -101t103.5 -150.5t37 -187q0 -76 -26.5 -143.5t-61.5 -128.5l-418 -723h-250l308 528q-31 -6 -62 -6q-90 0 -174 35t-149.5 97.5t-105.5 149.5t-40 191zM281 995q0 -53 18 -101t52 -85 t83 -58.5t108.5 -21.5t107.5 21.5t83 58.5t53.5 85t18.5 101q0 55 -18.5 103.5t-53.5 84.5t-83 57.5t-107.5 21.5t-108.5 -21.5t-83 -57.5t-52 -84t-18 -104z" />
<glyph unicode=":" horiz-adv-x="579" d="M113 162q0 37 14 68.5t37.5 55t56.5 38t70 14.5t68.5 -14.5t56 -38t38 -55t13.5 -68.5q0 -74 -51 -126t-125 -52t-126 52t-52 126zM113 864q0 37 14 69t37.5 55.5t56.5 37.5t70 14t68.5 -14t56 -37.5t38 -55.5t13.5 -69q0 -74 -51 -126t-125 -52t-126 52.5t-52 125.5z " />
<glyph unicode=";" horiz-adv-x="579" d="M113 864q0 37 14 69t37.5 55.5t56.5 37.5t70 14t68.5 -14t56 -37.5t38 -55.5t13.5 -69q0 -74 -51 -126t-125 -52t-126 52.5t-52 125.5zM147 0v289h289v-289l-121 -299h-139l90 299h-119z" />
<glyph unicode="&#x3c;" horiz-adv-x="948" d="M96 561l592 578l131 -133l-459 -445l459 -446l-131 -131z" />
<glyph unicode="=" horiz-adv-x="1269" d="M182 260v180h905v-180h-905zM182 694v180h905v-180h-905z" />
<glyph unicode="&#x3e;" horiz-adv-x="948" d="M129 115l459 446l-459 445l131 133l592 -578l-592 -577z" />
<glyph unicode="?" horiz-adv-x="983" d="M29 1022q0 94 34.5 176t97 142.5t146.5 95t182.5 34.5t182.5 -34.5t145.5 -95t97 -142.5t35.5 -176t-35.5 -176t-97 -142.5t-145.5 -95.5t-183 -35h-116v209h116q106 0 171 69t65 171t-64.5 171t-171.5 69q-109 0 -172 -69t-63 -171h-225zM303 162q0 45 19.5 82t54.5 61 h207q33 -25 53 -61.5t20 -81.5q0 -74 -52 -126t-126 -52q-37 0 -68.5 14t-55 37.5t-38 56.5t-14.5 70z" />
<glyph unicode="@" horiz-adv-x="1652" d="M78 690q0 174 64.5 318.5t173 247t253 158.5t301.5 56q152 0 281 -45t223 -128t147.5 -200.5t53.5 -265.5q0 -133 -33 -228t-85 -154.5t-120.5 -87t-138.5 -27.5t-123 28.5t-78 75.5q-47 -47 -114.5 -73.5t-137.5 -26.5q-82 0 -145 27.5t-106 75.5t-65.5 112.5 t-22.5 136.5q0 92 32.5 174t91 143.5t140.5 96.5t180 35q68 0 119 -20.5t92 -57.5l12 57h164l-100 -469q-14 -68 5 -115t85 -47q82 0 139 84t57 265q0 119 -44 211t-119.5 153.5t-177 93t-214.5 31.5q-127 0 -241.5 -44t-200.5 -126t-137 -199.5t-51 -265.5 q0 -121 37.5 -223t109.5 -176t174.5 -115t233.5 -41q92 0 192 20.5t184 63.5l52 -145q-96 -43 -212 -66.5t-216 -23.5q-166 0 -298.5 55t-225.5 150.5t-142 224.5t-49 276zM582 705q0 -102 52 -156.5t140 -54.5q51 0 98.5 20.5t85.5 67.5l68 313q-31 47 -78 67.5t-94 20.5 q-55 0 -104.5 -20.5t-86 -57.5t-59 -88t-22.5 -112z" />
<glyph unicode="A" horiz-adv-x="1462" d="M20 0l711 1470l711 -1470h-256l-152 324h-608l-152 -324h-254zM528 541h404l-201 430z" />
<glyph unicode="B" horiz-adv-x="1269" d="M162 0v1454h514q98 0 178 -31.5t135 -86t85 -127t30 -152.5q0 -98 -35 -167t-100 -116q102 -43 167.5 -132t65.5 -224q0 -96 -36 -173t-100.5 -131.5t-153.5 -84t-193 -29.5h-557zM399 221h320q123 0 183.5 58.5t60.5 148.5t-60.5 150.5t-183.5 60.5h-320v-418zM399 842 h246q111 0 165 56t54 140q0 80 -54 138.5t-165 58.5h-246v-393z" />
<glyph unicode="C" horiz-adv-x="1394" d="M78 727q0 158 58.5 294t158.5 235.5t236.5 156.5t290 57t283.5 -53t230 -157l-153 -168q-68 72 -161 112.5t-200 40.5q-109 0 -200 -40t-158.5 -109.5t-105.5 -164.5t-38 -204t38 -204t105.5 -164.5t159 -109.5t199.5 -40q106 0 199.5 41t161.5 112l153 -167 q-100 -104 -230 -157.5t-283.5 -53.5t-290 57t-236.5 156.5t-158.5 235.5t-58.5 294z" />
<glyph unicode="D" horiz-adv-x="1462" d="M162 0v1454h461q162 0 302 -55.5t241.5 -153.5t159.5 -231t58 -287t-58 -287t-159.5 -231t-242 -153.5t-301.5 -55.5h-461zM399 221h224q117 0 213 39t164.5 106.5t105.5 159.5t37 201q0 106 -37 199.5t-105.5 161t-165 106.5t-212.5 39h-224v-1012z" />
<glyph unicode="E" horiz-adv-x="1114" d="M162 0v1454h862v-233h-625v-369h502v-229h-502v-390h625v-233h-862z" />
<glyph unicode="F" horiz-adv-x="1052" d="M162 0v1454h844v-233h-607v-369h473v-229h-473v-623h-237z" />
<glyph unicode="G" horiz-adv-x="1495" d="M78 727q0 158 58.5 294t158.5 235.5t236.5 156.5t289.5 57q156 0 293 -53t238 -157l-154 -168q-68 72 -168 112.5t-208.5 40.5t-200 -40t-159 -109.5t-105.5 -164.5t-38 -204t38 -204t105.5 -164.5t159 -109.5t199.5 -40q80 0 158 19.5t139 58.5v336h-399l104 229h533 v-682q-102 -88 -241.5 -137t-293 -49t-290 57t-236.5 156.5t-158.5 235.5t-58.5 294z" />
<glyph unicode="H" horiz-adv-x="1519" d="M162 0v1454h237v-602h721v602h238v-1454h-238v623h-721v-623h-237z" />
<glyph unicode="I" horiz-adv-x="561" d="M162 0v1454h237v-1454h-237z" />
<glyph unicode="J" horiz-adv-x="1085" d="M33 428h239q0 -111 60.5 -164t146.5 -55q86 0 147.5 54t61.5 165v1026h238v-1030q0 -111 -37 -194t-98.5 -137t-142.5 -81.5t-169 -27.5t-169 27.5t-142.5 83t-98 139t-36.5 194.5z" />
<glyph unicode="K" horiz-adv-x="1355" d="M162 0v1454h237v-731l613 731h282l-616 -735l678 -719h-307l-650 686v-686h-237z" />
<glyph unicode="L" horiz-adv-x="1034" d="M162 0v1454h237v-1218h613v-236h-850z" />
<glyph unicode="M" horiz-adv-x="1753" d="M162 0v1470l715 -761l714 761v-1470h-237v893l-477 -516l-478 516v-893h-237z" />
<glyph unicode="N" horiz-adv-x="1554" d="M162 0v1470l993 -944v928h238v-1470l-994 944v-928h-237z" />
<glyph unicode="O" d="M78 727q0 158 58.5 294t158.5 235.5t236.5 156.5t289.5 57q156 0 291 -57t235.5 -156.5t159 -235.5t58.5 -294t-58.5 -294t-159 -235.5t-235.5 -156.5t-291 -57q-154 0 -290 57t-236 156.5t-158.5 235.5t-58.5 294zM319 727q0 -109 38 -204t105.5 -164.5t158.5 -109.5 t200 -40q106 0 198.5 40t160 109.5t105.5 164.5t38 204t-38 204t-105.5 164.5t-159.5 109.5t-199 40q-109 0 -200 -40t-158.5 -109.5t-105.5 -164.5t-38 -204z" />
<glyph unicode="P" horiz-adv-x="1144" d="M162 0v1454h434q113 0 206 -34t160.5 -95t104.5 -146t37 -187.5t-37 -187.5t-104.5 -146.5t-160.5 -95.5t-206 -34h-197v-528h-237zM399 750h187q131 0 203.5 65.5t72.5 176t-72.5 176t-203.5 65.5h-187v-483z" />
<glyph unicode="Q" d="M78 727q0 158 58.5 294t158.5 235.5t236.5 156.5t289.5 57q156 0 291 -57t235.5 -156.5t159 -235.5t58.5 -294q0 -111 -29 -208t-80 -183l225 -184l-141 -168l-225 182q-98 -86 -224 -134t-270 -48q-154 0 -290 57t-236 156.5t-158.5 235.5t-58.5 294zM319 727 q0 -109 38 -204t105.5 -164.5t158.5 -109.5t200 -40q90 0 169 27.5t143 78.5l-207 170l141 168l203 -166q25 53 39 114t14 126q0 109 -38 204t-105.5 164.5t-159.5 109.5t-199 40q-109 0 -200 -40t-158.5 -109.5t-105.5 -164.5t-38 -204z" />
<glyph unicode="R" horiz-adv-x="1273" d="M162 0v1454h471q100 0 185 -30.5t146.5 -86t96.5 -132.5t35 -169q0 -141 -80 -246.5t-219 -148.5l463 -641h-285l-438 618h-138v-618h-237zM399 825h211q123 0 183.5 55.5t60.5 147.5q0 94 -60.5 150.5t-183.5 56.5h-211v-410z" />
<glyph unicode="S" horiz-adv-x="1060" d="M41 231l180 152q51 -70 131 -122t176 -52q106 0 165 45t59 123q0 82 -51.5 135t-159.5 100l-115 50q-328 143 -328 423q0 88 37 159t96.5 121t137 77.5t161.5 27.5q127 0 227.5 -44t180.5 -140l-164 -170q-57 68 -112.5 98.5t-133.5 30.5q-74 0 -133 -41t-59 -117 q0 -72 50 -124t161 -99l112 -51q150 -66 242 -165t92 -251q0 -92 -32.5 -167.5t-93 -131t-147 -85t-190.5 -29.5q-166 0 -292.5 67.5t-196.5 179.5z" />
<glyph unicode="T" horiz-adv-x="1071" d="M41 1221v233h989v-233h-377v-1221h-237v1221h-375z" />
<glyph unicode="U" horiz-adv-x="1456" d="M143 565v889h238v-895q0 -170 96 -260t252 -90t251 90t95 260v895h238v-889q0 -135 -43 -242.5t-121 -182t-184.5 -115.5t-235.5 -41t-236.5 41t-185.5 115.5t-121 182t-43 242.5z" />
<glyph unicode="V" horiz-adv-x="1355" d="M4 1454h262l412 -930l414 930h260l-674 -1470z" />
<glyph unicode="W" horiz-adv-x="1828" d="M23 1454h243l287 -838l360 854l361 -854l287 838h245l-501 -1470l-392 942l-391 -942z" />
<glyph unicode="X" horiz-adv-x="1376" d="M29 0l499 737l-471 717h275l356 -539l356 539h275l-469 -717l498 -737h-273l-385 565l-385 -565h-276z" />
<glyph unicode="Y" horiz-adv-x="1312" d="M2 1454h279l374 -600l375 600h281l-537 -842v-612h-237v612z" />
<glyph unicode="Z" horiz-adv-x="1255" d="M35 0l760 1221h-674v233h1081l-760 -1221h746v-233h-1153z" />
<glyph unicode="[" horiz-adv-x="575" d="M133 -303v1835h418v-174h-219v-1487h219v-174h-418z" />
<glyph unicode="\" horiz-adv-x="901" d="M0 1454h207l694 -1454h-207z" />
<glyph unicode="]" horiz-adv-x="575" d="M25 -129h219v1487h-219v174h417v-1835h-417v174z" />
<glyph unicode="^" horiz-adv-x="1224" d="M51 637l561 825l562 -825h-216l-346 506l-348 -506h-213z" />
<glyph unicode="_" horiz-adv-x="876" d="M0 0h877v-180h-877v180z" />
<glyph unicode="`" horiz-adv-x="671" d="M111 1454h272l172 -338h-174z" />
<glyph unicode="a" horiz-adv-x="1251" d="M82 512q0 113 40 209t109.5 166.5t166 111.5t210.5 41q82 0 151.5 -24.5t123.5 -67.5v76h225v-1024h-225v74q-53 -43 -123 -66.5t-152 -23.5q-115 0 -211 41t-165.5 111.5t-109.5 166.5t-40 209zM313 512q0 -68 21.5 -125t61.5 -99t94 -65.5t120 -23.5q86 0 159 37.5 t114 101.5v348q-41 63 -114 101t-159 38q-66 0 -120 -23.5t-94 -65.5t-61.5 -99t-21.5 -125z" />
<glyph unicode="b" horiz-adv-x="1312" d="M143 0v1454h226v-649l219 219h581v-1024h-1026zM369 219h577v586h-577v-586z" />
<glyph unicode="c" horiz-adv-x="1073" d="M82 512q0 113 40 209t110.5 166.5t167 111.5t210.5 41q123 0 221.5 -46t169.5 -124l-153 -157q-41 47 -99.5 77.5t-138.5 30.5q-66 0 -120 -23.5t-94 -64.5t-61.5 -97t-21.5 -124t21.5 -124t61.5 -97t94.5 -64.5t119.5 -23.5q80 0 138.5 30.5t99.5 77.5l153 -157 q-72 -78 -170 -124t-221 -46q-115 0 -211 41t-166.5 111.5t-110.5 166.5t-40 209z" />
<glyph unicode="d" horiz-adv-x="1312" d="M143 0v1024h801v430h225v-1454h-225v805h-575v-586h575l-219 -219h-582z" />
<glyph unicode="e" horiz-adv-x="1175" d="M82 512q0 113 40 209t110.5 166.5t166 111.5t207.5 41q106 0 194.5 -36.5t152 -104.5t100.5 -166t43 -221v-61h-781q16 -111 97.5 -177.5t197.5 -66.5q92 0 159 36t108 81l151 -162q-66 -78 -174.5 -128t-243.5 -50q-115 0 -211 41t-166.5 111.5t-110.5 166.5t-40 209z M322 625h526q-20 104 -88 156.5t-170 52.5q-92 0 -166 -55.5t-102 -153.5z" />
<glyph unicode="f" horiz-adv-x="735" d="M0 823l201 201v430h491v-201h-266v-229h266v-201h-266v-823h-225v823h-201z" />
<glyph unicode="g" horiz-adv-x="1234" d="M82 540.5q0 108.5 37 199.5t104.5 158t160.5 104.5t208 37.5q82 0 150.5 -24.5t121.5 -67.5v76h226v-817q23 -53 31.5 -105.5t8.5 -97.5q0 -111 -47 -186.5t-122.5 -123.5t-173 -69.5t-195.5 -21.5q-106 0 -223 28.5t-217 94.5l118 196q66 -47 145 -75.5t177 -28.5 q57 0 111.5 10t97.5 34.5t68.5 66.5t25.5 104q0 23 -5 51.5t-18 52.5q-53 -43 -123.5 -69.5t-156.5 -26.5q-115 0 -208 38t-160.5 104.5t-104.5 157.5t-37 199.5zM313 540.5q0 -63.5 21.5 -115.5t59.5 -90t89.5 -58.5t110.5 -20.5q86 0 157.5 37t112.5 100v295 q-41 63 -112.5 100t-157.5 37q-59 0 -110.5 -20.5t-89.5 -58t-59.5 -90t-21.5 -116z" />
<glyph unicode="h" horiz-adv-x="1214" d="M143 0v1454h226v-649l219 219h483v-1024h-225v805h-477v-805h-226z" />
<glyph unicode="i" horiz-adv-x="512" d="M106 1321q0 61 44.5 105t105.5 44t105.5 -44t44.5 -105q0 -55 -37 -98h-226q-37 43 -37 98zM143 0v1024h226v-1024h-226z" />
<glyph unicode="j" horiz-adv-x="512" d="M-70 -377l213 213v1188h226v-1401h-439zM143 1223v231h226v-231h-226z" />
<glyph unicode="k" horiz-adv-x="1095" d="M143 0v1454h226v-893l409 463h266l-426 -485l478 -539h-277l-450 510v-510h-226z" />
<glyph unicode="l" horiz-adv-x="512" d="M143 0v1245l226 225v-1470h-226z" />
<glyph unicode="m" horiz-adv-x="1828" d="M143 0v1024h226v-1024h-226zM371 805l219 219h438v-1024h-225v805h-432zM1028 805l219 219h439v-1024h-226v805h-432z" />
<glyph unicode="n" horiz-adv-x="1214" d="M143 0v1024h226v-219l219 219h483v-1024h-225v805h-477v-805h-226z" />
<glyph unicode="o" horiz-adv-x="1224" d="M82 512q0 113 40 209t110.5 166.5t168 111.5t211.5 41q113 0 210.5 -41t169 -111.5t111.5 -166.5t40 -209t-40 -209t-111.5 -166.5t-169 -111.5t-210.5 -41q-115 0 -212 41t-167.5 111.5t-110.5 166.5t-40 209zM313 512q0 -68 21.5 -125t61.5 -99t95.5 -65.5t121 -23.5 t119.5 23.5t94 65.5t62.5 99t22.5 125t-22.5 125t-62.5 99t-94 65.5t-119.5 23.5t-121 -23.5t-95.5 -65.5t-61.5 -99t-21.5 -125z" />
<glyph unicode="p" horiz-adv-x="1312" d="M143 -377v1401h226v-219l219 219h581v-1024h-800v-377h-226zM369 219h575v586h-575v-586z" />
<glyph unicode="q" horiz-adv-x="1312" d="M143 0v1024h1026v-1401h-225v1182h-575v-586h575l-219 -219h-582z" />
<glyph unicode="r" horiz-adv-x="751" d="M143 0v1024h226v-219l219 219h119v-219h-338v-805h-226z" />
<glyph unicode="s" horiz-adv-x="851" d="M39 193l172 122q37 -63 84 -97t125 -34q59 0 95 27t36 68q0 45 -33 73.5t-104 55.5l-72 28q-131 51 -190.5 131t-59.5 185q0 61 24.5 114.5t68.5 92t104.5 60t132.5 21.5q98 0 180 -41t139 -137l-166 -114q-51 92 -149 92q-45 0 -79 -21.5t-34 -60.5q0 -41 30 -68.5 t101 -56.5l74 -27q129 -51 198.5 -123.5t69.5 -193.5q0 -68 -26.5 -124t-74.5 -96t-115.5 -62.5t-149.5 -22.5q-123 0 -220.5 50t-160.5 159z" />
<glyph unicode="t" horiz-adv-x="825" d="M-45 823l504 508l-2 -307h284v-201h-284l-2 -616h286v-207h-512v823h-274z" />
<glyph unicode="u" horiz-adv-x="1214" d="M143 0v1024h226v-805h477l-219 -219h-484zM846 0v1024h225v-1024h-225z" />
<glyph unicode="v" horiz-adv-x="1122" d="M0 1024h254l307 -602l303 602h258l-561 -1040z" />
<glyph unicode="w" horiz-adv-x="1480" d="M27 1024h235l203 -670l276 686l275 -686l203 670h235l-324 -1024h-176l-213 532l-215 -532h-176z" />
<glyph unicode="x" horiz-adv-x="1112" d="M27 0l387 518l-367 506h260l248 -340l248 340h260l-367 -506l387 -518h-262l-266 365l-266 -365h-262z" />
<glyph unicode="y" horiz-adv-x="1044" d="M0 1024h242l278 -707l281 707h241l-585 -1401h-238l184 430z" />
<glyph unicode="z" horiz-adv-x="1038" d="M39 0l557 823h-492v201h881l-557 -823h528v-201h-917z" />
<glyph unicode="{" horiz-adv-x="620" d="M49 528v172h27q72 0 94.5 36t22.5 98v405q0 141 64.5 217t205.5 76h131v-174h-86q-72 0 -95.5 -33t-23.5 -104v-390q0 -92 -27.5 -142t-87.5 -75q59 -23 87 -72.5t28 -144.5v-389q0 -72 23.5 -104.5t95.5 -32.5h86v-174h-125q-141 0 -208.5 75.5t-67.5 217.5v405 q0 63 -23 98t-94 35h-27z" />
<glyph unicode="|" horiz-adv-x="501" d="M152 -377v1831h198v-1831h-198z" />
<glyph unicode="}" horiz-adv-x="620" d="M27 -129h86q72 0 95 33t23 104v389q0 94 28 144.5t87 72.5q-59 25 -87 75t-28 142v390q0 72 -23.5 104.5t-94.5 32.5h-86v174h131q141 0 205.5 -76t64.5 -217v-405q0 -61 22.5 -97.5t94.5 -36.5h26v-172h-26q-72 0 -94.5 -34.5t-22.5 -98.5v-405q0 -141 -67.5 -217 t-208.5 -76h-125v174z" />
<glyph unicode="~" horiz-adv-x="1222" d="M182 408v221l221 149l406 -155l231 151v-211l-223 -155l-405 155z" />
<glyph unicode="&#xa1;" horiz-adv-x="612" d="M129 862q0 37 14.5 70t38 56.5t55 37.5t68.5 14q74 0 126 -52t52 -126q0 -45 -20.5 -83t-52.5 -60h-207q-35 23 -54.5 60.5t-19.5 82.5zM193 154l45 393h139l43 -393v-531h-227v531z" />
<glyph unicode="&#xa2;" horiz-adv-x="1103" d="M96 512q0 100 33 188t91.5 157t138 114t176.5 61v172h182v-172q92 -16 166.5 -58t132.5 -104l-154 -157q-41 47 -99 77.5t-138 30.5q-66 0 -120 -23.5t-94 -64.5t-61.5 -97t-21.5 -124t21.5 -124t61.5 -97t94 -64.5t120 -23.5q80 0 138 30.5t99 77.5l154 -157 q-57 -61 -132 -103.5t-167 -58.5v-172h-182v172q-96 14 -176 59t-138.5 115t-91.5 158t-33 188z" />
<glyph unicode="&#xa3;" horiz-adv-x="1265" d="M147 0v211h175v405h-175v185h166q-39 47 -59.5 108.5t-20.5 124.5q0 86 34 166t93.5 139.5t142.5 95t181 35.5q94 0 176 -34.5t142.5 -94t96.5 -139.5t38 -172h-230q0 49 -16.5 91t-45 73t-70.5 49.5t-91 18.5q-98 0 -161.5 -64.5t-63.5 -163.5q0 -49 16.5 -91t47 -73.5 t71.5 -50t90 -18.5h166v-185h-301v-405h620v-211h-1022z" />
<glyph unicode="&#xa4;" horiz-adv-x="1335" d="M137 272l142 142q-47 61 -74 136t-27 159q0 86 25.5 160.5t72.5 136.5l-139 141l80 78l137 -138q63 53 141 82t167 29q92 0 171.5 -30.5t143.5 -84.5l141 142l80 -78l-145 -143q47 -61 72.5 -136t25.5 -159t-26.5 -158t-73.5 -135l147 -144l-80 -79l-143 143 q-66 -53 -144.5 -82t-168.5 -29q-86 0 -164 28t-142 79l-139 -139zM383 709q0 -61 20.5 -113.5t57.5 -90.5t88.5 -60.5t112.5 -22.5q63 0 115 22.5t91 60.5t60.5 90t21.5 114q0 63 -21.5 116.5t-60.5 93t-91 62.5t-115 23q-61 0 -112.5 -23t-88.5 -62.5t-57.5 -93 t-20.5 -116.5z" />
<glyph unicode="&#xa5;" horiz-adv-x="1341" d="M23 1454h262l385 -612l383 612h264l-445 -698h248v-181h-338v-151h338v-180h-338v-244h-223v244h-338v180h338v151h-338v181h246z" />
<glyph unicode="&#xa6;" horiz-adv-x="501" d="M152 -377v787h198v-787h-198zM152 670v784h198v-784h-198z" />
<glyph unicode="&#xa7;" horiz-adv-x="1024" d="M127 545q0 102 51 189t135 134l-32 27q-68 66 -90.5 133.5t-22.5 137t26.5 126t72.5 96t107.5 61t131.5 21.5q117 0 203 -57t127 -158l-158 -90q-29 63 -70 99t-106 36q-53 0 -94 -36.5t-41 -98.5q0 -27 6 -53.5t24.5 -54t52 -56t87.5 -59.5q16 -10 34.5 -18.5 t40.5 -16.5q57 -18 109.5 -49t91.5 -76t61.5 -103t22.5 -134q0 -106 -50 -192.5t-138 -139.5q8 -8 15 -14t15 -13q66 -59 88.5 -123.5t22.5 -142.5q0 -70 -26.5 -128t-75 -100t-113.5 -65.5t-143 -23.5q-123 0 -212.5 57t-142.5 160l158 102q37 -72 83 -110.5t118 -38.5 q63 0 110 40t47 105q0 31 -9 60.5t-32.5 57t-63.5 57.5t-104 61q-14 6 -27.5 13t-29.5 13q-121 43 -190.5 137.5t-69.5 227.5zM322 545q0 -41 14 -79t39.5 -65.5t60.5 -44t76 -16.5t76 16.5t59.5 44t38.5 65.5t14 79q0 84 -53 138t-135 54t-136 -54t-54 -138z" />
<glyph unicode="&#xa8;" horiz-adv-x="954" d="M102 1288.5q0 57.5 41 98t98.5 40.5t98.5 -40.5t41 -98t-41 -97.5t-98.5 -40t-98.5 40t-41 97.5zM575 1288.5q0 57.5 39 98t99 40.5q57 0 97 -40.5t40 -98t-40 -97.5t-97 -40q-59 0 -98.5 40t-39.5 97.5z" />
<glyph unicode="&#xa9;" d="M78 727q0 160 58.5 295t159.5 235.5t236.5 156.5t289 56t288.5 -56t236.5 -156.5t160 -235.5t58.5 -295t-58.5 -295t-160 -235.5t-236.5 -156.5t-288.5 -56t-289 56t-236.5 156.5t-159.5 235.5t-58.5 295zM248 727q0 -125 45 -230.5t122 -183t181 -122t225 -44.5 t225.5 44.5t181.5 122t121 183t44 230.5t-44 231.5t-121 183.5t-181.5 121t-225.5 44t-225 -44t-181 -121t-122 -183.5t-45 -231.5zM465 727q0 80 28.5 149.5t79 120t119 79t150.5 28.5q197 0 303 -164l-123 -84q-29 47 -78 74.5t-106 27.5q-90 0 -151.5 -62t-61.5 -168.5 t61.5 -169t151.5 -62.5q57 0 106 27.5t78 74.5l123 -84q-53 -78 -129 -121t-174 -43q-82 0 -150.5 29t-119 79t-79 119.5t-28.5 149.5z" />
<glyph unicode="&#xaa;" horiz-adv-x="737" d="M43 1147q0 63 22.5 121.5t62.5 101.5t96.5 68.5t123.5 25.5q41 0 79 -14t67 -37v41h165v-614h-165v41q-57 -51 -146 -52q-68 0 -124 26t-96 69t-62.5 100t-22.5 123zM211 1146.5q0 -67.5 42 -114.5t114 -47q82 0 127 64v196q-23 29 -54.5 46.5t-72.5 17.5 q-72 0 -114 -47.5t-42 -115z" />
<glyph unicode="&#xab;" horiz-adv-x="1064" d="M63 512l320 467l154 -105l-248 -362l248 -362l-154 -105zM502 512l319 467l154 -105l-248 -362l248 -362l-154 -105z" />
<glyph unicode="&#xac;" horiz-adv-x="1259" d="M182 477v180h895v-557h-182v377h-713z" />
<glyph unicode="&#xad;" horiz-adv-x="706" d="M90 455v223h528v-223h-528z" />
<glyph unicode="&#xae;" d="M78 727q0 160 58.5 295t159.5 235.5t236.5 156.5t289 56t288.5 -56t236.5 -156.5t160 -235.5t58.5 -295t-58.5 -295t-160 -235.5t-236.5 -156.5t-288.5 -56t-289 56t-236.5 156.5t-159.5 235.5t-58.5 295zM248 727q0 -125 45 -230.5t122 -183t181 -122t225 -44.5 t225.5 44.5t181.5 122t121 183t44 230.5t-44 231.5t-121 183.5t-181.5 121t-225.5 44t-225 -44t-181 -121t-122 -183.5t-45 -231.5zM571 358v740h299q53 0 96.5 -18.5t74 -49.5t47 -71.5t16.5 -86.5q0 -78 -43 -134t-121 -79l225 -301h-180l-213 289h-49v-289h-152zM721 780 h133q51 0 75.5 25.5t24.5 62.5q0 35 -24.5 60.5t-75.5 25.5h-133v-174z" />
<glyph unicode="&#xaf;" horiz-adv-x="839" d="M106 1231v155h627v-155h-627z" />
<glyph unicode="&#xb0;" horiz-adv-x="692" d="M96 1212.5q0 51.5 19.5 97.5t53.5 79.5t80 53t97 19.5t97 -19.5t80 -53t53.5 -79.5t19.5 -97.5t-19.5 -97.5t-53.5 -80t-80 -53t-97 -19t-97 19t-80 53t-53.5 80t-19.5 97.5zM233 1212.5q0 -47.5 33 -80t80 -32.5t80 32.5t33 80t-33 80t-80 32.5t-80 -32.5t-33 -80z" />
<glyph unicode="&#xb1;" horiz-adv-x="1259" d="M182 0v180h895v-180h-895zM182 580v180h357v264h182v-264h356v-180h-356v-273h-182v273h-357z" />
<glyph unicode="&#xb2;" horiz-adv-x="704" d="M10 840l285 340q-31 0 -70 17t-73.5 51t-58 83t-23.5 115q0 57 22.5 107.5t60 88t90 59t111.5 21.5q57 0 109.5 -21.5t91.5 -59t61.5 -88t22.5 -107.5q0 -59 -22.5 -109.5t-63.5 -99.5l-201 -242h285v-155h-627zM238 1446q0 -51 31.5 -87t85 -36t85 36t31.5 87 q0 49 -31.5 85t-85 36t-85 -36t-31.5 -85z" />
<glyph unicode="&#xb3;" horiz-adv-x="636" d="M23 954l120 107q20 -33 53 -54.5t80 -21.5q66 0 106 39t40 106q0 66 -40 106t-108 40h-86l142 280h-269v156h514l-153 -311q78 -35 124 -103.5t46 -167.5q0 -68 -22.5 -123t-62.5 -95t-96 -61.5t-126 -21.5q-80 0 -149.5 33t-112.5 92z" />
<glyph unicode="&#xb4;" horiz-adv-x="671" d="M113 1116l174 338h272l-268 -338h-178z" />
<glyph unicode="&#xb5;" horiz-adv-x="1214" d="M143 -377v1340h226v-1340h-226zM143 424v600h226v-596q0 -41 15 -82t45 -73.5t74 -53t99 -20.5q86 0 148.5 43t95.5 131v651h225v-1024h-225v94q-53 -59 -130 -84.5t-157 -25.5q-96 0 -173 31.5t-130 89t-83 139.5t-30 180z" />
<glyph unicode="&#xb6;" horiz-adv-x="1316" d="M86 993q0 94 36 178t99.5 147.5t146.5 99.5t179 36h588v-1831h-197v1630h-195v-1630h-196v909q-96 0 -179 36t-146.5 99.5t-99.5 146.5t-36 179z" />
<glyph unicode="&#xb7;" horiz-adv-x="579" d="M113 565q0 37 14 69t37.5 55.5t56.5 37.5t70 14t68.5 -14t56 -37.5t38 -55.5t13.5 -69q0 -74 -51 -126t-125 -52t-126 52.5t-52 125.5z" />
<glyph unicode="&#xb8;" horiz-adv-x="546" d="M106 -270l119 270h168l-82 -270h-205z" />
<glyph unicode="&#xb9;" horiz-adv-x="370" d="M102 840v716l166 170v-886h-166z" />
<glyph unicode="&#xba;" horiz-adv-x="720" d="M41 1146.5q0 65.5 24.5 124t67.5 101.5t101.5 67.5t126 24.5t126 -24.5t101.5 -67.5t67.5 -101.5t24.5 -124t-24.5 -123.5t-67.5 -101t-101.5 -68t-126 -25t-126 25t-101.5 68t-67.5 101t-24.5 123.5zM211 1147q0 -70 42 -115t107.5 -45t107.5 45t42 115t-42 115 t-107.5 45t-107.5 -45t-42 -115z" />
<glyph unicode="&#xbb;" horiz-adv-x="1064" d="M96 150l248 362l-248 362l154 105l319 -467l-319 -467zM535 150l247 362l-247 362l153 105l320 -467l-320 -467z" />
<glyph unicode="&#xbc;" horiz-adv-x="1538" d="M63 0l1024 1454h185l-1024 -1454h-185zM131 582v716l168 170v-886h-168zM770 207l619 680v-533h88v-147h-88v-207h-168v207h-451zM1079 354h142v154z" />
<glyph unicode="&#xbd;" horiz-adv-x="1634" d="M63 0l1024 1454h185l-1024 -1454h-185zM131 582v716l168 170v-886h-168zM883 0l284 340q-31 0 -69.5 17.5t-73.5 51t-58.5 83t-23.5 114.5q0 57 22.5 107.5t60.5 88.5t90 59.5t112 21.5q57 0 109.5 -21.5t91 -59.5t61 -88t22.5 -108q0 -59 -22.5 -109.5t-63.5 -99.5 l-200 -241h284v-156h-626zM1110 606q0 -51 32 -87t85 -36t84.5 36t31.5 87q0 49 -31.5 85t-84.5 36t-85 -36t-32 -85z" />
<glyph unicode="&#xbe;" horiz-adv-x="1773" d="M102 696l119 107q23 -33 55.5 -54.5t79.5 -21.5q66 0 106 39t40 106q0 66 -40 106t-108 40h-86l140 280h-267v156h514l-155 -311q80 -35 125 -103.5t45 -167.5q0 -135 -83 -218t-222 -83q-82 0 -151 33t-112 92zM297 0l1024 1454h184l-1024 -1454h-184zM1004 207l618 680 v-533h88v-147h-88v-207h-168v207h-450zM1313 354h141v154z" />
<glyph unicode="&#xbf;" horiz-adv-x="983" d="M33 51q0 94 35.5 176t97 142.5t145.5 95.5t183 35h116v-209h-116q-106 0 -171 -68.5t-65 -171t64.5 -171t171.5 -68.5q109 0 172 68.5t63 170.5h225q0 -94 -34.5 -176t-97 -142.5t-146.5 -95t-182.5 -34.5t-182.5 34.5t-145.5 95t-97 142.5t-35.5 176zM326 862 q0 74 52 126t126 52q37 0 68.5 -14t55 -37.5t38 -56.5t14.5 -70q0 -45 -19.5 -82t-54.5 -61h-207q-33 25 -53 61.5t-20 81.5z" />
<glyph unicode="&#xc0;" horiz-adv-x="1462" d="M20 0l711 1470l711 -1470h-256l-152 324h-608l-152 -324h-254zM420 1870h266l154 -297h-178zM528 541h404l-201 430z" />
<glyph unicode="&#xc1;" horiz-adv-x="1462" d="M20 0l711 1470l711 -1470h-256l-152 324h-608l-152 -324h-254zM528 541h404l-201 430zM647 1573l152 297h266l-240 -297h-178z" />
<glyph unicode="&#xc2;" horiz-adv-x="1462" d="M20 0l711 1470l711 -1470h-256l-152 324h-608l-152 -324h-254zM373 1706l358 186l356 -186l-75 -150l-281 150l-282 -150zM528 541h404l-201 430z" />
<glyph unicode="&#xc3;" horiz-adv-x="1462" d="M20 0l711 1470l711 -1470h-256l-152 324h-608l-152 -324h-254zM358 1591l9 47q8 49 30.5 89t53 67t67.5 41t74 14q43 0 80 -13t67.5 -30.5t58 -31t52.5 -13.5q41 0 61.5 20.5t32.5 67.5h160l-6 -45q-8 -49 -29.5 -89t-52.5 -66.5t-67 -41t-75 -14.5q-45 0 -81.5 13.5 t-68.5 31t-58.5 30.5t-51.5 13q-41 0 -62.5 -21.5t-31.5 -68.5h-162zM528 541h404l-201 430z" />
<glyph unicode="&#xc4;" horiz-adv-x="1462" d="M20 0l711 1470l711 -1470h-256l-152 324h-608l-152 -324h-254zM356 1724q0 57 42 98.5t98 41.5q59 0 99 -41t40 -99q0 -59 -40 -99t-99 -40q-55 0 -97.5 40t-42.5 99zM528 541h404l-201 430zM827 1724q0 57 41 98.5t99 41.5q59 0 99 -41t40 -99q0 -59 -40 -99t-99 -40 q-57 0 -98.5 40t-41.5 99z" />
<glyph unicode="&#xc5;" horiz-adv-x="1462" d="M20 0l711 1470l711 -1470h-256l-152 324h-608l-152 -324h-254zM512 1749q0 92 63.5 152.5t155.5 60.5q45 0 85 -16.5t69.5 -45t47 -67.5t17.5 -84t-17.5 -84t-47 -67.5t-69.5 -45t-85 -16.5q-47 0 -87 16.5t-68.5 45t-46 67.5t-17.5 84zM528 541h404l-201 430zM633 1749 q0 -43 28.5 -69.5t69.5 -26.5t68.5 26.5t27.5 69.5q0 41 -27.5 69.5t-68.5 28.5t-69.5 -28.5t-28.5 -69.5z" />
<glyph unicode="&#xc6;" horiz-adv-x="2031" d="M20 0l592 1225l-106 229h803l112 -233h-569l178 -369h467l111 -229h-467l188 -390h569l113 -233h-825l-152 324h-608l-152 -324h-254zM528 541h404l-201 430z" />
<glyph unicode="&#xc7;" horiz-adv-x="1394" d="M78 727q0 158 58.5 294t158.5 235.5t236.5 156.5t290 57t283.5 -53t230 -157l-153 -168q-68 72 -161 112.5t-200 40.5q-109 0 -200 -40t-158.5 -109.5t-105.5 -164.5t-38 -204t38 -204t105.5 -164.5t159 -109.5t199.5 -40q106 0 199.5 41t161.5 112l153 -167 q-100 -104 -230 -157.5t-283.5 -53.5t-290 57t-236.5 156.5t-158.5 235.5t-58.5 294zM559 -270l119 270h168l-82 -270h-205z" />
<glyph unicode="&#xc8;" horiz-adv-x="1114" d="M162 0v1454h862v-233h-625v-369h502v-229h-502v-390h625v-233h-862zM324 1870h266l153 -297h-178z" />
<glyph unicode="&#xc9;" horiz-adv-x="1114" d="M162 0v1454h862v-233h-625v-369h502v-229h-502v-390h625v-233h-862zM442 1573l152 297h266l-239 -297h-179z" />
<glyph unicode="&#xca;" horiz-adv-x="1114" d="M162 0v1454h862v-233h-625v-369h502v-229h-502v-390h625v-233h-862zM236 1706l358 186l356 -186l-76 -150l-280 150l-283 -150z" />
<glyph unicode="&#xcb;" horiz-adv-x="1114" d="M162 0v1454h862v-233h-625v-369h502v-229h-502v-390h625v-233h-862zM217 1724q0 57 42 98.5t97 41.5q59 0 99.5 -41t40.5 -99q0 -59 -40.5 -99t-99.5 -40q-55 0 -97 40t-42 99zM688 1724q0 57 41 98.5t98 41.5q59 0 99.5 -41t40.5 -99q0 -59 -40.5 -99t-99.5 -40 q-57 0 -98 40t-41 99z" />
<glyph unicode="&#xcc;" horiz-adv-x="561" d="M12 1870h267l153 -297h-178zM162 0v1454h237v-1454h-237z" />
<glyph unicode="&#xcd;" horiz-adv-x="561" d="M131 1573l152 297h266l-240 -297h-178zM162 0v1454h237v-1454h-237z" />
<glyph unicode="&#xce;" horiz-adv-x="561" d="M-76 1706l359 186l356 -186l-76 -150l-280 150l-283 -150zM162 0v1454h237v-1454h-237z" />
<glyph unicode="&#xcf;" horiz-adv-x="561" d="M-92 1724q0 57 42 98.5t97 41.5q59 0 99 -41t40 -99q0 -59 -40 -99t-99 -40q-55 0 -97 40t-42 99zM162 0v1454h237v-1454h-237zM379 1724q0 57 41 98.5t98 41.5q59 0 99 -41t40 -99q0 -59 -40 -99t-99 -40q-57 0 -98 40t-41 99z" />
<glyph unicode="&#xd0;" horiz-adv-x="1511" d="M-12 641v221h223v592h461q162 0 302 -55.5t241.5 -153.5t160 -231t58.5 -287t-58.5 -287t-160 -231t-241.5 -153.5t-302 -55.5h-461v641h-223zM449 221h223q117 0 213 39t164.5 106.5t105.5 159.5t37 201q0 106 -37 199.5t-105.5 161t-165 106.5t-212.5 39h-223v-371h266 v-221h-266v-420z" />
<glyph unicode="&#xd1;" horiz-adv-x="1554" d="M162 0v1470l993 -944v928h238v-1470l-994 944v-928h-237zM403 1591l9 47q8 49 30.5 89t53 67t67.5 41t74 14q43 0 80 -13t67.5 -30.5t58 -31t52.5 -13.5q41 0 61.5 20.5t32.5 67.5h160l-6 -45q-8 -49 -29.5 -89t-52.5 -66.5t-67 -41t-74 -14.5q-45 0 -82 13.5t-69 31 t-58.5 30.5t-51.5 13q-41 0 -62.5 -21.5t-31.5 -68.5h-162z" />
<glyph unicode="&#xd2;" d="M78 727q0 158 58.5 294t158.5 235.5t236.5 156.5t289.5 57q156 0 291 -57t235.5 -156.5t159 -235.5t58.5 -294t-58.5 -294t-159 -235.5t-235.5 -156.5t-291 -57q-154 0 -290 57t-236 156.5t-158.5 235.5t-58.5 294zM319 727q0 -109 38 -204t105.5 -164.5t158.5 -109.5 t200 -40q106 0 198.5 40t160 109.5t105.5 164.5t38 204t-38 204t-105.5 164.5t-159.5 109.5t-199 40q-109 0 -200 -40t-158.5 -109.5t-105.5 -164.5t-38 -204zM532 1870h267l153 -297h-178z" />
<glyph unicode="&#xd3;" d="M78 727q0 158 58.5 294t158.5 235.5t236.5 156.5t289.5 57q156 0 291 -57t235.5 -156.5t159 -235.5t58.5 -294t-58.5 -294t-159 -235.5t-235.5 -156.5t-291 -57q-154 0 -290 57t-236 156.5t-158.5 235.5t-58.5 294zM319 727q0 -109 38 -204t105.5 -164.5t158.5 -109.5 t200 -40q106 0 198.5 40t160 109.5t105.5 164.5t38 204t-38 204t-105.5 164.5t-159.5 109.5t-199 40q-109 0 -200 -40t-158.5 -109.5t-105.5 -164.5t-38 -204zM690 1573l152 297h266l-240 -297h-178z" />
<glyph unicode="&#xd4;" d="M78 727q0 158 58.5 294t158.5 235.5t236.5 156.5t289.5 57q156 0 291 -57t235.5 -156.5t159 -235.5t58.5 -294t-58.5 -294t-159 -235.5t-235.5 -156.5t-291 -57q-154 0 -290 57t-236 156.5t-158.5 235.5t-58.5 294zM319 727q0 -109 38 -204t105.5 -164.5t158.5 -109.5 t200 -40q106 0 198.5 40t160 109.5t105.5 164.5t38 204t-38 204t-105.5 164.5t-159.5 109.5t-199 40q-109 0 -200 -40t-158.5 -109.5t-105.5 -164.5t-38 -204zM463 1706l358 186l357 -186l-76 -150l-281 150l-282 -150z" />
<glyph unicode="&#xd5;" d="M78 727q0 158 58.5 294t158.5 235.5t236.5 156.5t289.5 57q156 0 291 -57t235.5 -156.5t159 -235.5t58.5 -294t-58.5 -294t-159 -235.5t-235.5 -156.5t-291 -57q-154 0 -290 57t-236 156.5t-158.5 235.5t-58.5 294zM319 727q0 -109 38 -204t105.5 -164.5t158.5 -109.5 t200 -40q106 0 198.5 40t160 109.5t105.5 164.5t38 204t-38 204t-105.5 164.5t-159.5 109.5t-199 40q-109 0 -200 -40t-158.5 -109.5t-105.5 -164.5t-38 -204zM449 1591l8 47q8 49 30.5 89t53 67t67.5 41t74 14q43 0 80 -13t67.5 -30.5t58 -31t52.5 -13.5q41 0 61.5 20.5 t32.5 67.5h160l-6 -45q-8 -49 -29.5 -89t-52.5 -66.5t-66.5 -41t-74.5 -14.5q-45 0 -82 13.5t-69 31t-58.5 30.5t-50.5 13q-41 0 -62.5 -21.5t-32.5 -68.5h-161z" />
<glyph unicode="&#xd6;" d="M78 727q0 158 58.5 294t158.5 235.5t236.5 156.5t289.5 57q156 0 291 -57t235.5 -156.5t159 -235.5t58.5 -294t-58.5 -294t-159 -235.5t-235.5 -156.5t-291 -57q-154 0 -290 57t-236 156.5t-158.5 235.5t-58.5 294zM319 727q0 -109 38 -204t105.5 -164.5t158.5 -109.5 t200 -40q106 0 198.5 40t160 109.5t105.5 164.5t38 204t-38 204t-105.5 164.5t-159.5 109.5t-199 40q-109 0 -200 -40t-158.5 -109.5t-105.5 -164.5t-38 -204zM446 1724q0 57 42 98.5t98 41.5q59 0 99 -41t40 -99q0 -59 -40 -99t-99 -40q-55 0 -97.5 40t-42.5 99zM918 1724 q0 57 40.5 98.5t98.5 41.5q59 0 99 -41t40 -99q0 -59 -40 -99t-99 -40q-57 0 -98 40t-41 99z" />
<glyph unicode="&#xd7;" horiz-adv-x="1171" d="M182 268l277 275l-277 276l129 127l275 -276l276 276l127 -127l-276 -276l276 -275l-127 -127l-276 275l-275 -275z" />
<glyph unicode="&#xd8;" d="M78 727q0 158 58.5 294t158.5 235.5t236.5 156.5t289.5 57q123 0 231.5 -34.5t200.5 -100.5l148 158l139 -133l-145 -156q80 -98 125 -218t45 -259q0 -158 -58.5 -294t-159 -235.5t-235.5 -156.5t-291 -57q-123 0 -232.5 34.5t-201.5 100.5l-143 -154l-138 135l140 150 q-78 98 -123 218t-45 259zM319 727q0 -86 24 -162t65 -139l688 737q-59 39 -128 60.5t-147 21.5q-109 0 -200 -40t-158.5 -109.5t-105.5 -164.5t-38 -204zM545 289q120 -80 276 -80q106 0 198.5 40t160 109.5t105.5 164.5t38 204q0 86 -23.5 162t-66.5 139z" />
<glyph unicode="&#xd9;" horiz-adv-x="1456" d="M143 565v889h238v-895q0 -170 96 -260t252 -90t251 90t95 260v895h238v-889q0 -135 -43 -242.5t-121 -182t-184.5 -115.5t-235.5 -41t-236.5 41t-185.5 115.5t-121 182t-43 242.5zM436 1870h266l154 -297h-178z" />
<glyph unicode="&#xda;" horiz-adv-x="1456" d="M143 565v889h238v-895q0 -170 96 -260t252 -90t251 90t95 260v895h238v-889q0 -135 -43 -242.5t-121 -182t-184.5 -115.5t-235.5 -41t-236.5 41t-185.5 115.5t-121 182t-43 242.5zM598 1573l152 297h266l-240 -297h-178z" />
<glyph unicode="&#xdb;" horiz-adv-x="1456" d="M143 565v889h238v-895q0 -170 96 -260t252 -90t251 90t95 260v895h238v-889q0 -135 -43 -242.5t-121 -182t-184.5 -115.5t-235.5 -41t-236.5 41t-185.5 115.5t-121 182t-43 242.5zM369 1706l358 186l356 -186l-75 -150l-281 150l-283 -150z" />
<glyph unicode="&#xdc;" horiz-adv-x="1456" d="M143 565v889h238v-895q0 -170 96 -260t252 -90t251 90t95 260v895h238v-889q0 -135 -43 -242.5t-121 -182t-184.5 -115.5t-235.5 -41t-236.5 41t-185.5 115.5t-121 182t-43 242.5zM352 1724q0 57 42 98.5t98 41.5q59 0 99 -41t40 -99q0 -59 -40 -99t-99 -40 q-55 0 -97.5 40t-42.5 99zM823 1724q0 57 41 98.5t99 41.5q59 0 99 -41t40 -99q0 -59 -40 -99t-99 -40q-57 0 -98.5 40t-41.5 99z" />
<glyph unicode="&#xdd;" horiz-adv-x="1312" d="M2 1454h279l374 -600l375 600h281l-537 -842v-612h-237v612zM549 1573l151 297h267l-240 -297h-178z" />
<glyph unicode="&#xde;" horiz-adv-x="1138" d="M162 0v1454h237v-262h189q113 0 207 -35t161.5 -96.5t104.5 -146.5t37 -185q0 -102 -37 -187t-104.5 -146.5t-162 -95.5t-206.5 -34h-189v-266h-237zM399 487h187q131 0 203.5 67t72.5 175.5t-72.5 174t-203.5 65.5h-187v-482z" />
<glyph unicode="&#xdf;" horiz-adv-x="1095" d="M133 0v1143q0 147 83 229t230 82h127v-207h-69q-88 0 -117 -36.5t-29 -114.5v-72h699l-293 -479q135 -47 209 -162t74 -266q0 -106 -39 -196.5t-110 -157t-168 -103.5t-214 -37h-6v223h8q68 0 123 19.5t95 55.5t62.5 85t22.5 111q0 117 -77.5 197.5t-229.5 80.5h-70 l258 428h-344v-823h-225z" />
<glyph unicode="&#xe0;" horiz-adv-x="1251" d="M82 512q0 113 40 209t109.5 166.5t166 111.5t210.5 41q82 0 151.5 -24.5t123.5 -67.5v76h225v-1024h-225v74q-53 -43 -123 -66.5t-152 -23.5q-115 0 -211 41t-165.5 111.5t-109.5 166.5t-40 209zM313 512q0 -68 21.5 -125t61.5 -99t94 -65.5t120 -23.5q86 0 159 37.5 t114 101.5v348q-41 63 -114 101t-159 38q-66 0 -120 -23.5t-94 -65.5t-61.5 -99t-21.5 -125zM313 1454h273l172 -338h-174z" />
<glyph unicode="&#xe1;" horiz-adv-x="1251" d="M82 512q0 113 40 209t109.5 166.5t166 111.5t210.5 41q82 0 151.5 -24.5t123.5 -67.5v76h225v-1024h-225v74q-53 -43 -123 -66.5t-152 -23.5q-115 0 -211 41t-165.5 111.5t-109.5 166.5t-40 209zM313 512q0 -68 21.5 -125t61.5 -99t94 -65.5t120 -23.5q86 0 159 37.5 t114 101.5v348q-41 63 -114 101t-159 38q-66 0 -120 -23.5t-94 -65.5t-61.5 -99t-21.5 -125zM492 1116l174 338h272l-268 -338h-178z" />
<glyph unicode="&#xe2;" horiz-adv-x="1251" d="M82 512q0 113 40 209t109.5 166.5t166 111.5t210.5 41q82 0 151.5 -24.5t123.5 -67.5v76h225v-1024h-225v74q-53 -43 -123 -66.5t-152 -23.5q-115 0 -211 41t-165.5 111.5t-109.5 166.5t-40 209zM297 1255l354 215l355 -215l-82 -143l-273 166l-268 -166zM313 512 q0 -68 21.5 -125t61.5 -99t94 -65.5t120 -23.5q86 0 159 37.5t114 101.5v348q-41 63 -114 101t-159 38q-66 0 -120 -23.5t-94 -65.5t-61.5 -99t-21.5 -125z" />
<glyph unicode="&#xe3;" horiz-adv-x="1251" d="M82 512q0 113 40 209t109.5 166.5t166 111.5t210.5 41q82 0 151.5 -24.5t123.5 -67.5v76h225v-1024h-225v74q-53 -43 -123 -66.5t-152 -23.5q-115 0 -211 41t-165.5 111.5t-109.5 166.5t-40 209zM295 1151l8 45q16 100 82 154.5t139 54.5q43 0 80 -13.5t67.5 -29.5 t58.5 -29.5t52 -13.5q41 0 61.5 20.5t33.5 67.5h157l-6 -45q-16 -96 -79.5 -152.5t-141.5 -56.5q-45 0 -82 13.5t-68.5 29.5t-58.5 29.5t-51 13.5q-41 0 -62.5 -20.5t-31.5 -67.5h-158zM313 512q0 -68 21.5 -125t61.5 -99t94 -65.5t120 -23.5q86 0 159 37.5t114 101.5v348 q-41 63 -114 101t-159 38q-66 0 -120 -23.5t-94 -65.5t-61.5 -99t-21.5 -125z" />
<glyph unicode="&#xe4;" horiz-adv-x="1251" d="M82 512q0 113 40 209t109.5 166.5t166 111.5t210.5 41q82 0 151.5 -24.5t123.5 -67.5v76h225v-1024h-225v74q-53 -43 -123 -66.5t-152 -23.5q-115 0 -211 41t-165.5 111.5t-109.5 166.5t-40 209zM283 1288.5q0 57.5 41 98t98 40.5t98 -40.5t41 -98t-41 -97.5t-98 -40 t-98 40t-41 97.5zM313 512q0 -68 21.5 -125t61.5 -99t94 -65.5t120 -23.5q86 0 159 37.5t114 101.5v348q-41 63 -114 101t-159 38q-66 0 -120 -23.5t-94 -65.5t-61.5 -99t-21.5 -125zM756 1288.5q0 57.5 39 98t98 40.5q57 0 97 -40.5t40 -98t-40 -97.5t-97 -40q-59 0 -98 40 t-39 97.5z" />
<glyph unicode="&#xe5;" horiz-adv-x="1251" d="M82 512q0 113 40 209t109.5 166.5t166 111.5t210.5 41q82 0 151.5 -24.5t123.5 -67.5v76h225v-1024h-225v74q-53 -43 -123 -66.5t-152 -23.5q-115 0 -211 41t-165.5 111.5t-109.5 166.5t-40 209zM313 512q0 -68 21.5 -125t61.5 -99t94 -65.5t120 -23.5q86 0 159 37.5 t114 101.5v348q-41 63 -114 101t-159 38q-66 0 -120 -23.5t-94 -65.5t-61.5 -99t-21.5 -125zM391 1341q0 45 17.5 84t47 68t69.5 45t85 16t85 -16t70 -45t47 -68t17 -84t-17 -83.5t-47 -67.5t-70 -45.5t-85 -16.5q-47 0 -87 16.5t-68.5 45.5t-46 67.5t-17.5 83.5zM512 1341 q0 -41 28.5 -68.5t69.5 -27.5t69 27.5t28 68.5t-28 69t-69 28t-69.5 -28t-28.5 -69z" />
<glyph unicode="&#xe6;" horiz-adv-x="1859" d="M66 334q0 74 30.5 133t83.5 99t128 61.5t165 21.5q88 0 158.5 -19.5t126.5 -47.5v43q-4 61 -27.5 100t-60.5 62.5t-83 32.5t-95 9q-86 0 -153 -24.5t-116 -59.5l-86 189q68 43 164 74.5t209 31.5q57 0 113.5 -9t107.5 -30.5t92 -55.5t68 -81q72 82 173 129t224 47 q106 0 194.5 -36.5t152 -104.5t100.5 -166t43 -221v-61h-781q16 -111 97.5 -177.5t197.5 -66.5q92 0 159 36t108 81l151 -162q-66 -78 -174.5 -128t-243.5 -50q-127 0 -230.5 47t-174.5 133q-82 -88 -184.5 -134t-231.5 -46q-186 0 -295.5 93t-109.5 257zM287 330 q0 -39 17.5 -65.5t45 -44t63 -25t72.5 -7.5q96 0 167 36t106 93v89q-47 35 -110.5 54t-149.5 19t-148.5 -35.5t-62.5 -113.5zM1004 625h526q-20 104 -88 156.5t-170 52.5q-92 0 -166 -55.5t-102 -153.5z" />
<glyph unicode="&#xe7;" horiz-adv-x="1073" d="M82 512q0 113 40 209t110.5 166.5t167 111.5t210.5 41q123 0 221.5 -46t169.5 -124l-153 -157q-41 47 -99.5 77.5t-138.5 30.5q-66 0 -120 -23.5t-94 -64.5t-61.5 -97t-21.5 -124t21.5 -124t61.5 -97t94.5 -64.5t119.5 -23.5q80 0 138.5 30.5t99.5 77.5l153 -157 q-72 -78 -170 -124t-221 -46q-115 0 -211 41t-166.5 111.5t-110.5 166.5t-40 209zM377 -270l119 270h168l-82 -270h-205z" />
<glyph unicode="&#xe8;" horiz-adv-x="1175" d="M82 512q0 113 40 209t110.5 166.5t166 111.5t207.5 41q106 0 194.5 -36.5t152 -104.5t100.5 -166t43 -221v-61h-781q16 -111 97.5 -177.5t197.5 -66.5q92 0 159 36t108 81l151 -162q-66 -78 -174.5 -128t-243.5 -50q-115 0 -211 41t-166.5 111.5t-110.5 166.5t-40 209z M295 1454h272l172 -338h-174zM322 625h526q-20 104 -88 156.5t-170 52.5q-92 0 -166 -55.5t-102 -153.5z" />
<glyph unicode="&#xe9;" horiz-adv-x="1175" d="M82 512q0 113 40 209t110.5 166.5t166 111.5t207.5 41q106 0 194.5 -36.5t152 -104.5t100.5 -166t43 -221v-61h-781q16 -111 97.5 -177.5t197.5 -66.5q92 0 159 36t108 81l151 -162q-66 -78 -174.5 -128t-243.5 -50q-115 0 -211 41t-166.5 111.5t-110.5 166.5t-40 209z M322 625h526q-20 104 -88 156.5t-170 52.5q-92 0 -166 -55.5t-102 -153.5zM483 1116l174 338h273l-268 -338h-179z" />
<glyph unicode="&#xea;" horiz-adv-x="1175" d="M82 512q0 113 40 209t110.5 166.5t166 111.5t207.5 41q106 0 194.5 -36.5t152 -104.5t100.5 -166t43 -221v-61h-781q16 -111 97.5 -177.5t197.5 -66.5q92 0 159 36t108 81l151 -162q-66 -78 -174.5 -128t-243.5 -50q-115 0 -211 41t-166.5 111.5t-110.5 166.5t-40 209z M252 1255l354 215l355 -215l-82 -143l-273 166l-268 -166zM322 625h526q-20 104 -88 156.5t-170 52.5q-92 0 -166 -55.5t-102 -153.5z" />
<glyph unicode="&#xeb;" horiz-adv-x="1175" d="M82 512q0 113 40 209t110.5 166.5t166 111.5t207.5 41q106 0 194.5 -36.5t152 -104.5t100.5 -166t43 -221v-61h-781q16 -111 97.5 -177.5t197.5 -66.5q92 0 159 36t108 81l151 -162q-66 -78 -174.5 -128t-243.5 -50q-115 0 -211 41t-166.5 111.5t-110.5 166.5t-40 209z M229 1288.5q0 57.5 41 98t98.5 40.5t98.5 -40.5t41 -98t-41 -97.5t-98.5 -40t-98.5 40t-41 97.5zM322 625h526q-20 104 -88 156.5t-170 52.5q-92 0 -166 -55.5t-102 -153.5zM702 1288.5q0 57.5 39 98t99 40.5q57 0 97 -40.5t40 -98t-40 -97.5t-97 -40q-59 0 -98.5 40 t-39.5 97.5z" />
<glyph unicode="&#xec;" horiz-adv-x="512" d="M-35 1454h273l172 -338h-174zM143 0v1024h226v-1024h-226z" />
<glyph unicode="&#xed;" horiz-adv-x="512" d="M106 1116l175 338h272l-268 -338h-179zM143 0v1024h226v-1024h-226z" />
<glyph unicode="&#xee;" horiz-adv-x="512" d="M-96 1255l354 215l354 -215l-82 -143l-272 166l-268 -166zM143 0v1024h226v-1024h-226z" />
<glyph unicode="&#xef;" horiz-adv-x="512" d="M-119 1288.5q0 57.5 41 98t98.5 40.5t98.5 -40.5t41 -98t-41 -97.5t-98.5 -40t-98.5 40t-41 97.5zM143 0v1024h226v-1024h-226zM354 1288.5q0 57.5 39 98t99 40.5q57 0 97 -40.5t40 -98t-40 -97.5t-97 -40q-59 0 -98.5 40t-39.5 97.5z" />
<glyph unicode="&#xf0;" horiz-adv-x="1224" d="M82 512q0 113 41 210t111.5 168t164 110.5t199.5 39.5q14 0 32.5 -2t24.5 -4l-65 99h-277v159h170l-108 162h250l108 -162h240v-159h-133l204 -308q45 -66 72 -144.5t27 -168.5q0 -113 -40 -209t-111.5 -166.5t-169 -111.5t-210.5 -41q-115 0 -212 41t-167.5 111.5 t-110.5 166.5t-40 209zM313 512q0 -68 21.5 -125t61.5 -99t95.5 -65.5t121 -23.5t119.5 23.5t94 65.5t62.5 99t22.5 125t-22.5 125t-62.5 99t-94 65.5t-119.5 23.5t-121 -23.5t-95.5 -65.5t-61.5 -99t-21.5 -125z" />
<glyph unicode="&#xf1;" horiz-adv-x="1193" d="M143 0v1024h226v-96q53 59 129.5 85.5t156.5 26.5q94 0 172 -31.5t131.5 -89t83 -139.5t29.5 -180v-600h-225v596q0 41 -15.5 82t-45 73.5t-72.5 53t-101 20.5q-86 0 -149.5 -44t-93.5 -136v-645h-226zM238 1151l8 45q16 100 81.5 154.5t139.5 54.5q43 0 80 -13.5 t67.5 -29.5t58 -29.5t52.5 -13.5q41 0 61.5 20.5t32.5 67.5h158l-6 -45q-16 -96 -80 -152.5t-141 -56.5q-45 0 -82 13.5t-69 29.5t-58.5 29.5t-51.5 13.5q-41 0 -62 -20.5t-32 -67.5h-157z" />
<glyph unicode="&#xf2;" horiz-adv-x="1224" d="M82 512q0 113 40 209t110.5 166.5t168 111.5t211.5 41q113 0 210.5 -41t169 -111.5t111.5 -166.5t40 -209t-40 -209t-111.5 -166.5t-169 -111.5t-210.5 -41q-115 0 -212 41t-167.5 111.5t-110.5 166.5t-40 209zM313 512q0 -68 21.5 -125t61.5 -99t95.5 -65.5t121 -23.5 t119.5 23.5t94 65.5t62.5 99t22.5 125t-22.5 125t-62.5 99t-94 65.5t-119.5 23.5t-121 -23.5t-95.5 -65.5t-61.5 -99t-21.5 -125zM317 1454h273l172 -338h-174z" />
<glyph unicode="&#xf3;" horiz-adv-x="1224" d="M82 512q0 113 40 209t110.5 166.5t168 111.5t211.5 41q113 0 210.5 -41t169 -111.5t111.5 -166.5t40 -209t-40 -209t-111.5 -166.5t-169 -111.5t-210.5 -41q-115 0 -212 41t-167.5 111.5t-110.5 166.5t-40 209zM313 512q0 -68 21.5 -125t61.5 -99t95.5 -65.5t121 -23.5 t119.5 23.5t94 65.5t62.5 99t22.5 125t-22.5 125t-62.5 99t-94 65.5t-119.5 23.5t-121 -23.5t-95.5 -65.5t-61.5 -99t-21.5 -125zM487 1116l175 338h272l-268 -338h-179z" />
<glyph unicode="&#xf4;" horiz-adv-x="1224" d="M82 512q0 113 40 209t110.5 166.5t168 111.5t211.5 41q113 0 210.5 -41t169 -111.5t111.5 -166.5t40 -209t-40 -209t-111.5 -166.5t-169 -111.5t-210.5 -41q-115 0 -212 41t-167.5 111.5t-110.5 166.5t-40 209zM258 1255l354 215l355 -215l-82 -143l-273 166l-268 -166z M313 512q0 -68 21.5 -125t61.5 -99t95.5 -65.5t121 -23.5t119.5 23.5t94 65.5t62.5 99t22.5 125t-22.5 125t-62.5 99t-94 65.5t-119.5 23.5t-121 -23.5t-95.5 -65.5t-61.5 -99t-21.5 -125z" />
<glyph unicode="&#xf5;" horiz-adv-x="1224" d="M82 512q0 113 40 209t110.5 166.5t168 111.5t211.5 41q113 0 210.5 -41t169 -111.5t111.5 -166.5t40 -209t-40 -209t-111.5 -166.5t-169 -111.5t-210.5 -41q-115 0 -212 41t-167.5 111.5t-110.5 166.5t-40 209zM244 1151l8 45q16 100 81.5 154.5t139.5 54.5 q43 0 80 -13.5t67.5 -29.5t58.5 -29.5t52 -13.5q41 0 61.5 20.5t32.5 67.5h158l-6 -45q-16 -96 -79.5 -152.5t-141.5 -56.5q-45 0 -82 13.5t-69 29.5t-58.5 29.5t-50.5 13.5q-41 0 -62.5 -20.5t-32.5 -67.5h-157zM313 512q0 -68 21.5 -125t61.5 -99t95.5 -65.5t121 -23.5 t119.5 23.5t94 65.5t62.5 99t22.5 125t-22.5 125t-62.5 99t-94 65.5t-119.5 23.5t-121 -23.5t-95.5 -65.5t-61.5 -99t-21.5 -125z" />
<glyph unicode="&#xf6;" horiz-adv-x="1224" d="M82 512q0 113 40 209t110.5 166.5t168 111.5t211.5 41q113 0 210.5 -41t169 -111.5t111.5 -166.5t40 -209t-40 -209t-111.5 -166.5t-169 -111.5t-210.5 -41q-115 0 -212 41t-167.5 111.5t-110.5 166.5t-40 209zM238 1288.5q0 57.5 40.5 98t98 40.5t98.5 -40.5t41 -98 t-41 -97.5t-98.5 -40t-98 40t-40.5 97.5zM313 512q0 -68 21.5 -125t61.5 -99t95.5 -65.5t121 -23.5t119.5 23.5t94 65.5t62.5 99t22.5 125t-22.5 125t-62.5 99t-94 65.5t-119.5 23.5t-121 -23.5t-95.5 -65.5t-61.5 -99t-21.5 -125zM711 1288.5q0 57.5 38.5 98t98.5 40.5 q57 0 97 -40.5t40 -98t-40 -97.5t-97 -40q-59 0 -98 40t-39 97.5z" />
<glyph unicode="&#xf7;" horiz-adv-x="1259" d="M182 477v180h895v-180h-895zM483 240q0 61 43 103t103 42q61 0 104 -42t43 -103q0 -59 -43 -102.5t-104 -43.5q-59 0 -102.5 43t-43.5 103zM483 895q0 59 43 102t103 43q61 0 104 -43t43 -102q0 -61 -43 -104t-104 -43q-59 0 -102.5 43t-43.5 104z" />
<glyph unicode="&#xf8;" horiz-adv-x="1228" d="M82 80l106 108q-49 66 -76.5 148t-27.5 176q0 113 40 209t110.5 166.5t168 111.5t211.5 41q92 0 173 -26.5t147 -75.5l108 111l105 -105l-109 -108q51 -66 79 -149t28 -175q0 -113 -40 -209t-111.5 -166.5t-169 -111.5t-210.5 -41q-92 0 -173 26.5t-146 73.5l-109 -111z M315 512q0 -90 37 -160l424 426q-35 23 -76 35t-86 12q-66 0 -121 -23.5t-95 -65.5t-61.5 -99t-21.5 -125zM453 244q71 -45 161 -45q66 0 120 23.5t94 65.5t62.5 99t22.5 125q0 84 -39 158z" />
<glyph unicode="&#xf9;" horiz-adv-x="1187" d="M117 424v600h225v-596q0 -41 15.5 -82t45 -73.5t73.5 -53t99 -20.5q86 0 148.5 43t95.5 131v651h225v-1024h-225v94q-53 -59 -130 -84.5t-157 -25.5q-96 0 -172.5 31.5t-130 89t-83 139.5t-29.5 180zM262 1454h273l172 -338h-175z" />
<glyph unicode="&#xfa;" horiz-adv-x="1187" d="M117 424v600h225v-596q0 -41 15.5 -82t45 -73.5t73.5 -53t99 -20.5q86 0 148.5 43t95.5 131v651h225v-1024h-225v94q-53 -59 -130 -84.5t-157 -25.5q-96 0 -172.5 31.5t-130 89t-83 139.5t-29.5 180zM446 1116l175 338h272l-268 -338h-179z" />
<glyph unicode="&#xfb;" horiz-adv-x="1187" d="M117 424v600h225v-596q0 -41 15.5 -82t45 -73.5t73.5 -53t99 -20.5q86 0 148.5 43t95.5 131v651h225v-1024h-225v94q-53 -59 -130 -84.5t-157 -25.5q-96 0 -172.5 31.5t-130 89t-83 139.5t-29.5 180zM223 1255l355 215l354 -215l-82 -143l-272 166l-269 -166z" />
<glyph unicode="&#xfc;" horiz-adv-x="1187" d="M117 424v600h225v-596q0 -41 15.5 -82t45 -73.5t73.5 -53t99 -20.5q86 0 148.5 43t95.5 131v651h225v-1024h-225v94q-53 -59 -130 -84.5t-157 -25.5q-96 0 -172.5 31.5t-130 89t-83 139.5t-29.5 180zM201 1288.5q0 57.5 41 98t98 40.5t98 -40.5t41 -98t-41 -97.5t-98 -40 t-98 40t-41 97.5zM674 1288.5q0 57.5 39 98t98 40.5q57 0 97 -40.5t40 -98t-40 -97.5t-97 -40q-59 0 -98 40t-39 97.5z" />
<glyph unicode="&#xfd;" horiz-adv-x="1042" d="M0 1024h242l278 -707l281 707h241l-585 -1401h-238l184 430zM412 1116l174 338h272l-268 -338h-178z" />
<glyph unicode="&#xfe;" horiz-adv-x="1251" d="M143 -377v1831h226v-506q53 43 122.5 67.5t151.5 24.5q113 0 210 -41t167 -111.5t109.5 -166.5t39.5 -209t-39.5 -209t-109.5 -166.5t-167 -111.5t-210 -41q-166 0 -274 90v-451h-226zM369 338q41 -63 113.5 -101t158.5 -38q66 0 120 23.5t94 65.5t61.5 99t21.5 125 t-21.5 125t-61.5 99t-94 65.5t-120 23.5q-86 0 -158.5 -37.5t-113.5 -101.5v-348z" />
<glyph unicode="&#xff;" horiz-adv-x="1042" d="M0 1024h242l278 -707l281 707h241l-585 -1401h-238l184 430zM143 1288.5q0 57.5 41 98t98.5 40.5t98.5 -40.5t41 -98t-41 -97.5t-98.5 -40t-98.5 40t-41 97.5zM616 1288.5q0 57.5 39 98t99 40.5q57 0 97 -40.5t40 -98t-40 -97.5t-97 -40q-59 0 -98.5 40t-39.5 97.5z" />
<glyph unicode="&#x152;" horiz-adv-x="2142" d="M78 727q0 158 58.5 294t158.5 235.5t236.5 156.5t289.5 57q100 0 191.5 -24.5t173.5 -69.5v78h864v-233h-639v-37q53 -72 90 -155t53 -177h420v-229h-418q-12 -100 -50 -189.5t-95 -165.5v-35h641v-233h-866v76q-82 -45 -173.5 -68.5t-191.5 -23.5q-154 0 -290 57 t-236 156.5t-158.5 235.5t-58.5 294zM319 727q0 -109 38 -204t105.5 -164.5t158.5 -109.5t200 -40q106 0 198.5 40t160 109.5t105.5 164.5t38 204t-38 204t-105.5 164.5t-159.5 109.5t-199 40q-109 0 -200 -40t-158.5 -109.5t-105.5 -164.5t-38 -204z" />
<glyph unicode="&#x153;" horiz-adv-x="2007" d="M82 512q0 113 40 209t110.5 166.5t168 111.5t211.5 41q129 0 236.5 -51t179.5 -141q72 90 176.5 141t233.5 51q106 0 194 -36.5t151.5 -104.5t100.5 -166t43 -221v-61h-782q16 -111 98 -177.5t199 -66.5q92 0 158.5 36t107.5 81l152 -162q-66 -78 -174.5 -128t-243.5 -50 q-129 0 -235.5 51t-178.5 141q-72 -90 -179.5 -141t-236.5 -51q-115 0 -212 41t-167.5 111.5t-110.5 166.5t-40 209zM313 512q0 -68 21.5 -125t61.5 -99t95.5 -65.5t121 -23.5t120.5 23.5t95 65.5t62.5 99t22.5 125t-22.5 125t-62.5 99t-95 65.5t-120.5 23.5t-121 -23.5 t-95.5 -65.5t-61.5 -99t-21.5 -125zM1153 625h526q-20 104 -87.5 156.5t-170.5 52.5q-92 0 -166.5 -55.5t-101.5 -153.5z" />
<glyph unicode="&#x178;" horiz-adv-x="1312" d="M2 1454h279l374 -600l375 600h281l-537 -842v-612h-237v612zM281 1724q0 57 42 98.5t97 41.5q59 0 99 -41t40 -99q0 -59 -40 -99t-99 -40q-55 0 -97 40t-42 99zM752 1724q0 57 41 98.5t98 41.5q59 0 99 -41t40 -99q0 -59 -40 -99t-99 -40q-57 0 -98 40t-41 99z" />
<glyph unicode="&#x2c6;" horiz-adv-x="890" d="M88 1255l354 215l355 -215l-82 -143l-273 166l-268 -166z" />
<glyph unicode="&#x2dc;" horiz-adv-x="970" d="M115 1151l8 45q16 100 81.5 154.5t139.5 54.5q43 0 80 -13.5t67.5 -29.5t58.5 -29.5t52 -13.5q41 0 61.5 20.5t32.5 67.5h158l-6 -45q-16 -96 -79.5 -152.5t-141.5 -56.5q-45 0 -82 13.5t-69 29.5t-58.5 29.5t-50.5 13.5q-41 0 -62.5 -20.5t-32.5 -67.5h-157z" />
<glyph unicode="&#x2000;" horiz-adv-x="981" />
<glyph unicode="&#x2001;" horiz-adv-x="1962" />
<glyph unicode="&#x2002;" horiz-adv-x="981" />
<glyph unicode="&#x2003;" horiz-adv-x="1962" />
<glyph unicode="&#x2004;" horiz-adv-x="654" />
<glyph unicode="&#x2005;" horiz-adv-x="490" />
<glyph unicode="&#x2006;" horiz-adv-x="327" />
<glyph unicode="&#x2007;" horiz-adv-x="327" />
<glyph unicode="&#x2008;" horiz-adv-x="245" />
<glyph unicode="&#x2009;" horiz-adv-x="392" />
<glyph unicode="&#x200a;" horiz-adv-x="109" />
<glyph unicode="&#x2010;" horiz-adv-x="706" d="M90 455v223h528v-223h-528z" />
<glyph unicode="&#x2011;" horiz-adv-x="706" d="M90 455v223h528v-223h-528z" />
<glyph unicode="&#x2012;" horiz-adv-x="706" d="M90 455v223h528v-223h-528z" />
<glyph unicode="&#x2013;" horiz-adv-x="1107" d="M90 459v215h928v-215h-928z" />
<glyph unicode="&#x2014;" horiz-adv-x="1722" d="M90 459v215h1542v-215h-1542z" />
<glyph unicode="&#x2018;" horiz-adv-x="555" d="M133 866v289l121 299h139l-90 -299h119v-289h-289z" />
<glyph unicode="&#x2019;" horiz-adv-x="555" d="M133 1165v289h289v-289l-121 -299h-139l90 299h-119z" />
<glyph unicode="&#x201a;" horiz-adv-x="555" d="M133 0v289h289v-289l-121 -299h-139l90 299h-119z" />
<glyph unicode="&#x201c;" horiz-adv-x="976" d="M133 866v289l121 299h139l-90 -299h119v-289h-289zM555 866v289l121 299h139l-90 -299h119v-289h-289z" />
<glyph unicode="&#x201d;" horiz-adv-x="976" d="M133 1165v289h289v-289l-121 -299h-139l90 299h-119zM555 1165v289h289v-289l-121 -299h-139l90 299h-119z" />
<glyph unicode="&#x201e;" horiz-adv-x="976" d="M133 0v289h289v-289l-121 -299h-139l90 299h-119zM555 0v289h289v-289l-121 -299h-139l90 299h-119z" />
<glyph unicode="&#x2022;" horiz-adv-x="819" d="M131 618.5q0 57.5 21.5 108.5t59.5 89t89 59.5t108.5 21.5t108.5 -21.5t89 -59.5t59.5 -89t21.5 -108.5t-21.5 -108.5t-59.5 -89t-89 -59.5t-108.5 -21.5t-108.5 21.5t-89 59.5t-59.5 89t-21.5 108.5z" />
<glyph unicode="&#x2026;" horiz-adv-x="1468" d="M70 162q0 37 14 68.5t37.5 55t56.5 38t70 14.5t68.5 -14.5t56 -38t38 -55t13.5 -68.5q0 -74 -51 -126t-125 -52t-126 52t-52 126zM557 162q0 37 14.5 68.5t38 55t56 38t69.5 14.5t69 -14.5t56.5 -38t37.5 -55t13 -68.5q0 -74 -51 -126t-124.5 -52t-126 52t-52.5 126z M1047 162q0 37 14 68.5t37.5 55t56.5 38t70 14.5t68.5 -14.5t56 -38t38 -55t13.5 -68.5q0 -74 -51.5 -126t-125 -52t-125.5 52t-52 126z" />
<glyph unicode="&#x202f;" horiz-adv-x="392" />
<glyph unicode="&#x2039;" horiz-adv-x="626" d="M63 512l320 467l154 -105l-248 -362l248 -362l-154 -105z" />
<glyph unicode="&#x203a;" horiz-adv-x="626" d="M96 150l248 362l-248 362l154 105l319 -467l-319 -467z" />
<glyph unicode="&#x205f;" horiz-adv-x="490" />
<glyph unicode="&#x20ac;" horiz-adv-x="1456" d="M29 516l53 127h149q-4 20 -4 41v43v43q0 20 4 43h-202l53 127h174q33 117 100.5 214t159.5 168t207 109.5t242 38.5q131 0 237.5 -34.5t198.5 -100.5l-80 -205q-63 55 -153.5 93.5t-202.5 38.5q-162 0 -289 -87.5t-184 -234.5h743l-53 -127h-723q-6 -43 -6 -86v-43 q0 -20 4 -41h651l-53 -127h-566q57 -150 184.5 -236.5t291.5 -86.5q92 0 163.5 24.5t137.5 65.5v-236q-143 -63 -301 -63q-129 0 -243 38.5t-207 109.5t-159.5 169t-99.5 215h-227z" />
<glyph unicode="&#x2122;" horiz-adv-x="1671" d="M86 1303v151h549v-151h-197v-619h-157v619h-195zM758 684v795l383 -389l383 389v-795h-156v430l-227 -229l-228 229v-430h-155z" />
<glyph unicode="&#x25fc;" horiz-adv-x="1024" d="M0 0v1024h1024v-1024h-1024z" />
<glyph unicode="&#xfb01;" horiz-adv-x="1247" d="M41 823v201h162q-33 35 -51.5 79t-18.5 97q0 55 20.5 101.5t58.5 80t91 53t119 19.5h270v-201h-209q-61 0 -98 -28.5t-37 -81.5t34 -84t75 -35h235v-201h-266v-823h-225v823h-160zM842 1321q0 61 44 105t105.5 44t105.5 -44t44 -105q0 -55 -37 -98h-225q-37 43 -37 98z M879 0v1024h225v-1024h-225z" />
<glyph unicode="&#xfb02;" horiz-adv-x="1247" d="M41 823v201h162q-33 35 -51.5 79t-18.5 97q0 55 20.5 101.5t58.5 80t91 53t119 19.5h270v-201h-209q-61 0 -98 -28.5t-37 -81.5t34 -84t75 -35h235v-201h-266v-823h-225v823h-160zM879 0v1454h225v-1454h-225z" />
</font>
</defs>
</svg>
