<?xml version="1.0" standalone="no"?>
<!DOCTYPE svg PUBLIC "-//W3C//DTD SVG 1.1//EN" "http://www.w3.org/Graphics/SVG/1.1/DTD/svg11.dtd" >
<svg xmlns="http://www.w3.org/2000/svg" xmlns:xlink="http://www.w3.org/1999/xlink" version="1.1">
<metadata></metadata>
<defs>
<font id="smmmedium" horiz-adv-x="1245" >
<font-face units-per-em="2048" ascent="1638" descent="-410" />
<missing-glyph horiz-adv-x="500" />
<glyph unicode="&#xfb01;" d="M72 850v207h149v125q0 123 60 188q57 63 192 64h223v-207h-161q-66 0 -80 -21q-18 -23 -19 -80v-69h666v-1057h-215v850h-451v-850h-215v850h-149zM856 1167v267h266v-267h-266z" />
<glyph unicode="&#xfb02;" d="M72 850v207h149v125q0 123 60 188q57 63 192 64h629v-1434h-215v1227h-352q-66 0 -80 -21q-18 -23 -19 -80v-69h260v-207h-260v-850h-215v850h-149z" />
<glyph horiz-adv-x="0" />
<glyph unicode="&#xd;" horiz-adv-x="0" />
<glyph unicode=" " />
<glyph unicode="!" d="M485 0v274h275v-274h-275zM516 471v963h215v-963h-215z" />
<glyph unicode="&#x22;" d="M322 975v459h108v-459h-108zM817 975v459h109v-459h-109z" />
<glyph unicode="#" d="M96 442v93h168l90 364h-166v92h189l110 443h97l-111 -443h432l111 443h96l-111 -443h148v-92h-170l-90 -364h168v-93h-191l-108 -442h-96l108 442h-432l-109 -442h-96l109 442h-146zM360 535h433l90 364h-432z" />
<glyph unicode="$" d="M158 444h215q10 -121 73 -188q63 -70 174 -70t168.5 51.5t57.5 135.5q0 63 -37 118.5t-139 96.5l-195 76q-133 51 -215 149q-80 96 -80 248q0 90 31 162q27 66 82 118q55 51 125 78q68 27 157 33v186h89v-186q166 -14 264 -123q98 -106 110 -278h-215q-12 88 -61 143 q-53 53 -141 53q-115 0 -168 -51q-57 -51 -58 -135q0 -86 49 -125q43 -41 115 -70l211 -82q164 -63 227 -166q63 -100 64 -245q0 -164 -98 -273q-100 -111 -299 -118v-187h-89v187q-96 6 -174 43q-78 41 -129 100q-55 66 -82 143q-29 80 -32 176z" />
<glyph unicode="%" d="M111 1161q0 55 22 111q23 51 60 90q43 41 90 59q51 23 108 23q55 0 111 -23q47 -18 90 -59q41 -43 59 -90q23 -55 23 -111q0 -57 -23 -108q-18 -47 -59 -90q-39 -37 -90 -60q-55 -23 -111 -22q-57 0 -108.5 22.5t-89.5 59.5q-37 37 -60 90q-22 51 -22 108zM145 307 l889 891l66 -65l-889 -891zM270 1161q0 -49 35 -88q35 -37 86 -37q55 0 88 37q35 39 35 88t-35 90q-33 37 -88 37q-51 0 -86 -37q-35 -41 -35 -90zM571 270q0 55 23 111q20 53 59 90q43 41 90 59q51 23 109 23q55 0 111 -23q47 -18 90 -59q41 -43 59 -90q23 -55 23 -111 q0 -57 -23 -108q-18 -47 -59 -90q-37 -39 -90 -60q-55 -23 -111 -22q-57 0 -109 22q-51 20 -90 60q-39 37 -59 90q-23 51 -23 108zM731 270q0 -49 35 -88q33 -37 86 -37t88 37q35 39 35 88t-35 90q-33 37 -88 37q-53 0 -86 -37q-35 -41 -35 -90z" />
<glyph unicode="&#x26;" d="M86 418q0 74 25 145q20 66 65 123q43 55 103 96q61 43 127 60q16 6 45 10l-215 379v203h729v-203h-486l385 -678l111 201l180 -103l-172 -307l141 -248l-182 -106l-86 149q-45 -68 -131 -112q-90 -47 -201 -47q-96 0 -172 34q-82 35 -139 92.5t-92 139.5t-35 172z M301 418q0 -49 18 -90q14 -41 48 -74q27 -29 69 -49q41 -18 88 -19q84 0 133 43q45 39 84 113l-174 305q-4 0 -10 2t-10 2h-23q-49 0 -88 -18q-43 -20 -69 -49q-33 -35 -48 -74q-18 -43 -18 -92z" />
<glyph unicode="'" d="M567 975v459h109v-459h-109z" />
<glyph unicode="(" d="M512 23v1200q0 45 10 90q8 39 33 65q23 25 68 41q41 14 108 15h242v-86h-242q-82 0 -106.5 -31t-24.5 -94v-1200q0 -63 24.5 -94t106.5 -31h242v-86h-242q-68 0 -108 14q-45 16 -68 41q-25 27 -33 65q-10 46 -10 91z" />
<glyph unicode=")" d="M272 -102h242q82 0 106.5 30.5t24.5 94.5v1200q0 63 -24.5 94t-106.5 31h-242v86h242q68 0 109 -15q45 -16 67 -41q27 -31 35 -65.5t8 -89.5v-1200q0 -55 -8 -90t-35 -66q-23 -25 -67 -41q-41 -14 -109 -14h-242v86z" />
<glyph unicode="*" d="M233 1116l27 88l315 -102v332h93v-332l315 102l27 -88l-316 -102l197 -269l-76 -51l-192 269l-195 -269l-76 51l197 269z" />
<glyph unicode="+" d="M217 528v93h361v358h92v-358h358v-93h-358v-360h-92v360h-361z" />
<glyph unicode="," d="M256 -188l418 415l151 -151l-417 -416z" />
<glyph unicode="-" d="M326 528v93h594v-93h-594z" />
<glyph unicode="." d="M485 0v274h275v-274h-275z" />
<glyph unicode="/" d="M102 43l967 1401l76 -53l-967 -1401z" />
<glyph unicode="0" d="M182 420v594q0 90 35 172q33 78 94.5 139t139.5 94q82 35 172 35t172 -35q78 -33 139 -94t94 -139q35 -82 35 -172v-594q0 -90 -35 -172q-33 -78 -94.5 -139.5t-138.5 -94.5q-82 -35 -172.5 -34.5t-171.5 34.5q-78 33 -139.5 94.5t-94.5 139.5q-35 82 -35 172zM397 420 q0 -45 17 -90q14 -41 47 -74q27 -31 71 -51q41 -18 90.5 -18.5t92.5 18.5q43 20 71 51q31 35 45 74q16 45 17 90v459l-451 -453v-6zM397 557l451 453v4q0 45 -17 90q-12 37 -45 76q-31 31 -71 49q-43 18 -92.5 18t-90.5 -18q-45 -18 -71 -49q-33 -37 -47 -76 q-16 -45 -17 -90v-457z" />
<glyph unicode="1" d="M176 0v207h373v936l-205 -205l-145 145l350 351h215v-1227h373v-207h-961z" />
<glyph unicode="2" d="M186 0v207l529 555q27 27 63 67q27 35 41.5 62t24.5 59q8 25 8 64q0 45 -16 90q-12 37 -45 76q-31 31 -72 49q-43 18 -92 18t-90 -18q-45 -18 -72 -49q-33 -37 -47 -76q-16 -45 -17 -90q0 -104 74 -172l-147 -152q-66 59 -103 144q-39 80 -39 180q0 90 35 172 q33 78 94.5 139t139.5 94q82 35 172 35t172 -35q78 -33 139 -94t94 -139q35 -82 35 -172q0 -100 -43 -191q-49 -94 -147 -198l-398 -418h588v-207h-881z" />
<glyph unicode="3" d="M164 420h215q0 -45 16 -90q14 -41 47 -74q27 -31 72 -51q41 -18 90 -18.5t92 18.5q43 20 72 51q31 35 45 74q16 45 16 90q0 47 -14 88q-14 35 -45 74q-25 31 -68 53q-37 16 -88 20h-10v199h8q39 2 74 18q33 14 57 43q23 27 37 62q12 35 13 74q0 82 -51.5 139t-137.5 57 q-84 0 -135 -57t-51 -139h-215q0 86 33 157q31 74 86 129q51 51 127 86q72 31 155.5 31t157.5 -31q74 -35 129 -86q51 -55 86 -129q31 -74 31 -157q0 -86 -35 -162q-33 -74 -94 -129q74 -55 120 -148q45 -88 45 -192q0 -90 -34 -172q-33 -78 -94.5 -139.5t-139.5 -94.5 q-82 -35 -172 -34.5t-172 34.5q-78 33 -139.5 94.5t-93.5 139.5q-35 82 -35 172z" />
<glyph unicode="4" d="M96 354v207l645 883l168 -123l-555 -760h379v297h215v-297h150v-207h-150v-354h-215v354h-637z" />
<glyph unicode="5" d="M176 420h215q0 -45 17 -90q14 -41 47 -74q27 -31 71 -51q41 -18 90.5 -18.5t92.5 18.5q43 20 71 51q31 35 45 74q16 45 17 90v63q0 45 -17 90q-12 37 -45 76q-31 31 -71 49q-43 18 -93 19q-66 0 -112 -33q-53 -35 -80 -82l-229 168l145 664h627v-207h-455l-80 -361 q37 25 86 41q55 16 109 17q86 0 166 -35q76 -33 137 -94q57 -57 92 -139.5t35 -172.5v-63q0 -90 -35 -172q-33 -78 -94.5 -139.5t-139.5 -94.5q-82 -35 -172 -34.5t-172 34.5q-78 33 -139 94.5t-94 139.5q-35 82 -35 172z" />
<glyph unicode="6" d="M156 420v63q0 74 24 142q20 63 64 123l510 696l168 -123l-293 -399q78 -6 137 -33q119 -49 197 -158q73 -111 73 -248v-63q0 -90 -35 -172q-33 -78 -94 -139.5t-139 -94.5q-82 -35 -172 -34.5t-172 34.5q-78 33 -139.5 94.5t-94.5 139.5q-35 82 -34 172zM371 420 q0 -45 16 -90q14 -41 47 -74q27 -31 72 -51q39 -18 90 -19q49 0 92 19q43 20 72 51q31 35 45 74q16 45 16 90v63q0 45 -16 90q-12 37 -45 76q-31 31 -72 49q-43 18 -92 19q-51 0 -90 -19q-45 -18 -72 -49q-33 -37 -47 -76q-16 -45 -16 -90v-63z" />
<glyph unicode="7" d="M188 1008v426h869v-207l-447 -1237l-196 69l422 1168h-433v-219h-215z" />
<glyph unicode="8" d="M182 420q0 104 45 192q43 90 119 148q-59 51 -92 129q-33 72 -33 162q0 86 33 157q31 74 86 129q51 51 127 86q72 31 156 31t157 -31q74 -35 129 -86q53 -55 86 -129q31 -74 31 -157q0 -90 -33 -162q-33 -74 -94 -129q74 -55 121 -148q43 -90 43 -192q0 -90 -35 -172 q-33 -78 -94.5 -139.5t-138.5 -94.5q-82 -35 -172.5 -34.5t-171.5 34.5q-78 33 -139.5 94.5t-94.5 139.5q-35 82 -35 172zM397 420q0 -45 17 -88q14 -41 47 -74q29 -31 71 -51q41 -18 90.5 -18.5t90.5 18.5q43 20 71 51q33 33 47 74q16 43 16.5 88t-16.5 90q-14 39 -47 74 q-31 31 -71 49q-39 18 -90 18q-49 0 -90 -18.5t-72 -48.5q-33 -35 -47 -74q-17 -45 -17 -90zM436 1051q0 -80 51.5 -137.5t135.5 -57.5q86 0 137 57.5t51 137.5q0 82 -51 139t-137 57q-84 0 -135.5 -57t-51.5 -139z" />
<glyph unicode="9" d="M209 950v64q0 90 35 172q33 78 94 139t139 94q82 35 172 35t172 -35q78 -33 139.5 -94t94.5 -139q35 -82 35 -172v-64q0 -70 -23 -141q-23 -66 -66 -123l-509 -696l-168 123l292 399q-78 6 -137 33q-121 49 -194 160q-76 106 -76 245zM424 950q0 -45 16 -90 q14 -41 47 -74q27 -31 72 -51q39 -18 90 -18q49 0 92 18q43 20 72 51q31 35 45 74q16 45 16 90v64q0 45 -16 90q-12 37 -45 76q-31 31 -72 49q-43 18 -92 18q-51 0 -90 -18q-45 -18 -72 -49q-33 -37 -47 -76q-16 -45 -16 -90v-64z" />
<glyph unicode=":" d="M485 0v274h275v-274h-275zM485 657v275h275v-275h-275z" />
<glyph unicode=";" d="M190 -188l418 415l152 -151l-418 -416zM485 657v275h275v-275h-275z" />
<glyph unicode="&#x3c;" d="M301 532l553 553l66 -63l-490 -490l490 -489l-66 -63z" />
<glyph unicode="=" d="M217 319v93h811v-93h-811zM217 717v92h811v-92h-811z" />
<glyph unicode="&#x3e;" d="M326 43l489 489l-489 490l65 63l553 -553l-553 -552z" />
<glyph unicode="?" d="M164 1022q0 92 35 174q31 74 94 137q53 53 139 90q80 31 172 31q94 0 172 -33q86 -37 139 -90q59 -61 95 -137q35 -82 34 -172q0 -78 -24 -145q-29 -72 -70 -125q-45 -55 -106.5 -94.5t-132.5 -55.5v-131h-215v326h116q49 4 86 20q39 14 68 47t47 72q16 43 16 86 q0 45 -16 88q-18 41 -49 71.5t-72 49.5q-43 16 -88 16t-88 -16q-41 -18 -71.5 -49t-47.5 -72q-18 -41 -18 -88h-215zM467 0v274h274v-274h-274z" />
<glyph unicode="@" d="M82 143v781q0 117 35 217q37 98 106 168q68 68 170 108q100 37 230 37q127 0 229 -37q102 -39 170 -108q70 -70 106 -168q35 -100 35 -217v-799q0 -63 -43 -105q-43 -41 -119 -40q-59 0 -96 30q-37 25 -53 76q-39 -57 -102 -82q-66 -25 -134 -24q-137 0 -223 79 q-88 80 -88 217v84q0 137 88 218q86 80 223 79h99v127q0 47 -29 72q-29 23 -70 23q-39 0 -67 -23q-29 -25 -29 -72v-55h-215v62q0 137 88 217q88 78 225 77q135 0 226 -77q86 -80 86 -217v-650q0 -76 71 -75q35 0 56 20q18 20 18 55v783q0 94 -28 180q-31 84 -89 141 q-53 53 -143 90q-80 33 -192.5 33t-192.5 -33q-86 -35 -141 -90q-61 -61 -88 -141q-31 -84 -31 -180v-781q0 -96 31 -180q27 -80 88 -141q55 -55 141 -90q80 -33 193 -33v-86q-129 0 -230 37q-102 39 -170 108q-70 70 -106 168q-35 100 -35 217zM520 281q0 -47 29 -70 q29 -25 67 -25q43 0 70 25q29 23 29 68v170h-99q-39 0 -67 -23q-29 -25 -29 -72v-73z" />
<glyph unicode="A" d="M8 0l502 1434h225l502 -1434h-225l-121 346h-537l-121 -346h-225zM424 549h397l-198 569z" />
<glyph unicode="B" d="M133 0v1434h553q215 0 328 -111q112 -112 112 -296q0 -93 -34 -169q-37 -76 -107 -125q92 -55 135 -139q41 -86 41 -180q0 -193 -110 -303q-113 -111 -330 -111h-588zM352 217h369q102 0 160 51q57 49 57 147.5t-57 149.5q-57 49 -160 49h-369v-397zM352 831h334 q100 0 160 50q57 49 57 143t-57 143q-59 49 -160 50h-334v-386z" />
<glyph unicode="C" d="M117 485v463q0 117 36.5 211t104.5 158q70 66 164 102q98 35 209 35q113 0 203 -33q90 -35 157 -92q68 -61 107 -145q39 -86 45 -195h-219q-6 63 -35 110.5t-68 78.5q-37 29 -90 45q-49 14 -100 14t-107 -16q-53 -18 -94 -54q-41 -33 -68 -88q-26 -51 -26 -125v-6v-463 q0 -78 26 -129q25 -57 68 -90q41 -37 94 -53q55 -16 106.5 -16t100.5 14q53 16 90 45q39 31 68 78t35 110h219q-6 -109 -45 -192q-39 -82 -107 -148q-68 -57 -157 -92q-87 -32 -196 -32h-7q-111 0 -209 34q-94 37 -164 103q-68 63 -104 159q-37 92 -37 209z" />
<glyph unicode="D" d="M117 0v1434h514q113 0 211 -35q92 -35 162 -103q68 -63 104.5 -157.5t36.5 -210.5v-422q0 -117 -37 -209q-37 -96 -104 -160q-72 -68 -162 -100q-96 -37 -211 -37h-514zM336 217h295q53 0 106 19q51 14 97 53q39 33 67 90q25 55 25 131v414q0 76 -25 131q-29 55 -67 92 q-45 35 -97 53q-55 16 -106 17h-295v-1000z" />
<glyph unicode="E" d="M221 0v1434h846v-217h-627v-386h484v-217h-484v-397h627v-217h-846z" />
<glyph unicode="F" d="M258 0v1434h846v-217h-627v-386h484v-217h-484v-614h-219z" />
<glyph unicode="G" d="M113 485v463q0 117 36.5 211t104.5 158q70 66 164 102q98 35 209 35q109 0 200 -31q90 -35 158 -92q66 -59 107 -143q37 -80 47 -193h-219q-8 61 -37 109q-27 45 -68 76q-39 27 -90 43q-45 14 -98 14q-51 0 -107 -16q-53 -18 -94 -54q-41 -33 -68 -88q-26 -51 -26 -125 v-6v-463q0 -78 26 -129q25 -57 68 -90q41 -37 94 -53q55 -16 106.5 -16t106.5 16q51 14 96 53q39 33 68 90q25 53 25 129v93h-295v210h514v-303q0 -117 -37 -209q-37 -96 -105 -159q-72 -68 -161 -101q-93 -36 -205 -36h-6q-115 0 -209 36q-94 33 -164 101q-68 63 -104 159 q-37 92 -37 209z" />
<glyph unicode="H" d="M109 0v1434h219v-603h590v603h219v-1434h-219v614h-590v-614h-219z" />
<glyph unicode="I" d="M201 0v217h313v1000h-313v217h846v-217h-314v-1000h314v-217h-846z" />
<glyph unicode="J" d="M88 410h223q12 -51 41 -95q27 -37 70 -67q39 -27 84 -39q47 -12 92 -12q51 0 107 16q51 14 96 53q39 33 67 90q25 53 25 129v732h-627v217h846v-949q0 -117 -37 -209q-37 -96 -104 -159q-72 -68 -162 -101q-93 -36 -205 -36h-6q-102 0 -192 30q-90 29 -156 84 q-70 57 -109 135q-41 83 -53 181z" />
<glyph unicode="K" d="M115 0v1434h219v-701l596 701h270l-502 -590l557 -844h-258l-444 674l-219 -258v-416h-219z" />
<glyph unicode="L" d="M236 0v1434h219v-1217h626v-217h-845z" />
<glyph unicode="M" d="M109 0v1434h231l283 -789l282 789h232v-1434h-213v985l-215 -600h-172l-215 600v-985h-213z" />
<glyph unicode="N" d="M109 0v1434h219l590 -1028v1028h219v-1434h-219l-590 1028v-1028h-219z" />
<glyph unicode="O" d="M109 485v463q0 117 36.5 211t104.5 158q70 66 164 102q98 35 209 35q113 0 211 -35q92 -35 161 -102q68 -63 105 -157.5t37 -211.5v-463q0 -117 -37 -209q-37 -96 -105 -159q-72 -68 -161 -101q-93 -36 -205 -36h-6q-115 0 -209 36q-94 33 -164 101q-68 63 -105 159 q-36 92 -36 209zM328 485q0 -78 26 -129q25 -57 68 -90q41 -37 94 -53q55 -16 106.5 -16t106.5 16q51 14 96 53q39 33 68 90q25 53 25 129v463q0 76 -25 131q-29 55 -68 88q-45 35 -96 54q-55 16 -106.5 16t-106.5 -16q-53 -18 -94 -54q-41 -33 -68 -88q-26 -51 -26 -125v-6 v-463z" />
<glyph unicode="P" d="M158 0v1434h544q125 0 218 -37q96 -43 149 -103q61 -68 88 -149q29 -90 29 -180q0 -94 -29 -181q-27 -82 -88 -149q-55 -61 -149 -100q-90 -39 -218 -39h-325v-496h-219zM377 713h325q72 0 119 20.5t82 54.5q29 31 45 82q14 43 15 97q0 55 -15 98q-16 47 -45 80 q-35 35 -82 55.5t-119 20.5h-325v-508z" />
<glyph unicode="Q" d="M109 485v463q0 117 36.5 211t104.5 158q70 66 164 102q98 35 209 35q113 0 211 -35q92 -35 161 -102q68 -63 105 -157.5t37 -211.5v-463q0 -178 -86 -303l127 -129l-150 -145l-133 135q-115 -63 -272 -63q-115 0 -209 36q-94 33 -164 101q-68 63 -105 159q-36 92 -36 209 zM328 485q0 -78 26 -129q25 -57 68 -90q41 -37 94 -53q55 -16 107 -16q47 0 106 16l-401 418v-146zM328 932l561 -582q29 61 29 135v463q0 76 -25 131q-29 55 -68 88q-45 35 -96 54q-55 16 -106.5 16t-106.5 -16q-53 -18 -94 -54q-41 -33 -68 -88q-26 -51 -26 -125v-6v-16z " />
<glyph unicode="R" d="M150 0v1434h563q213 0 327 -111q113 -113 113 -299q0 -162 -82 -264q-84 -106 -240 -133l369 -627h-246l-362 616h-223v-616h-219zM369 827h344q102 0 159 52q58 49 58 143t-58 145q-57 49 -159 50h-344v-390z" />
<glyph unicode="S" d="M111 444h223q20 -119 102 -184q78 -63 207 -63q111 0 176.5 49t65.5 133q0 78 -47 131q-45 47 -156 76l-254 61q-139 33 -217 141.5t-78 260.5q0 102 37 180q37 76 100 127q61 49 145.5 73.5t180.5 24.5q217 0 340 -111q123 -113 149 -292h-233q-20 88 -86 137 q-63 49 -168 49q-127 0 -184 -53q-58 -51 -58 -137q0 -83 45 -127q45 -47 117 -62l246 -59q170 -39 258 -146q86 -104 86 -278q0 -88 -31 -158q-33 -72 -92 -125q-61 -55 -145 -82q-90 -30 -201 -30q-119 0 -217 34.5t-162 98.5q-68 61 -104 147q-35 80 -45 184z" />
<glyph unicode="T" d="M111 1217v217h1026v-217h-404v-1217h-219v1217h-403z" />
<glyph unicode="U" d="M109 485v949h219v-949q0 -78 26 -129q25 -57 68 -90q41 -37 94 -53q55 -16 106.5 -16t106.5 16q51 14 96 53q39 33 68 90q25 53 25 129v949h219v-949q0 -117 -37 -209q-37 -96 -105 -159q-72 -68 -161 -101q-93 -36 -205 -36h-6q-115 0 -209 36q-94 33 -164 101 q-68 63 -105 159q-36 90 -36 203v6z" />
<glyph unicode="V" d="M8 1434h225l390 -1119l389 1119h225l-502 -1434h-225z" />
<glyph unicode="W" d="M41 1434h215l133 -1076l146 871h176l145 -871l133 1076h215l-205 -1434h-217l-159 881l-160 -881h-217z" />
<glyph unicode="X" d="M20 0l455 741l-424 693h246l326 -535l325 535h246l-424 -693l455 -741h-246l-356 586l-357 -586h-246z" />
<glyph unicode="Y" d="M8 1434h242l373 -660l372 660h242l-506 -887v-547h-219v547z" />
<glyph unicode="Z" d="M94 0v217l762 1000h-752v217h1018v-217l-762 -1000h773v-217h-1039z" />
<glyph unicode="[" d="M512 -188v1622h461v-86h-373v-1450h373v-86h-461z" />
<glyph unicode="\" d="M100 1391l76 53l967 -1401l-76 -53z" />
<glyph unicode="]" d="M272 -102h373v1450h-373v86h461v-1622h-461v86z" />
<glyph unicode="^" d="M70 891l553 553l553 -553l-64 -66l-489 490l-490 -490z" />
<glyph unicode="_" d="M217 -141h811v-92h-811v92z" />
<glyph unicode="`" d="M336 1346l26 98l547 -150l-26 -98z" />
<glyph unicode="a" d="M164 293q0 47 12 92q10 47 37 90q31 47 72 80q43 33 108 55q100 29 203 41q227 20 242 21q-2 10 -2 26l-7 25q-23 78 -75 117q-58 39 -140 39q-80 0 -135 -37q-59 -37 -80 -113h-219q16 106 60 174q47 74 108 111q61 39 133 55q76 16 133 16q70 0 148 -18q80 -23 141 -70 q66 -49 109 -133q43 -86 43 -217v-647h-215v100q-53 -61 -131 -92q-79 -28 -178 -28h-7q-74 0 -137 18q-68 18 -115 57q-49 37 -77 97q-31 57 -31 141zM379 311q0 -66 47 -94q45 -31 133 -31q39 0 96 11q55 10 90 34q39 25 68 72q27 45 27 119v59q-121 -8 -246 -22 q-106 -16 -164 -49q-16 -10 -35 -35q-16 -23 -16 -64z" />
<glyph unicode="b" d="M190 0v1434h216v-469q14 27 36 45q18 18 56 39q43 20 73 26q45 10 80 10q63 0 144 -22q74 -23 135 -74q63 -53 102 -135q39 -80 39 -207v-229q0 -125 -39 -205q-39 -82 -102 -135q-66 -55 -135 -76q-77 -22 -139 -22h-5q-35 0 -80 10q-31 6 -73 26q-31 14 -56 39 q-23 20 -36 45v-100h-216zM406 422q0 -121 63 -176q59 -57 162 -58q100 0 164 58q61 55 61 176v221q0 119 -61 178q-66 55 -164 56q-100 0 -162 -56q-63 -57 -63 -178v-221z" />
<glyph unicode="c" d="M190 418v229q0 131 43 217q43 84 109 133q61 47 143 70q76 18 146 18q61 0 139 -16q70 -18 135 -61q61 -41 109 -117q47 -74 55 -186h-219q-14 88 -74 131q-57 43 -145 43q-102 0 -162 -58q-63 -57 -63 -178v-221q0 -121 63 -178q59 -57 162 -58q86 0 145 43 q62 45 76 131h217q-8 -113 -55 -186q-47 -76 -109 -117q-66 -43 -135 -61q-78 -16 -139 -16q-70 0 -146 18q-82 23 -143 70q-66 51 -109 135t-43 215z" />
<glyph unicode="d" d="M174 418v229q0 121 41 207q41 84 100 135q61 53 138 74q75 22 136 23q3 0 5 -1q37 0 82 -10q27 -6 72 -26q35 -18 57 -39q20 -20 35 -45v469h215v-1434h-215v100q-14 -25 -35 -45q-31 -27 -57 -39q-45 -20 -72 -26q-45 -10 -82 -10q-63 0 -141 22q-72 20 -138 76 q-59 51 -100 135q-41 86 -41 205zM389 422q0 -121 62 -176q57 -57 149 -58q100 0 170 58q70 55 70 176v221q0 119 -62 178q-64 55 -164 55q-1 0 -1 1q-99 0 -160 -56q-64 -57 -64 -178v-221z" />
<glyph unicode="e" d="M184 418v229q0 131 43 217q43 84 109 133q61 47 143 70q76 18 146 18q72 0 147 -18q80 -23 141 -70q66 -49 109 -133q43 -86 43 -217v-190h-666v-35q0 -121 64 -178q60 -58 162 -58q80 0 137 37q57 39 78 113h219q-16 -106 -60 -174q-45 -68 -106 -109q-72 -43 -133 -57 q-76 -16 -135 -16q-68 0 -146 18q-82 23 -143 70q-66 51 -109 135t-43 215zM399 647h451v2q-2 117 -64 174q-65 56 -161 56q-100 0 -162 -56q-63 -57 -64 -174v-2z" />
<glyph unicode="f" d="M127 854v203h301v125q0 123 59 188q57 63 193 64h407v-207h-346q-66 0 -79 -21q-18 -23 -19 -80v-69h444v-203h-444v-854h-215v854h-301z" />
<glyph unicode="g" d="M174 479v168q0 121 41 207q41 84 100 135q61 53 138 74q75 22 136 22h5q37 0 82 -10q27 -6 72 -26q35 -18 57 -39q20 -20 35 -45v92h215v-1016q0 -131 -43 -217q-43 -84 -109 -133q-61 -47 -141 -70q-78 -18 -148 -18q-61 0 -137 16q-72 18 -135 62q-59 39 -109 114 q-45 74 -55 185h217q14 -84 76 -130q59 -40 143 -40q100 0 164 57q61 59 62 178v117q-14 -25 -35 -45q-31 -27 -57 -39q-45 -20 -72 -27q-45 -10 -82 -10q-63 0 -141 22q-72 20 -138 76q-59 51 -100 135q-41 86 -41 205zM389 483q0 -121 64 -176q59 -57 161 -57 q100 0 164 57q61 55 62 176v160q0 119 -62 178q-63 55 -164 55q0 1 -1 1q-100 0 -160 -56q-64 -57 -64 -178v-160z" />
<glyph unicode="h" d="M186 0v1434h215v-469q14 27 37 45q18 18 56 39q43 20 73 26q45 10 80 10q63 0 144 -22q74 -23 135 -74q63 -53 102 -135q39 -80 39 -207v-647h-215v643q0 119 -61 178q-63 55 -164 55q-1 0 -2 1q-100 0 -160 -56q-63 -57 -64 -178v-643h-215z" />
<glyph unicode="i" d="M150 0v207h372v643h-270v207h485v-850h373v-207h-960zM492 1167v267h266v-267h-266z" />
<glyph unicode="j" d="M109 -170h448q63 0 82 20q16 23 16 80v920h-444v207h659v-1182q0 -123 -59 -188q-57 -63 -193 -64h-509v207zM625 1167v267h266v-267h-266z" />
<glyph unicode="k" d="M217 0v1434h215v-807l395 430h260l-380 -414l438 -643h-250l-332 487l-131 -143v-344h-215z" />
<glyph unicode="l" d="M143 0v207h373v1020h-270v207h485v-1227h373v-207h-961z" />
<glyph unicode="m" d="M115 0v1057h215v-47q23 37 61 51q37 14 80 14q49 0 90 -18q37 -20 66 -56q39 41 92 64q49 20 108 20q152 0 232 -84q78 -88 78 -219v-782h-215v782q0 45 -27 70t-68 25t-67 -25q-27 -25 -27 -70v-782h-215v782q0 45 -26 70q-29 25 -68 25t-68 -25q-27 -25 -26 -70v-782 h-215z" />
<glyph unicode="n" d="M186 0v1057h215v-92q14 27 37 45q18 18 56 39q43 20 73 26q45 10 80 10q63 0 144 -22q74 -23 135 -74q63 -53 102 -135q39 -80 39 -207v-647h-215v643q0 119 -61 178q-63 55 -164 55q-1 0 -2 1q-100 0 -160 -56q-63 -57 -64 -178v-643h-215z" />
<glyph unicode="o" d="M182 418v229q0 131 43 217q43 84 109 133q61 47 143 70q78 18 146 18q70 0 147 -18q80 -23 141 -70q66 -49 109 -133q43 -86 43 -217v-229q0 -131 -43 -215t-109 -135q-61 -47 -141 -70q-78 -18 -147 -18q-70 0 -146 18q-82 23 -143 70q-66 51 -109 135t-43 215zM397 422 q0 -121 64 -178q59 -57 162 -58q100 0 163 58q62 59 62 178v221q0 119 -62 178q-63 57 -163 58q-102 0 -162 -58q-63 -57 -64 -178v-221z" />
<glyph unicode="p" d="M190 -377v1434h216v-92q14 27 36 45q18 18 56 39q43 20 73 26q45 10 80 10q63 0 144 -22q74 -23 135 -74q63 -53 102 -135q39 -80 39 -207v-229q0 -125 -39 -205q-39 -82 -102 -135q-66 -55 -135 -76q-77 -22 -139 -22h-5q-35 0 -80 10q-31 6 -73 26q-31 14 -56 39 q-23 20 -36 45v-477h-216zM406 422q0 -121 63 -176q59 -57 162 -58q100 0 164 58q61 55 61 176v221q0 119 -61 178q-66 55 -164 56q-100 0 -162 -56q-63 -57 -63 -178v-221z" />
<glyph unicode="q" d="M174 418v229q0 121 41 207q41 84 100 135q61 53 138 74q75 22 136 22h5q37 0 82 -10q27 -6 72 -26q35 -18 57 -39q20 -20 35 -45v92h215v-1434h-215v477q-14 -25 -35 -45q-31 -27 -57 -39q-45 -20 -72 -26q-45 -10 -82 -10q-63 0 -141 22q-72 20 -138 76q-59 51 -100 135 q-41 86 -41 205zM389 422q0 -121 62 -176q57 -57 149 -58q100 0 170 58q70 55 70 176v221q0 119 -62 178q-63 55 -164 55q0 1 -1 1q-100 0 -160 -56q-64 -57 -64 -178v-221z" />
<glyph unicode="r" d="M94 0v207h334v643h-231v207h446v-103q14 25 37 45q18 18 55 39q43 20 74 27q45 10 80 10h268v-207h-289q-100 0 -161 -55q-63 -57 -64 -178v-428h412v-207h-961z" />
<glyph unicode="s" d="M203 338h221q12 -78 80 -115q66 -37 151 -37q33 0 68 7q29 2 55 16q20 12 37 35q14 20 14 53q0 55 -38 76q-41 23 -95 35l-200 51q-51 12 -101 35q-47 20 -86 59t-59 92q-23 55 -23 129q0 78 31 137q27 55 80 97q47 37 123 59q72 18 149 18q172 0 281 -79 q111 -82 125 -258h-225q-12 70 -66 100q-55 31 -129 31q-14 0 -51 -5q-29 -6 -49 -18q-23 -12 -37.5 -32.5t-14.5 -53.5q0 -47 39 -68q37 -23 80 -30l195 -49q74 -18 127 -43q57 -31 90 -66q35 -43 53 -92q18 -55 19 -131q0 -74 -29 -135q-31 -59 -82 -99q-47 -35 -125 -59 q-70 -18 -158 -18q-98 0 -172 22q-86 23 -139 66q-61 47 -98 112q-39 70 -41 158z" />
<glyph unicode="t" d="M115 854v203h301v239h215v-239h444v-203h-444v-547q0 -57 18 -80q14 -20 80 -20h346v-207h-407q-135 0 -193 63q-59 66 -59 189v602h-301z" />
<glyph unicode="u" d="M184 418v639h215v-635q0 -121 62 -176q59 -58 157 -58h2q97 0 156 58q61 55 62 176v635h215v-1057h-215v100q-14 -25 -35 -45q-31 -27 -58 -39q-45 -20 -71 -26q-45 -10 -82 -10q-68 0 -139 24q-74 25 -133.5 78t-96.5 137q-39 80 -39 199z" />
<glyph unicode="v" d="M135 1057h223l265 -752l264 752h223l-381 -1057h-213z" />
<glyph unicode="w" d="M102 1057h213l97 -725l118 561h185l119 -561l96 725h213l-170 -1057h-199l-151 637l-152 -637h-199z" />
<glyph unicode="x" d="M137 0l359 543l-342 514h237l232 -352l231 352h238l-342 -514l358 -543h-238l-247 379l-248 -379h-238z" />
<glyph unicode="y" d="M135 1057h223l265 -752l264 752h223l-469 -1301q-47 -133 -233 -133h-144v207h76q33 0 61 4q20 2 37 16q14 14 23 33q20 49 22 54l29 77z" />
<glyph unicode="z" d="M223 0v203l506 651h-491v203h759v-203l-505 -651h520v-203h-789z" />
<glyph unicode="{" d="M360 580v86h21q82 0 106.5 30.5t24.5 94.5v432q0 45 10 90q8 39 33 65q23 25 68 41q41 14 108 15h242v-86h-242q-82 0 -106.5 -31t-24.5 -94v-432q0 -59 -14 -101q-16 -47 -56 -67q39 -25 56 -68q14 -43 14 -100v-432q0 -63 24.5 -94t106.5 -31h242v-86h-242 q-68 0 -108 14q-45 16 -68 41q-25 27 -33 65q-10 45 -10 91v432q0 63 -24.5 94t-106.5 31h-21z" />
<glyph unicode="|" d="M578 -205v1639h88v-1639h-88z" />
<glyph unicode="}" d="M272 -102h242q82 0 106.5 30.5t24.5 94.5v432q0 51 17 100q16 45 53 68q-37 20 -53 67q-16 45 -17 101v432q0 63 -24.5 94t-106.5 31h-242v86h242q68 0 109 -15q45 -16 67 -41q27 -31 35 -65.5t8 -89.5v-432q0 -63 24.5 -94t106.5 -31h21v-86h-21q-82 0 -106.5 -31 t-24.5 -94v-432q0 -55 -8 -90t-35 -66q-23 -25 -67 -41q-41 -14 -109 -14h-242v86z" />
<glyph unicode="~" d="M197 524l325 176l209 -149l277 149l43 -77l-326 -177l-209 150l-276 -150z" />
<glyph unicode="&#xa0;" />
<glyph unicode="&#xa1;" d="M485 782v275h275v-275h-275zM516 -377v963h215v-963h-215z" />
<glyph unicode="&#xa2;" d="M190 418v229q0 119 37 203q35 78 97 133q57 49 129 74q78 25 137 26v187h88v-187q68 -6 127 -26q68 -23 121 -64q55 -47 94 -114q39 -70 49 -174h-219q-14 88 -74 131q-57 43 -145 43q-102 0 -162 -58q-63 -57 -63 -178v-221q0 -121 63 -178q59 -57 162 -58q86 0 145 43 q61 45 76 131h217q-8 -102 -49 -172q-41 -74 -94 -114q-51 -43 -121 -66q-61 -23 -127 -26v-187h-88v187q-63 2 -137 28q-72 23 -129 74q-61 51 -97 131q-37 84 -37 203z" />
<glyph unicode="&#xa3;" d="M125 0v207h131v467h-131v88h131v254q0 131 43 217q43 84 109 133q61 47 143 70q76 18 145 18q70 0 148 -18q80 -23 141 -70q66 -49 109 -133q43 -86 43 -217v-4h-215q0 119 -62 178q-63 57 -164 57q-102 0 -161 -57q-63 -57 -64 -178v-250h451v-88h-451v-467h666v-207 h-1012z" />
<glyph unicode="&#xa4;" d="M29 164l172 174q-63 72 -97 164q-35 92 -34.5 194.5t34.5 196.5q35 90 97 162l-172 174l63 61l172 -174q70 63 164 98q92 35 194.5 35t196.5 -35q92 -35 162 -98l172 174l64 -61l-175 -174q63 -70 99 -162q35 -94 35 -196.5t-35 -194.5q-35 -94 -99 -164l175 -174 l-64 -62l-172 172q-72 -61 -162 -96q-94 -35 -196.5 -35t-194.5 35q-92 33 -164 96l-172 -172zM276 696q0 -70 29 -133q27 -63 74 -110t110 -74q63 -29 134 -29q68 0 135 29q63 29 108 74q49 49 76 110q27 59 27 133t-27 135q-27 59 -76 108.5t-108 76.5q-61 27 -135 26.5 t-134 -26.5q-61 -27 -110 -76q-45 -45 -74 -109q-29 -67 -29 -135z" />
<glyph unicode="&#xa5;" d="M8 1434h238l377 -664l376 664h238l-459 -799h248v-88h-297v-180h297v-88h-297v-279h-215v279h-297v88h297v180h-297v88h246z" />
<glyph unicode="&#xa6;" d="M580 -205v694h88v-694h-88zM580 739v695h88v-695h-88z" />
<glyph unicode="&#xa7;" d="M195 575q0 109 55 179q53 68 151 102q-55 39 -98 107q-41 66 -41 165q0 70 29 134q29 61 76 102q45 41 112 68q68 23 142 22q150 0 249 -86q100 -90 123 -246h-92q-14 109 -90 178q-74 68 -190 68q-49 0 -99 -16q-45 -14 -84 -47t-59 -76q-25 -45 -25 -101q0 -92 52 -149 q49 -57 126 -86l238 -82q49 -18 90 -37q47 -20 92 -59q43 -37 74 -92q29 -61 29 -140q0 -111 -58 -180q-55 -68 -155 -102q61 -45 102 -113q41 -72 41 -174q0 -61 -18 -119q-18 -53 -60 -98q-37 -41 -108 -70q-70 -25 -168 -24q-88 0 -154 26q-70 29 -115 74q-47 45 -75 111 q-29 63 -37 141h92q12 -119 92 -192.5t197 -73.5q139 0 200 65q61 68 61.5 160t-48.5 160q-49 65 -129 94l-240 82q-51 20 -88 37q-47 20 -92 59t-72 92q-29 57 -28 137zM287 575q0 -49 16 -88q12 -33 45 -65q29 -29 68 -49q31 -16 82 -35l211 -74q47 4 88 15q47 12 82 38 q35 25 61 66q23 41 23 100q0 100 -62 156q-63 57 -149 84l-215 72q-25 -2 -88 -15q-47 -12 -80 -37q-39 -33 -58 -65q-25 -39 -24 -103z" />
<glyph unicode="&#xa8;" d="M303 1243v156h156v-156h-156zM786 1243v156h156v-156h-156z" />
<glyph unicode="&#xa9;" d="M82 510v414q0 117 35 217q37 98 106 168q68 68 170 108q100 37 230 37q127 0 229 -37q102 -39 170 -108q70 -70 106 -168q35 -100 35 -217v-414q0 -117 -35 -217q-37 -98 -106.5 -168t-169.5 -107q-98 -39 -229 -38.5t-230 38.5q-100 37 -169.5 107t-106.5 168 q-35 100 -35 217zM170 510q0 -98 31 -180q25 -76 88 -140q59 -59 141 -92q80 -33 192.5 -32.5t192.5 32.5q86 35 143.5 92.5t88.5 139.5q28 86 28 180v414q0 94 -28 180q-31 84 -89 141q-53 53 -143 90q-80 33 -192.5 33t-192.5 -33q-86 -35 -141 -90q-61 -61 -88 -141 q-31 -84 -31 -180v-414zM315 614v205q0 133 78 217t229.5 84t229.5 -80t80 -209h-176q-2 47 -39 84q-33 31 -94 31q-63 0 -98.5 -34.5t-35.5 -92.5v-205q0 -57 35 -92q33 -37 99 -37q61 0 94 31q37 33 39 84h176q-4 -131 -80 -207q-78 -80 -229.5 -80t-229.5 84t-78 217z " />
<glyph unicode="&#xaa;" d="M264 424v92h697v-92h-697zM264 844q0 74 37 143.5t137 102.5q80 25 160 32q109 12 186 17q-2 6 -2 20l-6 21q-35 111 -160 110q-61 0 -102 -26q-43 -29 -59 -84h-176q8 76 45 131q35 53 82 86q43 29 102 45q51 14 108 14q55 0 121 -16q59 -18 111 -60q45 -37 82 -106 q31 -66 31 -164v-492h-175v80q-37 -47 -96 -71.5t-143 -24.5q-61 0 -111 14q-53 16 -88 46q-41 31 -61 75q-23 49 -23 107zM438 860q0 -94 137 -94q41 0 74 8q41 10 68 29q29 16 51 53q18 33 18 88v43q-180 -16 -184 -16q-78 -8 -123 -35q-14 -8 -28 -27q-12 -18 -13 -49z " />
<glyph unicode="&#xab;" d="M113 526l430 430l65 -63l-366 -367l366 -366l-65 -64zM571 526l430 430l66 -63l-367 -367l367 -366l-66 -64z" />
<glyph unicode="&#xac;" d="M217 528v93h811v-453h-92v360h-719z" />
<glyph unicode="&#xad;" d="M326 528v93h594v-93h-594z" />
<glyph unicode="&#xae;" d="M82 510v414q0 117 35 217q37 98 106 168q68 68 170 108q100 37 230 37q127 0 229 -37q102 -39 170 -108q70 -70 106 -168q35 -100 35 -217v-414q0 -117 -35 -217q-37 -98 -106.5 -168t-169.5 -107q-98 -39 -229 -38.5t-230 38.5q-100 37 -169.5 107t-106.5 168 q-35 100 -35 217zM170 510q0 -98 31 -180q25 -76 88 -140q59 -59 141 -92q80 -33 192.5 -32.5t192.5 32.5q86 35 143.5 92.5t88.5 139.5q28 86 28 180v414q0 94 -28 180q-31 84 -89 141q-53 53 -143 90q-80 33 -192.5 33t-192.5 -33q-86 -35 -141 -90q-61 -61 -88 -141 q-31 -84 -31 -180v-414zM340 324v784h348q123 0 189 -61q66 -66 65 -175q0 -86 -43 -145q-45 -61 -121 -82l189 -321h-203l-182 311h-68v-311h-174zM514 805h180q33 0 56 16q18 14 18 47q0 37 -18 52q-23 16 -56 16h-180v-131z" />
<glyph unicode="&#xaf;" d="M303 1270v102h639v-102h-639z" />
<glyph unicode="&#xb0;" d="M303 1124q0 70 27 125q25 57 67 101q41 41 103 69q57 25 123 25t125 -25q59 -27 100 -69.5t70 -100.5q25 -57 24 -125q0 -63 -24 -123q-29 -61 -70 -102q-43 -43 -100 -68q-55 -27 -125 -26q-68 0 -123 26q-59 25 -102.5 68t-67.5 102q-27 55 -27 123zM391 1124 q0 -51 19 -90q18 -43 49 -73q29 -33 73 -52q41 -18 90.5 -18t92.5 18q43 20 71 52q31 31 50 73q18 39 18 90q0 49 -18 93q-18 41 -50 73q-31 31 -71 49q-43 18 -92.5 18.5t-90.5 -18.5q-43 -18 -73 -49q-31 -33 -49 -73q-19 -44 -19 -93z" />
<glyph unicode="&#xb1;" d="M217 317v93h811v-93h-811zM217 717v92h361v248h92v-248h358v-92h-358v-248h-92v248h-361z" />
<glyph unicode="&#xb2;" d="M342 821v154l338 315q35 37 45 58q10 25 10 43q0 51 -28.5 85.5t-81.5 34.5q-51 0 -80 -34.5t-29 -85.5q0 -12 10 -37q7 -15 19 -35l-127 -117q-43 43 -58 84q-18 43 -18 96q0 55 23 111q20 49 61 90q39 39 88 59q55 23 111 23q57 0 112 -23q47 -18 90 -59q41 -43 60 -90 q23 -55 22 -111q0 -45 -8 -71q-8 -31 -24 -56q-12 -23 -39 -49q-23 -25 -54 -53l-188 -178h313v-154h-567z" />
<glyph unicode="&#xb3;" d="M330 1092h174q0 -49 26 -88q25 -41 82 -41q55 0 84 41q25 41 25 88q0 43 -29 84q-31 39 -80 38v156q29 0 43.5 20.5t14.5 43.5q0 27 -11 53q-12 25 -46.5 24.5t-45.5 -24.5q-12 -25 -12 -53h-174q0 49 18 92q20 43 52 71q31 31 73 50q41 18 88 18t90 -18q39 -18 74 -50 q31 -31 49 -71q18 -43 19 -92q0 -76 -45 -134q41 -39 69 -92q27 -51 27 -116q0 -55 -16 -111q-14 -51 -50 -88q-33 -39 -84 -61.5t-114 -22.5q-70 0 -127 22q-55 20 -96 62q-39 37 -58 88q-20 49 -20 111z" />
<glyph unicode="&#xb4;" d="M336 1294l547 150l26 -98l-547 -150z" />
<glyph unicode="&#xb6;" d="M133 1024q0 86 33 160q31 74 86 129q53 55 131 88q72 33 158 33h514v-1612h-88v1526h-318v-1526h-88v792h-20q-86 0 -158 33q-76 33 -131 88.5t-86 130.5q-33 72 -33 158z" />
<glyph unicode="&#xb7;" d="M485 457v274h275v-274h-275z" />
<glyph unicode="&#xb8;" d="M440 -274h172v172h103v-275h-275v103z" />
<glyph unicode="&#xb9;" d="M334 1430l223 223h174v-678h215v-154h-606v154h217v440l-106 -104z" />
<glyph unicode="&#xba;" d="M279 424v92h688v-92h-688zM279 948v162q0 100 32 164q33 68 80 106q51 41 111 60q66 16 121 16q57 0 122 -16q59 -18 111 -60q47 -39 80 -106q31 -66 31 -164v-162q0 -100 -31 -164q-33 -68 -80 -106q-53 -43 -111 -57q-61 -19 -122 -19q-59 0 -121 19q-57 14 -111 57 q-47 39 -80 106q-33 63 -32 164zM453 944q0 -88 47 -131q45 -45 123 -45q80 0 125 45q45 43 45 131v168q0 90 -45 135q-45 43 -125 43q-78 0 -123 -43q-47 -47 -47 -135v-168z" />
<glyph unicode="&#xbb;" d="M178 160l66 -64l430 430l-430 430l-66 -63l367 -367zM639 160l66 -64l430 430l-430 430l-66 -63l367 -367z" />
<glyph unicode="&#xbc;" d="M76 899v82h139v336l-74 -76l-59 59l133 134h86v-453h137v-82h-362zM145 307l889 891l66 -65l-889 -891zM741 129v82l238 328l68 -50l-203 -278h133v108h86v-108h55v-82h-55v-129h-86v129h-236z" />
<glyph unicode="&#xbd;" d="M76 899v82h139v336l-74 -76l-59 59l133 134h86v-453h137v-82h-362zM145 307l889 891l66 -65l-889 -891zM774 0v82l197 203q29 29 39 47q10 25 10 45q0 37 -21 59q-23 23 -59 23q-35 0 -57 -23q-23 -27 -23 -59q0 -37 25 -62l-60 -59q-20 20 -37 53q-14 29 -14 68 q0 70 49 119q47 47 117 47q68 0 119 -47q47 -51 47 -119q0 -47 -14.5 -76t-57.5 -72l-143 -147h215v-82h-332z" />
<glyph unicode="&#xbe;" d="M109 1057h86q0 -35 22 -58q20 -25 57 -24.5t58 24.5q23 23 22 58q0 37 -20 59q-25 25 -53 27h-7v78h7q29 4 43 22q16 23 16 47q0 29 -18 49q-18 18 -47 18.5t-48 -18.5q-18 -20 -18 -49h-86q0 63 45 109q43 43 106 43q61 0 109 -43q43 -47 43 -109q0 -33 -12.5 -59.5 t-32.5 -46.5q59 -49 59 -127q0 -70 -47 -117q-49 -49 -119 -49t-116 49q-49 47 -49 117zM145 307l889 891l66 -65l-889 -891zM741 129v82l238 328l68 -50l-203 -278h133v108h86v-108h55v-82h-55v-129h-86v129h-236z" />
<glyph unicode="&#xbf;" d="M201 43q0 76 24 147q25 70 70 127q49 59 106.5 96.5t133.5 57.5v115h215v-310h-119q-49 -4 -86 -20q-41 -23 -68 -51q-31 -39 -45 -74q-16 -45 -16 -88q0 -47 18 -90q14 -39 47 -76q27 -29 70 -49q39 -18 90 -18t90 18q41 18 72 49q31 37 47 76q16 45 16 90h215 q0 -90 -34 -172q-33 -78 -94.5 -139.5t-139.5 -93.5q-82 -35 -172 -35t-172 35q-78 33 -139.5 94t-93.5 139q-35 82 -35 172zM504 782v275h274v-275h-274z" />
<glyph unicode="&#xc0;" d="M8 0l502 1434h225l502 -1434h-225l-121 346h-537l-121 -346h-225zM336 1661l26 98l547 -149l-26 -99zM424 549h397l-198 569z" />
<glyph unicode="&#xc1;" d="M8 0l502 1434h225l502 -1434h-225l-121 346h-537l-121 -346h-225zM336 1610l547 149l26 -98l-547 -150zM424 549h397l-198 569z" />
<glyph unicode="&#xc2;" d="M8 0l502 1434h225l502 -1434h-225l-121 346h-537l-121 -346h-225zM291 1602l332 157l331 -157l-43 -91l-288 138l-289 -138zM424 549h397l-198 569z" />
<glyph unicode="&#xc3;" d="M8 0l502 1434h225l502 -1434h-225l-121 346h-537l-121 -346h-225zM272 1608l273 145l162 -117l219 117l47 -88l-273 -145l-161 116l-220 -116zM424 549h397l-198 569z" />
<glyph unicode="&#xc4;" d="M8 0l502 1434h225l502 -1434h-225l-121 346h-537l-121 -346h-225zM303 1559v155h156v-155h-156zM424 549h397l-198 569zM786 1559v155h156v-155h-156z" />
<glyph unicode="&#xc5;" d="M8 0l481 1374q-47 35 -73 84q-27 48 -27 109q0 49 19 92q18 41 51 74q29 33 73 51q41 18 90.5 18t92.5 -18q41 -18 73.5 -51t51.5 -74q18 -43 18 -92q0 -61 -27 -109q-25 -47 -75 -84l481 -1374h-225l-121 346h-537l-121 -346h-225zM424 549h397l-198 569zM489 1567 q0 -55 39 -94t95 -39q57 0 96 38.5t39 94.5q0 57 -39 96t-96 39q-55 0 -94.5 -39t-39.5 -96z" />
<glyph unicode="&#xc6;" d="M8 0l502 1434h627v-217h-328v-386h184v-217h-184v-397h328v-217h-547v346h-236l-121 -346h-225zM424 549h166v471z" />
<glyph unicode="&#xc7;" d="M117 485v463q0 117 36.5 211t104.5 158q70 66 164 102q98 35 209 35q113 0 203 -33q90 -35 157 -92q68 -61 107 -145q39 -86 45 -195h-219q-6 63 -35 110.5t-68 78.5q-37 29 -90 45q-49 14 -100 14t-107 -16q-53 -18 -94 -54q-41 -33 -68 -88q-27 -53 -26 -131v-463 q0 -78 26 -129q25 -57 68 -90q41 -37 94 -53q55 -16 106.5 -16t100.5 14q53 16 90 45q39 31 68 78t35 110h219q-6 -109 -45 -192q-39 -82 -107 -148q-68 -57 -157 -92q-90 -33 -203 -32q-111 0 -209 34q-94 37 -164 103q-68 63 -104 159q-37 92 -37 209zM408 -274h172v172 h102v-275h-274v103z" />
<glyph unicode="&#xc8;" d="M221 0v1434h846v-217h-627v-386h484v-217h-484v-397h627v-217h-846zM356 1661l27 98l547 -149l-27 -99z" />
<glyph unicode="&#xc9;" d="M221 0v1434h846v-217h-627v-386h484v-217h-484v-397h627v-217h-846zM356 1610l547 149l27 -98l-547 -150z" />
<glyph unicode="&#xca;" d="M221 0v1434h846v-217h-627v-386h484v-217h-484v-397h627v-217h-846zM311 1602l332 157l332 -157l-43 -91l-289 138l-289 -138z" />
<glyph unicode="&#xcb;" d="M221 0v1434h846v-217h-627v-386h484v-217h-484v-397h627v-217h-846zM324 1559v155h155v-155h-155zM807 1559v155h156v-155h-156z" />
<glyph unicode="&#xcc;" d="M201 0v217h313v1000h-313v217h846v-217h-314v-1000h314v-217h-846zM336 1661l26 98l547 -149l-26 -99z" />
<glyph unicode="&#xcd;" d="M201 0v217h313v1000h-313v217h846v-217h-314v-1000h314v-217h-846zM336 1610l547 149l26 -98l-547 -150z" />
<glyph unicode="&#xce;" d="M201 0v217h313v1000h-313v217h846v-217h-314v-1000h314v-217h-846zM291 1602l332 157l331 -157l-43 -91l-288 138l-289 -138z" />
<glyph unicode="&#xcf;" d="M201 0v217h313v1000h-313v217h846v-217h-314v-1000h314v-217h-846zM303 1559v155h156v-155h-156zM786 1559v155h156v-155h-156z" />
<glyph unicode="&#xd0;" d="M-2 672v92h143v670h514q113 0 211 -35q92 -35 162 -103q68 -63 104.5 -157.5t36.5 -210.5v-422q0 -117 -36 -209q-37 -96 -105 -160q-72 -68 -162 -100q-94 -37 -211 -37h-514v672h-143zM360 217h295q53 0 107 19q51 14 96 53q39 33 68 90q25 55 24 131v414q0 76 -24 131 q-29 55 -68 92q-45 35 -96 53q-55 16 -107 17h-295v-453h295v-92h-295v-455z" />
<glyph unicode="&#xd1;" d="M109 0v1434h219l590 -1028v1028h219v-1434h-219l-590 1028v-1028h-219zM272 1608l273 145l162 -117l219 117l47 -88l-273 -145l-161 116l-220 -116z" />
<glyph unicode="&#xd2;" d="M109 485v463q0 117 36.5 211t104.5 158q70 66 164 102q98 35 209 35q113 0 211 -35q92 -35 161 -102q68 -63 105 -157.5t37 -211.5v-463q0 -117 -37 -209q-37 -96 -105 -159q-72 -68 -161 -101q-96 -37 -211 -36q-115 0 -209 36q-94 33 -164 101q-68 63 -105 159 q-36 92 -36 209zM328 485q0 -78 26 -129q25 -57 68 -90q41 -37 94 -53q55 -16 106.5 -16t106.5 16q51 14 96 53q39 33 68 90q25 53 25 129v463q0 76 -25 131q-29 55 -68 88q-45 35 -96 54q-55 16 -106.5 16t-106.5 -16q-53 -18 -94 -54q-41 -33 -68 -88q-27 -53 -26 -131 v-463zM336 1661l26 98l547 -149l-26 -99z" />
<glyph unicode="&#xd3;" d="M109 485v463q0 117 36.5 211t104.5 158q70 66 164 102q98 35 209 35q113 0 211 -35q92 -35 161 -102q68 -63 105 -157.5t37 -211.5v-463q0 -117 -37 -209q-37 -96 -105 -159q-72 -68 -161 -101q-96 -37 -211 -36q-115 0 -209 36q-94 33 -164 101q-68 63 -105 159 q-36 92 -36 209zM328 485q0 -78 26 -129q25 -57 68 -90q41 -37 94 -53q55 -16 106.5 -16t106.5 16q51 14 96 53q39 33 68 90q25 53 25 129v463q0 76 -25 131q-29 55 -68 88q-45 35 -96 54q-55 16 -106.5 16t-106.5 -16q-53 -18 -94 -54q-41 -33 -68 -88q-27 -53 -26 -131 v-463zM336 1610l547 149l26 -98l-547 -150z" />
<glyph unicode="&#xd4;" d="M109 485v463q0 117 36.5 211t104.5 158q70 66 164 102q98 35 209 35q113 0 211 -35q92 -35 161 -102q68 -63 105 -157.5t37 -211.5v-463q0 -117 -37 -209q-37 -96 -105 -159q-72 -68 -161 -101q-96 -37 -211 -36q-115 0 -209 36q-94 33 -164 101q-68 63 -105 159 q-36 92 -36 209zM291 1602l332 157l331 -157l-43 -91l-288 138l-289 -138zM328 485q0 -78 26 -129q25 -57 68 -90q41 -37 94 -53q55 -16 106.5 -16t106.5 16q51 14 96 53q39 33 68 90q25 53 25 129v463q0 76 -25 131q-29 55 -68 88q-45 35 -96 54q-55 16 -106.5 16 t-106.5 -16q-53 -18 -94 -54q-41 -33 -68 -88q-27 -53 -26 -131v-463z" />
<glyph unicode="&#xd5;" d="M109 485v463q0 117 36.5 211t104.5 158q70 66 164 102q98 35 209 35q113 0 211 -35q92 -35 161 -102q68 -63 105 -157.5t37 -211.5v-463q0 -117 -37 -209q-37 -96 -105 -159q-72 -68 -161 -101q-96 -37 -211 -36q-115 0 -209 36q-94 33 -164 101q-68 63 -105 159 q-36 92 -36 209zM272 1608l273 145l162 -117l219 117l47 -88l-273 -145l-161 116l-220 -116zM328 485q0 -78 26 -129q25 -57 68 -90q41 -37 94 -53q55 -16 106.5 -16t106.5 16q51 14 96 53q39 33 68 90q25 53 25 129v463q0 76 -25 131q-29 55 -68 88q-45 35 -96 54 q-55 16 -106.5 16t-106.5 -16q-53 -18 -94 -54q-41 -33 -68 -88q-27 -53 -26 -131v-463z" />
<glyph unicode="&#xd6;" d="M109 485v463q0 117 36.5 211t104.5 158q70 66 164 102q98 35 209 35q113 0 211 -35q92 -35 161 -102q68 -63 105 -157.5t37 -211.5v-463q0 -117 -37 -209q-37 -96 -105 -159q-72 -68 -161 -101q-96 -37 -211 -36q-115 0 -209 36q-94 33 -164 101q-68 63 -105 159 q-36 92 -36 209zM303 1559v155h156v-155h-156zM328 485q0 -78 26 -129q25 -57 68 -90q41 -37 94 -53q55 -16 106.5 -16t106.5 16q51 14 96 53q39 33 68 90q25 53 25 129v463q0 76 -25 131q-29 55 -68 88q-45 35 -96 54q-55 16 -106.5 16t-106.5 -16q-53 -18 -94 -54 q-41 -33 -68 -88q-27 -53 -26 -131v-463zM786 1559v155h156v-155h-156z" />
<glyph unicode="&#xd7;" d="M272 289l285 284l-285 285l66 66l285 -285l286 285l66 -66l-287 -285l287 -284l-66 -66l-286 285l-285 -285z" />
<glyph unicode="&#xd8;" d="M109 485v463q0 117 36.5 211t104.5 158q70 66 164 102q98 35 209 35q197 0 327 -100l88 147l76 -47l-96 -162q55 -61 88 -151q31 -86 31 -193v-463q0 -117 -37 -209q-37 -96 -105 -159q-72 -68 -161 -101q-96 -37 -211 -36q-199 0 -330 100l-88 -148l-76 48l96 161 q-55 63 -86 152q-30 86 -30 192zM328 485q0 -76 24 -131l482 805q-45 41 -99 60q-55 18 -112 18q-51 0 -107 -16q-53 -18 -94 -54q-41 -33 -68 -88q-26 -53 -26 -131v-463zM410 276q45 -41 98 -59q53 -20 115 -20q51 0 106 16q51 14 96 53q39 33 68 90q25 53 25 129v463 q0 76 -27 131z" />
<glyph unicode="&#xd9;" d="M109 485v949h219v-949q0 -78 26 -129q25 -57 68 -90q41 -37 94 -53q55 -16 106.5 -16t106.5 16q51 14 96 53q39 33 68 90q25 53 25 129v949h219v-949q0 -117 -37 -209q-37 -96 -105 -159q-72 -68 -161 -101q-96 -37 -211 -36q-115 0 -209 36q-94 33 -164 101 q-68 63 -105 159q-37 92 -36 209zM336 1661l26 98l547 -149l-26 -99z" />
<glyph unicode="&#xda;" d="M109 485v949h219v-949q0 -78 26 -129q25 -57 68 -90q41 -37 94 -53q55 -16 106.5 -16t106.5 16q51 14 96 53q39 33 68 90q25 53 25 129v949h219v-949q0 -117 -37 -209q-37 -96 -105 -159q-72 -68 -161 -101q-96 -37 -211 -36q-115 0 -209 36q-94 33 -164 101 q-68 63 -105 159q-37 92 -36 209zM336 1610l547 149l26 -98l-547 -150z" />
<glyph unicode="&#xdb;" d="M109 485v949h219v-949q0 -78 26 -129q25 -57 68 -90q41 -37 94 -53q55 -16 106.5 -16t106.5 16q51 14 96 53q39 33 68 90q25 53 25 129v949h219v-949q0 -117 -37 -209q-37 -96 -105 -159q-72 -68 -161 -101q-96 -37 -211 -36q-115 0 -209 36q-94 33 -164 101 q-68 63 -105 159q-37 92 -36 209zM291 1602l332 157l331 -157l-43 -91l-288 138l-289 -138z" />
<glyph unicode="&#xdc;" d="M109 485v949h219v-949q0 -78 26 -129q25 -57 68 -90q41 -37 94 -53q55 -16 106.5 -16t106.5 16q51 14 96 53q39 33 68 90q25 53 25 129v949h219v-949q0 -117 -37 -209q-37 -96 -105 -159q-72 -68 -161 -101q-96 -37 -211 -36q-115 0 -209 36q-94 33 -164 101 q-68 63 -105 159q-37 92 -36 209zM303 1559v155h156v-155h-156zM786 1559v155h156v-155h-156z" />
<glyph unicode="&#xdd;" d="M8 1434h242l373 -660l372 660h242l-506 -887v-547h-219v547zM336 1610l547 149l26 -98l-547 -150z" />
<glyph unicode="&#xde;" d="M158 0v1434h219v-248h325q125 0 218 -37q96 -43 149 -102q61 -68 88 -150q29 -90 29 -180q0 -94 -29 -180q-27 -82 -88 -150q-55 -61 -149 -100q-90 -39 -218 -39h-325v-248h-219zM377 465h325q72 0 119 20.5t82 55.5q29 31 45 82q14 43 15 96q0 55 -15 98q-16 47 -45 80 q-35 35 -82 55.5t-119 20.5h-325v-508z" />
<glyph unicode="&#xdf;" d="M225 0v1182q0 123 60 188q57 63 192 64h94v-207h-32q-66 0 -80 -21q-18 -23 -19 -80v-69h561v-199l-221 -278q70 -33 121 -76q53 -47 94 -107q41 -61 62 -131q20 -68 20 -147q0 -106 -39 -197q-39 -88 -108 -162q-74 -70 -162 -108q-90 -39 -197 -39v207q59 0 115 22 q51 25 92 66q39 39 62 94q23 57 22.5 116.5t-22.5 117.5q-23 55 -62 94t-92 63q-55 23 -115 23v209l174 225h-305v-850h-215z" />
<glyph unicode="&#xe0;" d="M164 293q0 47 12 92q10 47 37 90q31 47 72 80q43 33 108 55q100 29 203 41q227 20 242 21q-2 10 -2 26l-7 25q-23 78 -75 117q-58 39 -140 39q-80 0 -135 -37q-59 -37 -80 -113h-219q16 106 60 174q47 74 108 111q61 39 133 55q76 16 133 16q70 0 148 -18q80 -23 141 -70 q66 -49 109 -133q43 -86 43 -217v-647h-215v100q-53 -61 -131 -92q-82 -29 -185 -28q-74 0 -137 18q-68 18 -115 57q-49 37 -77 97q-31 57 -31 141zM342 1346l27 98l546 -150l-26 -98zM379 311q0 -66 47 -94q45 -31 133 -31q39 0 96 11q55 10 90 34q39 25 68 72 q27 45 27 119v59q-121 -8 -246 -22q-106 -16 -164 -49q-16 -10 -35 -35q-16 -23 -16 -64z" />
<glyph unicode="&#xe1;" d="M164 293q0 47 12 92q10 47 37 90q31 47 72 80q43 33 108 55q100 29 203 41q227 20 242 21q-2 10 -2 26l-7 25q-23 78 -75 117q-58 39 -140 39q-80 0 -135 -37q-59 -37 -80 -113h-219q16 106 60 174q47 74 108 111q61 39 133 55q76 16 133 16q70 0 148 -18q80 -23 141 -70 q66 -49 109 -133q43 -86 43 -217v-647h-215v100q-53 -61 -131 -92q-82 -29 -185 -28q-74 0 -137 18q-68 18 -115 57q-49 37 -77 97q-31 57 -31 141zM342 1294l547 150l26 -98l-546 -150zM379 311q0 -66 47 -94q45 -31 133 -31q39 0 96 11q55 10 90 34q39 25 68 72 q27 45 27 119v59q-121 -8 -246 -22q-106 -16 -164 -49q-16 -10 -35 -35q-16 -23 -16 -64z" />
<glyph unicode="&#xe2;" d="M164 293q0 47 12 92q10 47 37 90q31 47 72 80q43 33 108 55q100 29 203 41q227 20 242 21q-2 10 -2 26l-7 25q-23 78 -75 117q-58 39 -140 39q-80 0 -135 -37q-59 -37 -80 -113h-219q16 106 60 174q47 74 108 111q61 39 133 55q76 16 133 16q70 0 148 -18q80 -23 141 -70 q66 -49 109 -133q43 -86 43 -217v-647h-215v100q-53 -61 -131 -92q-82 -29 -185 -28q-74 0 -137 18q-68 18 -115 57q-49 37 -77 97q-31 57 -31 141zM297 1286l332 158l332 -158l-43 -90l-289 137l-289 -137zM379 311q0 -66 47 -94q45 -31 133 -31q39 0 96 11q55 10 90 34 q39 25 68 72q27 45 27 119v59q-121 -8 -246 -22q-106 -16 -164 -49q-16 -10 -35 -35q-16 -23 -16 -64z" />
<glyph unicode="&#xe3;" d="M164 293q0 47 12 92q10 47 37 90q31 47 72 80q43 33 108 55q100 29 203 41q227 20 242 21q-2 10 -2 26l-7 25q-23 78 -75 117q-58 39 -140 39q-80 0 -135 -37q-59 -37 -80 -113h-219q16 106 60 174q47 74 108 111q61 39 133 55q76 16 133 16q70 0 148 -18q80 -23 141 -70 q66 -49 109 -133q43 -86 43 -217v-647h-215v100q-53 -61 -131 -92q-82 -29 -185 -28q-74 0 -137 18q-68 18 -115 57q-49 37 -77 97q-31 57 -31 141zM279 1292l272 146l162 -117l219 117l47 -88l-272 -146l-162 117l-219 -117zM379 311q0 -66 47 -94q45 -31 133 -31 q39 0 96 11q55 10 90 34q39 25 68 72q27 45 27 119v59q-121 -8 -246 -22q-106 -16 -164 -49q-16 -10 -35 -35q-16 -23 -16 -64z" />
<glyph unicode="&#xe4;" d="M164 293q0 47 12 92q10 47 37 90q31 47 72 80q43 33 108 55q100 29 203 41q227 20 242 21q-2 10 -2 26l-7 25q-23 78 -75 117q-58 39 -140 39q-80 0 -135 -37q-59 -37 -80 -113h-219q16 106 60 174q47 74 108 111q61 39 133 55q76 16 133 16q70 0 148 -18q80 -23 141 -70 q66 -49 109 -133q43 -86 43 -217v-647h-215v100q-53 -61 -131 -92q-82 -29 -185 -28q-74 0 -137 18q-68 18 -115 57q-49 37 -77 97q-31 57 -31 141zM309 1243v156h156v-156h-156zM379 311q0 -66 47 -94q45 -31 133 -31q39 0 96 11q55 10 90 34q39 25 68 72q27 45 27 119v59 q-121 -8 -246 -22q-106 -16 -164 -49q-16 -10 -35 -35q-16 -23 -16 -64zM793 1243v156h155v-156h-155z" />
<glyph unicode="&#xe5;" d="M164 293q0 47 12 92q10 47 37 90q31 47 72 80q43 33 108 55q100 29 203 41q227 20 242 21q-8 102 -68 155q-59 51 -156 52q-80 0 -135 -37q-59 -37 -80 -113h-219q18 145 94 221q80 80 170 109q-31 35 -45 71q-18 42 -18 89q0 49 18 92q18 41 52 73q29 33 73 52 q41 18 90.5 18t92.5 -18q41 -18 73.5 -51t50.5 -74q18 -43 19 -92q0 -94 -66 -160q55 -18 103 -49q51 -35 86 -82q39 -51 59 -119q23 -74 23 -162v-647h-215v100q-53 -63 -131 -90q-80 -31 -185 -30q-74 0 -137 18q-68 18 -115 57q-49 37 -77 97q-31 57 -31 141zM379 311 q0 -66 47 -94q45 -31 133 -31q39 0 96 11q55 10 90 34q39 25 68 72q27 45 27 119v59q-121 -8 -246 -22q-106 -16 -164 -49q-16 -10 -35 -35q-16 -23 -16 -64zM481 1219q0 -55 39 -94.5t94 -39.5q57 0 96.5 39t39.5 95q0 57 -39 96t-97 39q-55 0 -94 -39t-39 -96z" />
<glyph unicode="&#xe6;" d="M104 276v84q0 137 89 218q86 80 223 79h98v127q0 47 -29 72q-29 23 -69 23q-39 0 -68 -23q-29 -25 -29 -72v-55h-215v62q0 137 89 217q88 78 223 77q68 0 117 -20.5t90 -54.5q37 35 88 55q49 20 116 20q135 0 226 -77q86 -80 86 -217v-342h-410v-168q0 -47 29 -70 q29 -25 67 -25q43 0 70 25q29 23 29 68v57h215v-62q0 -139 -86 -215q-90 -80 -226 -79q-68 0 -116 20q-51 20 -88 55q-41 -35 -90 -55t-117 -20q-137 0 -223 79q-88 80 -89 217zM319 281q0 -47 29 -70q29 -25 68 -25q43 0 69 25q29 23 29 68v170h-98q-39 0 -68 -23 q-29 -25 -29 -72v-73zM729 657h195v127q0 47 -29 72q-29 23 -70 23q-39 0 -67 -23q-29 -25 -29 -72v-127z" />
<glyph unicode="&#xe7;" d="M190 418v229q0 131 43 217q43 84 109 133q61 47 143 70q76 18 146 18q61 0 139 -16q70 -18 135 -61q61 -41 109 -117q47 -74 55 -186h-219q-14 88 -74 131q-57 43 -145 43q-102 0 -162 -58q-63 -57 -63 -178v-221q0 -121 63 -178q59 -57 162 -58q86 0 145 43 q62 45 76 131h217q-8 -113 -55 -186q-47 -76 -109 -117q-66 -43 -135 -61q-78 -16 -139 -16q-70 0 -146 18q-82 23 -143 70q-66 51 -109 135t-43 215zM408 -274h172v172h102v-275h-274v103z" />
<glyph unicode="&#xe8;" d="M184 418v229q0 131 43 217q43 84 109 133q61 47 143 70q76 18 146 18q72 0 147 -18q80 -23 141 -70q66 -49 109 -133q43 -86 43 -217v-190h-666v-35q0 -121 64 -178q60 -58 162 -58q80 0 137 37q57 39 78 113h219q-16 -106 -60 -174q-45 -68 -106 -109q-72 -43 -133 -57 q-76 -16 -135 -16q-68 0 -146 18q-82 23 -143 70q-66 51 -109 135t-43 215zM338 1346l27 98l546 -150l-26 -98zM399 647h451v2q-2 117 -64 174q-65 56 -161 56q-100 0 -162 -56q-63 -57 -64 -174v-2z" />
<glyph unicode="&#xe9;" d="M184 418v229q0 131 43 217q43 84 109 133q61 47 143 70q76 18 146 18q72 0 147 -18q80 -23 141 -70q66 -49 109 -133q43 -86 43 -217v-190h-666v-35q0 -121 64 -178q60 -58 162 -58q80 0 137 37q57 39 78 113h219q-16 -106 -60 -174q-45 -68 -106 -109q-72 -43 -133 -57 q-76 -16 -135 -16q-68 0 -146 18q-82 23 -143 70q-66 51 -109 135t-43 215zM338 1294l547 150l26 -98l-546 -150zM399 647h451v2q-2 117 -64 174q-65 56 -161 56q-100 0 -162 -56q-63 -57 -64 -174v-2z" />
<glyph unicode="&#xea;" d="M184 418v229q0 131 43 217q43 84 109 133q61 47 143 70q76 18 146 18q72 0 147 -18q80 -23 141 -70q66 -49 109 -133q43 -86 43 -217v-190h-666v-35q0 -121 64 -178q60 -58 162 -58q80 0 137 37q57 39 78 113h219q-16 -106 -60 -174q-45 -68 -106 -109q-72 -43 -133 -57 q-76 -16 -135 -16q-68 0 -146 18q-82 23 -143 70q-66 51 -109 135t-43 215zM293 1286l332 158l331 -158l-43 -90l-288 137l-289 -137zM399 647h451v2q-2 117 -64 174q-65 56 -161 56q-100 0 -162 -56q-63 -57 -64 -174v-2z" />
<glyph unicode="&#xeb;" d="M184 418v229q0 131 43 217q43 84 109 133q61 47 143 70q76 18 146 18q72 0 147 -18q80 -23 141 -70q66 -49 109 -133q43 -86 43 -217v-190h-666v-35q0 -121 64 -178q60 -58 162 -58q80 0 137 37q57 39 78 113h219q-16 -106 -60 -174q-45 -68 -106 -109q-72 -43 -133 -57 q-76 -16 -135 -16q-68 0 -146 18q-82 23 -143 70q-66 51 -109 135t-43 215zM305 1243v156h156v-156h-156zM399 647h451v2q-2 117 -64 174q-65 56 -161 56q-100 0 -162 -56q-63 -57 -64 -174v-2zM788 1243v156h156v-156h-156z" />
<glyph unicode="&#xec;" d="M150 0v207h372v643h-270v207h485v-850h373v-207h-960zM342 1346l27 98l546 -150l-26 -98z" />
<glyph unicode="&#xed;" d="M150 0v207h372v643h-270v207h485v-850h373v-207h-960zM342 1294l547 150l26 -98l-546 -150z" />
<glyph unicode="&#xee;" d="M150 0v207h372v643h-270v207h485v-850h373v-207h-960zM297 1286l332 158l332 -158l-43 -90l-289 137l-289 -137z" />
<glyph unicode="&#xef;" d="M150 0v207h372v643h-270v207h485v-850h373v-207h-960zM309 1243v156h156v-156h-156zM793 1243v156h155v-156h-155z" />
<glyph unicode="&#xf0;" d="M182 418v229q0 125 41 211q39 80 105 133q63 51 137 72q66 18 141 22l-82 113h-241v88h176l-107 148h258l107 -148h184v-88h-119l189 -260q39 -49 67 -121q25 -72 25 -170v-229q0 -131 -43 -215t-109 -135q-61 -47 -141 -70q-78 -18 -147 -18q-70 0 -146 18 q-82 23 -143 70q-66 51 -109 135t-43 215zM397 422q0 -121 64 -178q59 -57 162 -58q100 0 163 58q62 59 62 178v221q0 119 -62 178q-63 57 -163 58q-102 0 -162 -58q-63 -57 -64 -178v-221z" />
<glyph unicode="&#xf1;" d="M186 0v1057h215v-92q14 27 37 45q18 18 56 39q43 20 73 26q45 10 80 10q63 0 144 -22q74 -23 135 -74q63 -53 102 -135q39 -80 39 -207v-647h-215v643q0 119 -61 178q-63 55 -164 55.5t-162 -55.5q-63 -57 -64 -178v-643h-215zM276 1292l273 146l162 -117l219 117l47 -88 l-272 -146l-162 117l-219 -117z" />
<glyph unicode="&#xf2;" d="M182 418v229q0 131 43 217q43 84 109 133q61 47 143 70q78 18 146 18q70 0 147 -18q80 -23 141 -70q66 -49 109 -133q43 -86 43 -217v-229q0 -131 -43 -215t-109 -135q-61 -47 -141 -70q-78 -18 -147 -18q-70 0 -146 18q-82 23 -143 70q-66 51 -109 135t-43 215z M336 1346l26 98l547 -150l-26 -98zM397 422q0 -121 64 -178q59 -57 162 -58q100 0 163 58q62 59 62 178v221q0 119 -62 178q-63 57 -163 58q-102 0 -162 -58q-63 -57 -64 -178v-221z" />
<glyph unicode="&#xf3;" d="M182 418v229q0 131 43 217q43 84 109 133q61 47 143 70q78 18 146 18q70 0 147 -18q80 -23 141 -70q66 -49 109 -133q43 -86 43 -217v-229q0 -131 -43 -215t-109 -135q-61 -47 -141 -70q-78 -18 -147 -18q-70 0 -146 18q-82 23 -143 70q-66 51 -109 135t-43 215z M336 1294l547 150l26 -98l-547 -150zM397 422q0 -121 64 -178q59 -57 162 -58q100 0 163 58q62 59 62 178v221q0 119 -62 178q-63 57 -163 58q-102 0 -162 -58q-63 -57 -64 -178v-221z" />
<glyph unicode="&#xf4;" d="M182 418v229q0 131 43 217q43 84 109 133q61 47 143 70q78 18 146 18q70 0 147 -18q80 -23 141 -70q66 -49 109 -133q43 -86 43 -217v-229q0 -131 -43 -215t-109 -135q-61 -47 -141 -70q-78 -18 -147 -18q-70 0 -146 18q-82 23 -143 70q-66 51 -109 135t-43 215z M291 1286l332 158l331 -158l-43 -90l-288 137l-289 -137zM397 422q0 -121 64 -178q59 -57 162 -58q100 0 163 58q62 59 62 178v221q0 119 -62 178q-63 57 -163 58q-102 0 -162 -58q-63 -57 -64 -178v-221z" />
<glyph unicode="&#xf5;" d="M182 418v229q0 131 43 217q43 84 109 133q61 47 143 70q78 18 146 18q70 0 147 -18q80 -23 141 -70q66 -49 109 -133q43 -86 43 -217v-229q0 -131 -43 -215t-109 -135q-61 -47 -141 -70q-78 -18 -147 -18q-70 0 -146 18q-82 23 -143 70q-66 51 -109 135t-43 215z M272 1292l273 146l162 -117l219 117l47 -88l-273 -146l-161 117l-220 -117zM397 422q0 -121 64 -178q59 -57 162 -58q100 0 163 58q62 59 62 178v221q0 119 -62 178q-63 57 -163 58q-102 0 -162 -58q-63 -57 -64 -178v-221z" />
<glyph unicode="&#xf6;" d="M182 418v229q0 131 43 217q43 84 109 133q61 47 143 70q78 18 146 18q70 0 147 -18q80 -23 141 -70q66 -49 109 -133q43 -86 43 -217v-229q0 -131 -43 -215t-109 -135q-61 -47 -141 -70q-78 -18 -147 -18q-70 0 -146 18q-82 23 -143 70q-66 51 -109 135t-43 215z M303 1243v156h156v-156h-156zM397 422q0 -121 64 -178q59 -57 162 -58q100 0 163 58q62 59 62 178v221q0 119 -62 178q-63 57 -163 58q-102 0 -162 -58q-63 -57 -64 -178v-221zM786 1243v156h156v-156h-156z" />
<glyph unicode="&#xf7;" d="M217 528v93h811v-93h-811zM537 168q0 35 26 61q25 25 60 25q33 0 61 -25q25 -29 25 -61q0 -35 -25 -59q-27 -27 -61.5 -27t-59.5 27q-26 24 -26 59zM537 981q0 35 26 61q25 25 60 25q33 0 61 -25q25 -27 25 -61q0 -35 -25 -59q-27 -27 -61.5 -27t-59.5 27q-26 24 -26 59z " />
<glyph unicode="&#xf8;" d="M182 418v229q0 131 43 217q43 84 109 133q61 47 143 70q78 18 146 18q57 0 120 -12q70 -16 121 -47l64 107l76 -48l-66 -110q57 -55 90 -131q35 -82 35 -197v-229q0 -131 -43 -215t-109 -135q-61 -47 -141 -70q-78 -18 -147 -18q-59 0 -121 12q-70 16 -123 47l-64 -107 l-75 48l65 110q-57 57 -88 131q-35 82 -35 197zM397 422q0 -78 29 -131l330 553q-59 35 -133 35q-102 0 -162 -58q-64 -57 -64 -178v-221zM487 221q59 -35 136 -35q100 0 163 58q62 59 62 178v221q0 43 -8 74q-10 37 -23 57z" />
<glyph unicode="&#xf9;" d="M184 418v639h215v-635q0 -121 62 -176q59 -57 157.5 -57.5t157.5 57.5q61 55 62 176v635h215v-1057h-215v100q-14 -25 -35 -45q-31 -27 -58 -39q-45 -20 -71 -26q-45 -10 -82 -10q-68 0 -139 24q-74 25 -133.5 78t-96.5 137q-39 80 -39 199zM334 1346l26 98l547 -150 l-26 -98z" />
<glyph unicode="&#xfa;" d="M184 418v639h215v-635q0 -121 62 -176q59 -57 157.5 -57.5t157.5 57.5q61 55 62 176v635h215v-1057h-215v100q-14 -25 -35 -45q-31 -27 -58 -39q-45 -20 -71 -26q-45 -10 -82 -10q-68 0 -139 24q-74 25 -133.5 78t-96.5 137q-39 80 -39 199zM334 1294l547 150l26 -98 l-547 -150z" />
<glyph unicode="&#xfb;" d="M184 418v639h215v-635q0 -121 62 -176q59 -57 157.5 -57.5t157.5 57.5q61 55 62 176v635h215v-1057h-215v100q-14 -25 -35 -45q-31 -27 -58 -39q-45 -20 -71 -26q-45 -10 -82 -10q-68 0 -139 24q-74 25 -133.5 78t-96.5 137q-39 80 -39 199zM289 1286l332 158l331 -158 l-43 -90l-288 137l-289 -137z" />
<glyph unicode="&#xfc;" d="M184 418v639h215v-635q0 -121 62 -176q59 -57 157.5 -57.5t157.5 57.5q61 55 62 176v635h215v-1057h-215v100q-14 -25 -35 -45q-31 -27 -58 -39q-45 -20 -71 -26q-45 -10 -82 -10q-68 0 -139 24q-74 25 -133.5 78t-96.5 137q-39 80 -39 199zM301 1243v156h156v-156h-156z M784 1243v156h156v-156h-156z" />
<glyph unicode="&#xfd;" d="M135 1057h223l265 -752l264 752h223l-469 -1301q-47 -133 -233 -133h-144v207h76q33 0 61 4q20 2 37 16q14 14 23 33q20 49 22 54l29 77zM336 1294l547 150l26 -98l-547 -150z" />
<glyph unicode="&#xfe;" d="M190 -377v1811h216v-469q14 27 36 45q18 18 56 39q43 20 73 26q45 10 80 10q63 0 144 -22q74 -23 135 -74q63 -53 102 -135q39 -80 39 -207v-229q0 -125 -39 -205q-39 -82 -102 -135q-66 -55 -135 -76q-80 -23 -144 -22q-35 0 -80 10q-31 6 -73 26q-31 14 -56 39 q-23 20 -36 45v-477h-216zM406 422q0 -121 63 -176q59 -57 162 -58q100 0 164 58q61 55 61 176v221q0 119 -61 178q-66 55 -164 56q-100 0 -162 -56q-63 -57 -63 -178v-221z" />
<glyph unicode="&#xff;" d="M135 1057h223l265 -752l264 752h223l-469 -1301q-47 -133 -233 -133h-144v207h76q33 0 61 4q20 2 37 16q14 14 23 33q20 49 22 54l29 77zM303 1243v156h156v-156h-156zM786 1243v156h156v-156h-156z" />
<glyph unicode="&#x152;" d="M109 506v422q0 117 36.5 211t104.5 157q70 66 164 103q98 35 209 35h546v-217h-327v-386h184v-217h-184v-397h327v-217h-546q-115 0 -209 37q-94 33 -164 100q-68 63 -105 160q-37 92 -36 209zM328 506q0 -78 26 -129q25 -57 68 -90q41 -37 94 -54q55 -16 107 -16v1000 q-51 0 -107 -17q-53 -18 -94 -53q-41 -33 -68 -88q-26 -53 -26 -131v-422z" />
<glyph unicode="&#x153;" d="M106 276v515q0 137 89 217q88 77 223 77q70 0 119 -20q51 -20 88 -55q37 35 88 55q49 20 116 20q135 0 226 -77q86 -80 86 -217v-342h-410v-168q0 -47 29 -70q27 -25 67 -25q41 0 70 25q29 23 29 68v57h215v-62q0 -139 -86 -215q-88 -80 -226 -79q-68 0 -116 20 q-51 20 -88 55q-37 -35 -88 -55q-49 -20 -119 -20q-137 0 -223 79q-88 80 -89 217zM322 281q0 -47 28 -70q27 -25 68 -25t69 25q29 23 29 68v505q0 47 -29 72q-29 23 -69 23q-39 0 -68 -23q-29 -25 -28 -72v-503zM731 657h195v127q0 47 -29 72q-29 23 -70 23q-39 0 -67 -23 q-29 -25 -29 -72v-127z" />
<glyph unicode="&#x178;" d="M8 1434h242l373 -660l372 660h242l-506 -887v-547h-219v547zM303 1559v155h156v-155h-156zM786 1559v155h156v-155h-156z" />
<glyph unicode="&#x2c6;" d="M291 1286l332 158l331 -158l-43 -90l-288 137l-289 -137z" />
<glyph unicode="&#x2dc;" d="M272 1292l273 146l162 -117l219 117l47 -88l-273 -146l-161 117l-220 -117z" />
<glyph unicode="&#x2000;" horiz-adv-x="901" />
<glyph unicode="&#x2001;" horiz-adv-x="1802" />
<glyph unicode="&#x2002;" horiz-adv-x="901" />
<glyph unicode="&#x2003;" horiz-adv-x="1802" />
<glyph unicode="&#x2004;" horiz-adv-x="600" />
<glyph unicode="&#x2005;" horiz-adv-x="450" />
<glyph unicode="&#x2006;" horiz-adv-x="300" />
<glyph unicode="&#x2007;" horiz-adv-x="300" />
<glyph unicode="&#x2008;" horiz-adv-x="225" />
<glyph unicode="&#x2009;" horiz-adv-x="360" />
<glyph unicode="&#x200a;" horiz-adv-x="100" />
<glyph unicode="&#x2010;" d="M326 528v93h594v-93h-594z" />
<glyph unicode="&#x2011;" d="M326 528v93h594v-93h-594z" />
<glyph unicode="&#x2012;" d="M326 528v93h594v-93h-594z" />
<glyph unicode="&#x2013;" d="M217 528v93h811v-93h-811z" />
<glyph unicode="&#x2014;" d="M152 528v93h940v-93h-940z" />
<glyph unicode="&#x2018;" d="M485 995l179 449l94 -39l-178 -449z" />
<glyph unicode="&#x2019;" d="M485 995l179 449l94 -39l-178 -449z" />
<glyph unicode="&#x201a;" d="M485 -205l179 449l94 -39l-178 -449z" />
<glyph unicode="&#x201c;" d="M260 995l178 449l94 -39l-178 -449zM715 995l178 449l94 -39l-178 -449z" />
<glyph unicode="&#x201d;" d="M260 995l178 449l94 -39l-178 -449zM715 995l178 449l94 -39l-178 -449z" />
<glyph unicode="&#x201e;" d="M258 -205l178 449l94 -39l-178 -449zM715 -205l178 449l94 -39l-178 -449z" />
<glyph unicode="&#x2022;" d="M279 610.5q0 73.5 26 134.5q29 63 74 109q47 47 110 74q59 27 133 26.5t136 -26.5q63 -29 108 -74t74 -109q27 -61 27 -134.5t-27 -133.5q-27 -63 -74 -110q-45 -45 -108 -74q-61 -27 -135 -27t-134 27q-63 27 -110 74t-74 110q-26 60 -26 133.5z" />
<glyph unicode="&#x2026;" d="M98 0v215h215v-215h-215zM514 0v215h215v-215h-215zM930 0v215h215v-215h-215z" />
<glyph unicode="&#x202f;" horiz-adv-x="360" />
<glyph unicode="&#x2039;" d="M313 528l430 430l66 -63l-367 -367l367 -366l-66 -64z" />
<glyph unicode="&#x203a;" d="M436 162l367 366l-367 367l66 63l430 -430l-430 -430z" />
<glyph unicode="&#x205f;" horiz-adv-x="450" />
<glyph unicode="&#x20ac;" d="M20 563v88h144v133h-144v88h144v76q0 117 37 211t104 158q70 66 164 102q98 35 209 35q113 0 203 -33q90 -35 157 -92q68 -66 107 -147q39 -84 45 -193h-215q-6 63 -35 115q-25 43 -70 82q-41 33 -90 47t-102 14q-55 0 -108.5 -18.5t-96.5 -55t-67 -92.5 q-27 -55 -27 -133v-76h493v-88h-493v-133h493v-88h-493v-78q0 -78 27 -131q25 -57 67.5 -94t96 -55.5t108.5 -18.5q47 0 102.5 16.5t89.5 47.5q43 33 70 80q29 51 35 114h215q-6 -109 -45 -192.5t-107 -145.5q-66 -59 -157 -94q-90 -33 -203 -32q-113 0 -209 36 q-94 33 -164 101q-68 63 -104 159q-37 92 -37 209v78h-144z" />
<glyph unicode="&#x2122;" d="M33 1274v160h557v-160h-195v-543h-170v543h-192zM655 731v703h150l129 -334l129 334h149v-703h-159v389l-74 -200h-90l-74 200v-389h-160z" />
<glyph unicode="&#x25fc;" horiz-adv-x="1054" d="M0 0v1055h1055v-1055h-1055z" />
</font>
</defs>
</svg>
