<?xml version="1.0" standalone="no"?>
<!DOCTYPE svg PUBLIC "-//W3C//DTD SVG 1.1//EN" "http://www.w3.org/Graphics/SVG/1.1/DTD/svg11.dtd" >
<svg xmlns="http://www.w3.org/2000/svg" xmlns:xlink="http://www.w3.org/1999/xlink" version="1.1">
<metadata></metadata>
<defs>
<font id="smrregular" horiz-adv-x="1245" >
<font-face units-per-em="2048" ascent="1638" descent="-410" />
<missing-glyph horiz-adv-x="500" />
<glyph unicode="&#xfb01;" d="M98 909v148h150v125q0 68 12 116q10 45 41 78q27 27 78 43q43 14 121 15h162v-148h-162q-55 0 -76 -20q-23 -23 -23 -72v-137h674v-1057h-153v909h-521v-909h-153v909h-150zM870 1208v226h226v-226h-226z" />
<glyph unicode="&#xfb02;" d="M98 909v148h150v125q0 68 12 116q10 45 41 78q27 27 78 43q43 14 121 15h575v-1434h-153v1286h-422q-55 0 -76 -20q-23 -23 -23 -72v-137h261v-148h-261v-909h-153v909h-150z" />
<glyph horiz-adv-x="0" />
<glyph unicode="&#xd;" horiz-adv-x="0" />
<glyph unicode=" " />
<glyph unicode="!" d="M516 0v215h215v-215h-215zM547 471v963h153v-963h-153z" />
<glyph unicode="&#x22;" d="M322 975v459h108v-459h-108zM817 975v459h109v-459h-109z" />
<glyph unicode="#" d="M96 442v93h168l90 364h-166v92h189l110 443h97l-111 -443h432l111 443h96l-111 -443h148v-92h-170l-90 -364h168v-93h-191l-108 -442h-96l108 442h-432l-109 -442h-96l109 442h-146zM360 535h433l90 364h-432z" />
<glyph unicode="$" d="M180 424h154q18 -141 94 -217q74 -80 195 -80q125 0 190 57q66 55 66 170q0 78 -39 148q-41 72 -131 104l-220 82q-137 53 -208 146q-76 94 -76 241q0 68 22 135q20 61 70 117q47 53 114.5 86t166.5 39v186h88v-186q68 -6 131 -35q61 -29 108 -78q49 -53 76 -116 q31 -74 33 -152h-152q-16 117 -78 176q-66 59 -161 60q-72 0 -121 -19q-51 -18 -82 -49q-31 -27 -47 -72q-14 -41 -15 -90q0 -55 14.5 -92t37 -65.5t53.5 -47.5q33 -18 63 -30l228 -84q139 -53 209 -158q70 -106 69 -246q0 -78 -20 -139q-20 -63 -66 -115q-47 -51 -115 -80 q-68 -33 -165 -38v-187h-88v187q-88 6 -154 41q-70 33 -121 90q-55 61 -84 137q-33 74 -39 174z" />
<glyph unicode="%" d="M111 1161q0 55 22 111q23 51 60 90q43 41 90 59q51 23 108 23q55 0 111 -23q47 -18 90 -59q41 -43 59 -90q23 -55 23 -111q0 -57 -23 -108q-18 -47 -59 -90q-39 -37 -90 -60q-55 -23 -111 -22q-57 0 -108.5 22.5t-89.5 59.5q-37 37 -60 90q-22 51 -22 108zM145 307 l889 891l66 -65l-889 -891zM238 1161q0 -66 45 -110q43 -45 108.5 -45t110.5 45t45 110q0 68 -45 113t-110.5 45t-108.5 -45q-45 -45 -45 -113zM571 270q0 55 23 111q20 53 59 90q43 41 90 59q51 23 109 23q55 0 111 -23q47 -18 90 -59q41 -43 59 -90q23 -55 23 -111 q0 -57 -23 -108q-18 -47 -59 -90q-37 -39 -90 -60q-55 -23 -111 -22q-57 0 -109 22q-51 20 -90 60q-39 37 -59 90q-23 51 -23 108zM698 270q0 -66 45 -110q43 -45 109 -45t111 45t45 110q0 68 -45 113t-111 45t-109 -45q-45 -45 -45 -113z" />
<glyph unicode="&#x26;" d="M90 403q0 131 70 234q72 106 182 154q74 35 162 36l-258 459v148h692v-148h-520l456 -811l158 279l129 -74l-200 -358l143 -256l-129 -76l-105 184q-59 -90 -149 -141q-92 -53 -207 -53q-92 0 -164 34q-80 35 -135 90.5t-90 135t-35 163.5zM244 403.5q0 -59.5 20 -106.5 q23 -51 58 -88q33 -37 86 -59q51 -23 106 -23q102 0 172 59.5t102 135.5l-194 346q-37 12 -80 12q-59 0 -106.5 -20.5t-85.5 -59.5q-35 -39 -58 -88q-20 -49 -20 -108.5z" />
<glyph unicode="'" d="M567 975v459h109v-459h-109z" />
<glyph unicode="(" d="M512 23v1200q0 45 10 90q8 39 33 65q23 25 68 41q41 14 108 15h242v-86h-242q-82 0 -106.5 -31t-24.5 -94v-1200q0 -63 24.5 -94t106.5 -31h242v-86h-242q-68 0 -108 14q-45 16 -68 41q-25 27 -33 65q-10 46 -10 91z" />
<glyph unicode=")" d="M272 -102h242q82 0 106.5 30.5t24.5 94.5v1200q0 63 -24.5 94t-106.5 31h-242v86h242q68 0 109 -15q45 -16 67 -41q27 -31 35 -65.5t8 -89.5v-1200q0 -55 -8 -90t-35 -66q-23 -25 -67 -41q-41 -14 -109 -14h-242v86z" />
<glyph unicode="*" d="M233 1116l27 88l315 -102v332h93v-332l315 102l27 -88l-316 -102l197 -269l-76 -51l-192 269l-195 -269l-76 51l197 269z" />
<glyph unicode="+" d="M217 528v93h361v358h92v-358h358v-93h-358v-360h-92v360h-361z" />
<glyph unicode="," d="M276 -227l418 415l113 -112l-418 -416z" />
<glyph unicode="-" d="M326 528v93h594v-93h-594z" />
<glyph unicode="." d="M516 0v215h215v-215h-215z" />
<glyph unicode="/" d="M102 43l967 1401l76 -53l-967 -1401z" />
<glyph unicode="0" d="M209 393v647q0 88 33 162q35 76 90 131q53 55 131 88q72 33 160 33t161 -33q74 -35 131 -88q53 -57 89 -131q32 -74 32 -162v-647q0 -88 -32 -160q-33 -76 -89 -133q-57 -53 -131 -88q-74 -33 -161.5 -32.5t-159.5 32.5q-78 33 -131 88q-57 55 -90 133q-33 72 -33 160z M362 391q0 -57 21 -100q23 -51 55 -84q35 -37 82 -60q43 -20 102.5 -20t102.5 20q47 23 82 60q33 37 55 86q20 43 21 100v520zM362 522l521 522q0 57 -21 101q-23 49 -55 84q-41 37 -84 57.5t-100 20.5q-59 0 -103 -21q-47 -23 -82 -59q-33 -35 -55 -84q-20 -47 -21 -103 v-518z" />
<glyph unicode="1" d="M207 0v147h373v1076l-226 -226l-104 107l330 330h153v-1287h373v-147h-899z" />
<glyph unicode="2" d="M213 0v147l549 625q55 61 90 123q35 66 35 145q0 55 -21 103q-23 49 -55 84q-35 37 -82 59q-43 20 -102.5 20.5t-102.5 -20.5q-47 -23 -82 -59q-33 -35 -55 -84q-20 -47 -20 -103q0 -63 28 -116q27 -56 74 -93l-100 -114q-74 61 -113 141q-43 84 -43 182q0 88 33 162 q35 76 90 131q53 55 131 88q72 33 160 33t161 -33q74 -35 132 -88q53 -57 88 -131q33 -74 32 -162q0 -55 -10 -106q-14 -53 -33 -90q-20 -43 -53 -84q-43 -53 -74 -90l-458 -523h628v-147h-827z" />
<glyph unicode="3" d="M190 393h154q0 -57 21 -100q20 -49 55 -86q31 -33 82 -57q49 -23 102 -23t103 23q51 25 81 57q35 37 56 86q20 43 20 100q0 53 -18 99q-25 53 -53 83q-37 37 -80 58q-45 23 -99 24h-10v148q53 0 96 20.5t78 55.5q33 33 53 77q18 45 18.5 96.5t-18.5 96.5q-23 49 -53 80 q-35 35 -78 55.5t-96 20.5t-96 -20.5t-78 -55.5q-33 -33 -51 -80q-18 -45 -19 -96h-153q0 82 31 155q31 76 86 127q51 51 125 86q72 31 155 31q82 0 156 -31q76 -35 127 -86t86 -127q31 -74 31 -155q0 -104 -46 -187q-49 -88 -120 -137q84 -59 131 -145q49 -90 49 -193 q0 -88 -33 -160q-35 -78 -88 -131q-55 -55 -131 -90q-74 -33 -162 -32.5t-160 32.5q-78 35 -131 90q-55 53 -90 131q-33 72 -33 160z" />
<glyph unicode="4" d="M117 387v148l665 909l119 -88l-602 -821h475v323h154v-323h149v-148h-149v-387h-154v387h-657z" />
<glyph unicode="5" d="M203 393h153q0 -57 21 -100q20 -49 55 -86q31 -33 82 -57q49 -23 102.5 -23t102.5 23q51 25 82 57q35 37 55 86q20 43 21 100v103q0 55 -21 102q-23 49 -55 84q-35 37 -82 59q-43 20 -103 21q-76 0 -141 -43q-63 -45 -94 -111l-160 94l160 732h569v-148h-442l-98 -446 q35 29 90 49q53 20 127 20q84 0 155 -32q74 -35 127 -89q53 -57 88 -131q33 -74 33 -161v-103q0 -88 -33 -160q-33 -78 -88 -131q-55 -55 -131 -90q-74 -33 -162 -32.5t-159 32.5q-78 35 -131 90q-55 53 -90 131q-33 72 -33 160z" />
<glyph unicode="6" d="M182 393v103q0 66 23 133q25 68 59 114l514 701l119 -88l-328 -449q6 2 27 2q88 0 162 -32q74 -35 131 -89q53 -57 88 -131q33 -73 33 -161v-103q0 -88 -33 -160q-33 -78 -88 -131q-55 -55 -131 -90q-74 -33 -162 -32.5t-160 32.5q-78 35 -131 90q-55 53 -90 131 q-33 72 -33 160zM336 393q0 -57 20 -100q20 -49 56 -86q31 -33 82 -57q49 -23 102 -23t102 23q51 25 82 57q35 37 56 86q20 43 20 100v103q0 55 -20 102q-23 49 -56 84q-35 37 -82 59q-43 20 -102 20.5t-102 -20.5q-47 -23 -82 -59q-33 -35 -56 -84q-20 -47 -20 -102v-103z " />
<glyph unicode="7" d="M215 1049v385h815v-148l-457 -1296l-139 49l438 1247h-503v-237h-154z" />
<glyph unicode="8" d="M209 393q0 106 49 197q49 88 131 143q-74 49 -119 137q-45 83 -45 185q0 82 31 155q31 76 86 127q51 51 125 86q72 31 156 31q82 0 155 -31q76 -35 127 -86t86 -127q31 -74 31 -155q0 -104 -45 -187q-47 -86 -123 -137q80 -53 133 -143q49 -90 49 -195q0 -88 -32 -160 q-33 -78 -89 -131q-55 -55 -131 -90q-74 -33 -161.5 -32.5t-159.5 32.5q-78 35 -131 90q-55 53 -90 131q-33 72 -33 160zM362 393q0 -57 21 -100q23 -49 55 -86q31 -33 82 -57q49 -23 102.5 -23t102.5 23q51 25 82 57q33 37 55 86q20 43 21 100q0 55 -21 103q-23 49 -55 84 q-35 37 -82 59q-43 20 -102.5 20t-102.5 -20q-47 -23 -82 -59q-33 -35 -55 -84q-21 -48 -21 -103zM379 1055q0 -51 18.5 -96.5t51.5 -77.5q35 -35 77.5 -55.5t96 -20.5t96.5 20.5t78 55.5q31 33 53 77q18 46 18 97t-18 96q-23 49 -53 80q-35 35 -78 55.5t-96.5 20.5 t-96.5 -20.5t-77 -55.5q-33 -33 -52 -80q-18 -45 -18 -96z" />
<glyph unicode="9" d="M236 938v102q0 88 32 162q35 76 90.5 131.5t130.5 87.5q72 33 160 33t162 -33q74 -35 131 -88q53 -57 88 -131q33 -74 33 -162v-102q0 -72 -21 -131q-23 -66 -61 -117l-514 -700l-119 88l328 448q-6 -2 -27 -2q-88 0 -160 33q-78 35 -131 90q-55 53 -90 131 q-32 72 -32 160zM389 938q0 -57 21 -100q20 -49 55 -86q31 -33 82 -58q49 -23 102 -22.5t103 22.5q51 25 82 58q35 37 55 86q20 43 20 100v102q0 55 -20 103q-23 49 -55 84q-35 37 -82 59q-43 20 -102.5 20.5t-102.5 -20.5q-47 -23 -82 -59q-33 -35 -55 -84 q-21 -48 -21 -103v-102z" />
<glyph unicode=":" d="M516 0v215h215v-215h-215zM516 686v215h215v-215h-215z" />
<glyph unicode=";" d="M201 -227l417 415l113 -112l-418 -416zM516 686v215h215v-215h-215z" />
<glyph unicode="&#x3c;" d="M301 532l553 553l66 -63l-490 -490l490 -489l-66 -63z" />
<glyph unicode="=" d="M217 319v93h811v-93h-811zM217 717v92h811v-92h-811z" />
<glyph unicode="&#x3e;" d="M326 43l489 489l-489 490l65 63l553 -553l-553 -552z" />
<glyph unicode="?" d="M190 1040q0 88 33 162q35 76 90 131q53 55 131 88q72 33 160 33t162 -33q74 -35 131 -88q53 -57 88 -131q33 -74 33 -162q0 -76 -25 -143q-29 -76 -71 -123q-47 -53 -109 -90q-57 -35 -133 -51v-162h-154v305h88q53 2 99 25q47 23 80 57q29 29 53 82q18 47 18 100 q0 57 -20 105q-23 49 -56 84q-33 33 -81 55q-43 20 -102.5 20.5t-102.5 -20.5q-49 -23 -82 -55q-33 -35 -55 -84q-20 -47 -21 -105h-154zM498 0v215h215v-215h-215z" />
<glyph unicode="@" d="M82 143v781q0 117 35 217q37 98 106 168q68 68 170 108q100 37 230 37q127 0 229 -37q102 -39 170 -108q70 -70 106 -168q35 -100 35 -217v-774q0 -84 -47 -127q-49 -43 -121 -43q-70 0 -106 30q-39 29 -51 72q-43 -55 -97 -78q-57 -25 -123 -24q-139 0 -217 79 q-80 76 -79 217v62q0 139 79 219q78 78 217 78h144v153q0 72 -37 111t-106.5 39t-106.5 -39t-37 -111v-55h-153v55q0 139 79 220q78 78 217 77q137 0 220 -77q78 -82 77 -220v-638q0 -37 23 -60q23 -25 57 -24q37 0 60 24q20 20 20 60v774q0 94 -28 180q-31 84 -89 141 q-53 53 -143 90q-80 33 -192.5 33t-192.5 -33q-86 -35 -141 -90q-61 -61 -88 -141q-31 -84 -31 -180v-781q0 -96 31 -180q27 -80 88 -141q55 -55 141 -90q80 -33 193 -33v-86q-129 0 -230 37q-102 39 -170 108q-70 70 -106 168q-35 100 -35 217zM475 276q0 -68 37 -108.5 t106.5 -40.5t106.5 41q37 39 37 108v211h-144q-70 0 -106 -38q-37 -39 -37 -111v-62z" />
<glyph unicode="A" d="M72 0l460 1434h181l461 -1434h-160l-131 403h-521l-131 -403h-159zM410 549h426l-213 665z" />
<glyph unicode="B" d="M184 0v1434h478q113 0 194 -35q78 -35 127 -90q51 -57 71.5 -125t20.5 -144q0 -104 -43 -184q-47 -82 -114 -123q100 -49 145 -141q47 -94 47 -191q0 -78 -20 -145q-20 -72 -72 -129q-49 -57 -127 -92q-82 -35 -195 -35h-512zM342 156h354q115 0 187 65q67 65 67 177 q0 122 -67 186q-70 63 -187 63h-354v-491zM342 803h320q125 0 188 67q65 66 65 170q0 102 -65 172q-66 66 -188 66h-320v-475z" />
<glyph unicode="C" d="M168 465v504q0 111 35 202q35 90 94 154q63 63 147 96q81 33 187 33q98 0 180 -31q84 -31 143 -88q61 -61 97 -139q35 -86 41 -186h-158q-12 141 -96 217q-87 71 -204 71h-3q-66 0 -119 -20.5t-96 -63.5q-43 -41 -66 -102q-24 -59 -24 -137v-6v-504q0 -82 24 -143 q23 -61 66 -103q37 -41 96 -63q53 -20 119 -21q121 0 207 74q84 72 96 215h158q-6 -100 -41 -186q-35 -78 -97 -140q-59 -57 -143 -88q-79 -30 -174 -30h-6q-100 0 -187 34q-90 35 -147 97q-59 59 -94 151t-35 203z" />
<glyph unicode="D" d="M168 0v1434h463q104 0 188 -33t146 -96q63 -66 96 -154q33 -86 33 -203v-463q0 -117 -33 -202q-35 -90 -96 -152q-57 -61 -145.5 -96t-188.5 -35h-463zM326 156h305q66 0 119 20q57 23 98 64t65 102q23 63 23 143v463q0 80 -23 144q-25 61 -65 102q-47 43 -98 63 q-53 20 -119 21h-305v-1122z" />
<glyph unicode="E" d="M236 0v1434h815v-156h-658v-475h514v-156h-514v-491h658v-156h-815z" />
<glyph unicode="F" d="M272 0v1434h815v-156h-657v-475h514v-156h-514v-647h-158z" />
<glyph unicode="G" d="M164 465v504q0 111 35 202q35 90 94 154q63 63 147 96q81 33 187 33q98 0 180 -31q84 -31 143 -88q61 -61 97 -139q35 -86 40 -186h-157q-12 141 -96 217q-87 71 -204 71h-3q-66 0 -119 -20.5t-96 -63.5q-43 -41 -66 -102q-24 -59 -24 -137v-6v-504q0 -82 24 -143 q23 -61 66 -103q37 -41 96 -63q53 -20 118 -20q2 -1 4 -1q63 0 115 21q57 23 98.5 63.5t65.5 102.5q23 63 23 143v141h-305v156h463v-297q0 -117 -33 -203q-33 -90 -96 -151q-57 -61 -145.5 -96t-189 -35t-186.5 34q-90 35 -147 97q-59 59 -94 151t-35 203z" />
<glyph unicode="H" d="M160 0v1434h157v-631h611v631h157v-1434h-157v647h-611v-647h-157z" />
<glyph unicode="I" d="M215 0v156h330v1122h-330v156h817v-156h-330v-1122h330v-156h-817z" />
<glyph unicode="J" d="M139 410h160q14 -133 100 -205q82 -70 201 -70q66 0 119 21q57 23 98 63.5t66 102.5q22 60 22 136v7v813h-659v156h817v-969q0 -117 -33 -203q-35 -90 -96 -151q-57 -61 -146 -97q-80 -34 -182 -34h-6q-96 0 -176 30q-82 27 -141 84q-61 55 -99 135q-35 79 -45 181z" />
<glyph unicode="K" d="M147 0v1434h158v-779l662 779h200l-503 -590l557 -844h-187l-475 721l-254 -299v-422h-158z" />
<glyph unicode="L" d="M250 0v1434h158v-1278h657v-156h-815z" />
<glyph unicode="M" d="M160 0v1434h162l301 -873l301 873h161v-1434h-151v1067l-232 -682h-159l-232 682v-1067h-151z" />
<glyph unicode="N" d="M160 0v1434h157l611 -1129v1129h157v-1434h-157l-611 1128v-1128h-157z" />
<glyph unicode="O" d="M160 465v504q0 111 35 202q35 90 94 154q63 63 147 96q80 33 187 33q104 0 188 -32.5t145 -96.5q63 -66 97 -154q32 -85 32 -202v-504q0 -117 -32 -203q-33 -88 -97 -153q-61 -63 -145 -96t-188 -33q-106 0 -187 32q-84 33 -147 97q-59 63 -94 153q-35 92 -35 203z M317 465q0 -82 25 -143q23 -61 66 -103q37 -41 96 -63q52 -20 118 -20q2 0 4 -1q64 0 115 21q57 23 98.5 63.5t65.5 102.5q23 63 23 143v504q0 80 -23 143q-25 61 -65 102q-47 43 -99 64q-53 20 -118.5 20t-118.5 -20.5t-96 -63.5q-43 -41 -66 -102q-25 -61 -25 -143v-504z " />
<glyph unicode="P" d="M209 0v1434h463q127 0 213 -33q90 -35 143 -90.5t82 -139.5q25 -82 25 -176q0 -96 -25 -176q-29 -80 -82 -137q-55 -59 -143 -92q-86 -33 -213 -33h-305v-557h-158zM367 713h305q80 0 141 22q59 23 92 62q37 41 51 88q17 55 17 110.5t-17 110.5q-14 45 -51 90 q-35 39 -92 59q-61 23 -141 23h-305v-565z" />
<glyph unicode="Q" d="M160 465v504q0 111 35 202q35 90 94 154q63 63 147 96q80 33 187 33q104 0 188 -32.5t145 -96.5q63 -66 97 -154q32 -85 32 -202v-504q0 -174 -79 -293l159 -162l-104 -102l-154 158q-113 -86 -284 -86q-106 0 -187 32q-84 33 -147 97q-59 63 -94 153q-35 92 -35 203z M317 465q0 -82 25 -143q23 -61 66 -103q37 -41 96 -63q53 -20 119 -21q98 0 170 47l-476 486v-203zM317 877l574 -586q18 41 27 78q10 47 10 96v504q0 80 -23 143q-25 61 -65 102q-47 43 -99 64q-53 20 -118.5 20t-118.5 -20.5t-96 -63.5q-43 -41 -66 -102q-25 -61 -25 -143 v-92z" />
<glyph unicode="R" d="M201 0v1434h487q113 0 195 -35q78 -35 127 -90q51 -57 71.5 -125t20.5 -144q0 -66 -19 -129q-18 -68 -57 -116q-41 -53 -104 -90q-63 -39 -156 -52l383 -653h-182l-381 649h-228v-649h-157zM358 801h330q123 0 189 67q65 70 65 172.5t-65 171.5q-66 66 -189 66h-330v-477 z" />
<glyph unicode="S" d="M160 424h162q18 -139 102 -213q82 -76 201 -76q123 0 198 58q76 55 76 169q0 98 -53 158q-57 61 -178 94l-183 52q-76 20 -137 65q-57 39 -92 96q-39 55 -53 117q-18 63 -19 129q0 90 35 164q33 70 92 119q57 49 135 74q73 24 155 24h7q186 0 299 -98q113 -102 133 -285 h-161q-20 102 -88 166q-66 61 -183 61q-127 0 -196 -65q-68 -66 -68 -160q0 -100 51 -160q51 -63 162 -94l168 -47q152 -43 244 -141q90 -100 90 -269q0 -172 -109 -276q-108 -106 -325 -106q-96 0 -180.5 30.5t-141.5 87.5q-61 57 -98 142q-35 80 -45 184z" />
<glyph unicode="T" d="M160 1278v156h923v-156h-383v-1278h-157v1278h-383z" />
<glyph unicode="U" d="M160 465v969h157v-969q0 -82 25 -143q23 -61 66 -103q37 -41 96 -63q52 -20 118 -20h4q64 0 115 20q57 23 98.5 63.5t65.5 102.5q23 63 23 143v969h157v-969q0 -117 -32 -203q-33 -90 -97 -151q-57 -61 -145 -97q-80 -34 -182 -34h-6q-109 0 -187 34q-90 35 -147 97 q-59 59 -94 151t-35 203z" />
<glyph unicode="V" d="M72 1434h159l392 -1215l391 1215h160l-461 -1434h-181z" />
<glyph unicode="W" d="M61 1434h154l143 -1098l201 893h127l201 -893l143 1098h154l-205 -1434h-141l-215 926l-215 -926h-142z" />
<glyph unicode="X" d="M82 0l434 741l-403 693h174l336 -580l335 580h175l-404 -693l434 -741h-180l-360 623l-361 -623h-180z" />
<glyph unicode="Y" d="M72 1434h172l381 -695l379 695h172l-474 -865v-569h-157v571z" />
<glyph unicode="Z" d="M145 0v156l742 1122h-731v156h915v-156l-741 -1122h751v-156h-936z" />
<glyph unicode="[" d="M512 -188v1622h461v-86h-373v-1450h373v-86h-461z" />
<glyph unicode="\" d="M100 1391l76 53l967 -1401l-76 -53z" />
<glyph unicode="]" d="M272 -102h373v1450h-373v86h461v-1622h-461v86z" />
<glyph unicode="^" d="M70 891l553 553l553 -553l-64 -66l-489 490l-490 -490z" />
<glyph unicode="_" d="M217 -141h811v-92h-811v92z" />
<glyph unicode="`" d="M336 1346l26 98l547 -150l-26 -98z" />
<glyph unicode="a" d="M193 293q0 33 10 84q8 45 37 88q29 45 69 76q43 35 113 55q88 27 205 39q25 2 73 6t89.5 8t82.5 6v19q0 68 -20 117q-18 43 -57 81q-37 33 -84 50q-50 16 -99 16q-92 0 -163 -49q-72 -53 -91 -156h-157q8 94 51 166q41 70 96 111q61 43 127 59q72 16 137 16q78 0 148 -20 q78 -23 133 -70q59 -49 96 -127q37 -80 37 -196v-672h-154v109q-53 -66 -135 -97q-82 -32 -188 -32h-6q-68 0 -131 18q-66 18 -111 57q-49 37 -78 97q-30 55 -30 136v5zM346 297q0 -72 57 -121q55 -49 172 -49q57 0 117 16q55 16 94 50q39 29 64 79q22 50 22 109v137 q-188 -12 -276 -26q-106 -16 -158 -43q-61 -35 -76 -68q-16 -39 -16 -84z" />
<glyph unicode="b" d="M217 0v1434h154v-478q39 63 114 99q72 30 141 30h5q78 0 147 -20q78 -23 133 -70q59 -49 97 -127q36 -78 36 -190v-6v-279q0 -119 -36 -194q-37 -78 -97 -129q-55 -47 -133 -70q-69 -20 -147 -20q-74 0 -146 32q-74 31 -114 97v-109h-154zM371 391q0 -63 22 -115 q20 -51 58 -83q33 -33 82 -49.5t98 -16.5t98 16q47 16 84 50q39 39 57 83q21 47 21 115v283q0 68 -21 117q-18 43 -57 81q-37 33 -84 50q-49 16 -98 16t-98.5 -16.5t-81.5 -49.5q-37 -33 -58 -81q-22 -53 -22 -112v-5v-283z" />
<glyph unicode="c" d="M215 393v279q0 117 37 196q37 78 96 127q55 47 133 70q70 20 148 20q68 0 139 -18q68 -18 129 -59q55 -41 96 -113q37 -66 47 -172h-155q-16 109 -90 162q-76 53 -166 53q-49 0 -98.5 -16.5t-81.5 -49.5q-37 -33 -58 -81q-22 -53 -22 -112v-5v-283q0 -63 22 -115 q20 -51 58 -83q33 -33 82 -49.5t98 -16.5q90 0 166 53q74 53 90 162h155q-10 -106 -47 -172q-41 -74 -96 -111q-57 -43 -129 -61t-139 -18q-78 0 -148 20q-78 23 -133 70q-59 47 -96 126.5t-37 196.5z" />
<glyph unicode="d" d="M201 393v279q0 117 37 196q37 78 96 127q55 47 133 70q70 20 147 20q72 0 146 -30q76 -35 114 -99v478h154v-1434h-154v109q-41 -66 -114 -97q-72 -32 -146 -32q-78 0 -147 20q-78 23 -133 70q-59 51 -96 129q-37 76 -37 194zM354 391q0 -63 23 -115q20 -51 57 -83 q33 -33 82 -49.5t98.5 -16.5t98.5 16q47 16 84 50q39 39 57 83q20 47 20 115v283q0 68 -20 117q-18 43 -57 81q-37 33 -84 50q-49 16 -98.5 16t-98.5 -16.5t-82 -49.5q-37 -33 -57 -81q-23 -56 -23 -117v-283z" />
<glyph unicode="e" d="M211 393v279q0 117 37 196q37 78 96 127q55 47 133 70q70 20 147.5 20t147.5 -20q78 -23 133 -70q59 -49 96 -127q37 -80 37 -196v-178h-673v-103q0 -63 22 -115q20 -51 57 -83q33 -33 82.5 -49.5t98.5 -16.5q94 0 163 51q72 49 91 154h157q-8 -98 -49 -166 q-41 -70 -98 -109q-59 -43 -125 -61q-76 -16 -139 -16q-78 0 -148 20q-78 23 -133 70q-59 51 -96 129q-37 76 -37 194zM365 635h520v39q0 68 -21 117q-18 43 -57 81q-37 33 -84 50q-49 16 -98.5 16t-98.5 -16.5t-82 -49.5q-37 -33 -57 -81q-22 -53 -22 -112v-5v-39z" />
<glyph unicode="f" d="M158 909v148h301v125q0 68 12 116q8 45 41 78q27 27 78 43q43 14 121 15h346v-148h-346q-55 0 -76 -20q-23 -23 -23 -72v-137h445v-148h-445v-909h-153v909h-301z" />
<glyph unicode="g" d="M201 434v238q0 117 37 196q37 78 96 127q55 47 133 70q70 20 147 20q72 0 146 -30q76 -35 114 -99v101h154v-1041q0 -117 -37 -196q-37 -78 -96 -129q-57 -45 -133 -68q-70 -20 -148 -20q-70 0 -139 18q-66 16 -127 60q-59 43 -98 112q-37 66 -47 172h155 q16 -109 91 -162t165 -53q49 0 99 17q47 16 84 49q39 39 57 82q20 49 20 116v136q-41 -66 -114 -97q-72 -33 -146 -33q-78 0 -147 21q-78 23 -133 70q-59 51 -96 129q-37 76 -37 194zM354 432q0 -63 23 -115q20 -51 57 -84q33 -33 82 -49t98.5 -16t98.5 16q47 16 84 49 q39 39 57 84q20 47 20 115v242q0 68 -20 117q-18 43 -57 81q-37 33 -84 50q-49 16 -98.5 16t-98.5 -16.5t-82 -49.5q-37 -33 -57 -81q-23 -56 -23 -117v-242z" />
<glyph unicode="h" d="M213 0v1434h154v-478q39 63 114 99q74 30 146 30q78 0 147 -20q78 -23 133 -70q59 -49 97 -127q36 -78 36 -190v-6v-672h-153v674q0 68 -21 117q-18 43 -57 81q-37 33 -84 50q-49 16 -98 16t-98.5 -16.5t-82.5 -49.5q-37 -33 -57 -81q-22 -53 -22 -112v-5v-674h-154z" />
<glyph unicode="i" d="M180 0v147h373v762h-270v148h424v-910h372v-147h-899zM502 1208v226h225v-226h-225z" />
<glyph unicode="j" d="M139 -229h449q57 0 77.5 20.5t20.5 71.5v1046h-444v148h598v-1182q0 -61 -11 -117q-12 -45 -41 -77q-31 -27 -77 -43q-45 -14 -123 -15h-449v148zM635 1208v226h225v-226h-225z" />
<glyph unicode="k" d="M250 0v1434h153v-877l461 500h191l-381 -414l436 -643h-180l-361 530l-166 -180v-350h-153z" />
<glyph unicode="l" d="M174 0v147h373v1139h-271v148h424v-1287h373v-147h-899z" />
<glyph unicode="m" d="M135 0v1057h154v-58q23 41 63.5 63.5t89.5 22.5q121 0 183 -96q33 41 90 72q49 24 111 24h5q68 0 123 -22q53 -23 90 -62q35 -43 54 -92q18 -53 18 -116v-793h-153v793q0 63 -31 104q-35 41 -98.5 41t-98.5 -41q-33 -39 -33 -104v-793h-153v793q0 63 -31 104 q-35 41 -98.5 41t-97.5 -41q-33 -39 -33 -104v-793h-154z" />
<glyph unicode="n" d="M213 0v1057h154v-101q39 63 114 99q74 30 146 30q78 0 147 -20q78 -23 133 -70q59 -49 97 -127q36 -78 36 -190v-6v-672h-153v674q0 68 -21 117q-18 43 -57 81q-37 33 -84 50q-49 16 -98 16t-98.5 -16.5t-82.5 -49.5q-37 -33 -57 -81q-22 -53 -22 -112v-5v-674h-154z" />
<glyph unicode="o" d="M209 393v279q0 117 37 196q37 78 96 127q55 47 133 70q70 20 147.5 20t147.5 -20q78 -23 133 -70q59 -49 96 -127q37 -79 37 -196v-279q0 -119 -37 -194q-37 -78 -96 -129q-55 -47 -133 -70q-70 -20 -147.5 -20t-147.5 20q-78 23 -133 70q-59 51 -96 129q-37 76 -37 194z M362 391q0 -63 23 -115q20 -51 57 -83q33 -33 82 -49.5t98.5 -16.5t98.5 16q47 16 84 50q39 39 57 83q21 47 21 115v283q0 68 -21 117q-18 43 -57 81q-37 33 -84 50q-49 16 -98.5 16t-98.5 -16.5t-82 -49.5q-37 -33 -57 -81q-23 -55 -23 -117v-283z" />
<glyph unicode="p" d="M217 -377v1434h154v-101q39 63 114 99q72 30 141 30h5q78 0 147 -20q78 -23 133 -70q59 -49 97 -127q36 -78 36 -190v-6v-279q0 -119 -36 -194q-37 -78 -97 -129q-55 -47 -133 -70q-69 -20 -147 -20q-74 0 -146 32q-74 31 -114 97v-486h-154zM371 391q0 -63 22 -115 q20 -51 58 -83q33 -33 82 -49.5t98 -16.5t98 16q47 16 84 50q39 39 57 83q21 47 21 115v283q0 68 -21 117q-18 43 -57 81q-37 33 -84 50q-49 16 -98 16t-98.5 -16.5t-81.5 -49.5q-37 -33 -58 -81q-22 -53 -22 -112v-5v-283z" />
<glyph unicode="q" d="M201 393v279q0 117 37 196q37 78 96 127q55 47 133 70q70 20 147 20q72 0 146 -30q76 -35 114 -99v101h154v-1434h-154v486q-41 -66 -114 -97q-72 -32 -146 -32q-78 0 -147 20q-78 23 -133 70q-59 51 -96 129q-37 76 -37 194zM354 391q0 -63 23 -115q20 -51 57 -83 q33 -33 82 -49.5t98.5 -16.5t98.5 16q47 16 84 50q39 39 57 83q20 47 20 115v283q0 68 -20 117q-18 43 -57 81q-37 33 -84 50q-49 16 -98.5 16t-98.5 -16.5t-82 -49.5q-37 -33 -57 -81q-23 -56 -23 -117v-283z" />
<glyph unicode="r" d="M125 0v147h334v762h-232v148h385v-111q39 63 115 98q74 31 145 31h254v-147h-254q-49 0 -98 -16.5t-82 -49.5q-37 -33 -57 -82q-23 -55 -23 -116v-517h412v-147h-899z" />
<glyph unicode="s" d="M227 338h158q8 -113 86 -162q74 -49 180 -49q111 0 164 41q49 39 53 111q0 51 -28 92q-33 43 -119 63l-207 51q-41 8 -88 31q-49 23 -84 55q-39 33 -63 86q-25 49 -25 121q0 70 29 131q29 55 77 97q41 35 113 59q61 20 137 20q78 0 150 -18q66 -20 119 -61 q49 -43 82 -107q30 -65 36 -151h-157q-16 92 -74 141q-57 49 -158 49q-84 0 -141 -41q-57 -39 -57 -113q0 -63 41 -98t104 -49l199 -49q57 -14 110 -37q49 -25 86 -62q35 -37 56 -88q18 -51 18 -127q0 -80 -27 -133q-27 -57 -77 -92q-55 -39 -119 -53q-76 -16 -150 -16 q-88 0 -157 20q-74 23 -132 63q-59 43 -92 111q-37 68 -43 164z" />
<glyph unicode="t" d="M145 909v148h301v239h154v-239h444v-148h-444v-669q0 -49 23 -72q20 -20 75 -21h346v-147h-346q-78 0 -120 14q-51 16 -78 45q-31 29 -41 78q-12 47 -13 115v657h-301z" />
<glyph unicode="u" d="M211 387v670h154v-660q0 -70 22 -121q20 -47 59 -83q33 -33 80 -50q49 -16 92 -16q45 0 95 16q41 14 82 52q39 39 57 81q20 47 20 115v666h154v-1057h-154v109q-37 -59 -112 -97q-72 -32 -142 -32q-66 0 -137 18q-74 23 -131 68q-59 45 -100 127q-39 76 -39 194z" />
<glyph unicode="v" d="M156 1057h163l304 -858l303 858h164l-381 -1057h-172z" />
<glyph unicode="w" d="M102 1057h152l115 -766l180 602h147l181 -602l114 766h152l-170 -1057h-137l-213 692l-213 -692h-138z" />
<glyph unicode="x" d="M168 0l358 543l-342 514h178l261 -391l260 391h178l-342 -514l358 -543h-174l-280 428l-281 -428h-174z" />
<glyph unicode="y" d="M156 1057h163l304 -858l303 858h164l-480 -1325q-23 -61 -78 -84t-155 -25h-92v148h110q49 0 66 16q18 16 26 45l56 152z" />
<glyph unicode="z" d="M219 0v147l596 762h-582v148h768v-148l-595 -762h610v-147h-797z" />
<glyph unicode="{" d="M360 580v86h21q82 0 106.5 30.5t24.5 94.5v432q0 45 10 90q8 39 33 65q23 25 68 41q41 14 108 15h242v-86h-242q-82 0 -106.5 -31t-24.5 -94v-432q0 -59 -14 -101q-16 -47 -56 -67q39 -25 56 -68q14 -43 14 -100v-432q0 -63 24.5 -94t106.5 -31h242v-86h-242 q-68 0 -108 14q-45 16 -68 41q-25 27 -33 65q-10 45 -10 91v432q0 63 -24.5 94t-106.5 31h-21z" />
<glyph unicode="|" d="M578 -205v1639h88v-1639h-88z" />
<glyph unicode="}" d="M272 -102h242q82 0 106.5 30.5t24.5 94.5v432q0 51 17 100q16 45 53 68q-37 20 -53 67q-16 45 -17 101v432q0 63 -24.5 94t-106.5 31h-242v86h242q68 0 109 -15q45 -16 67 -41q27 -31 35 -65.5t8 -89.5v-432q0 -63 24.5 -94t106.5 -31h21v-86h-21q-82 0 -106.5 -31 t-24.5 -94v-432q0 -55 -8 -90t-35 -66q-23 -25 -67 -41q-41 -14 -109 -14h-242v86z" />
<glyph unicode="~" d="M197 524l325 176l209 -149l277 149l43 -77l-326 -177l-209 150l-276 -150z" />
<glyph unicode="&#xa0;" />
<glyph unicode="&#xa1;" d="M516 842v215h215v-215h-215zM547 -377v963h153v-963h-153z" />
<glyph unicode="&#xa2;" d="M215 393v279q0 109 33 182q29 74 84 125q53 49 116.5 73.5t135.5 30.5v187h88v-187q66 -6 127 -26q55 -18 114 -64q51 -43 86 -108q31 -63 41 -162h-155q-16 109 -90 162q-76 53 -166 53q-49 0 -98.5 -16.5t-81.5 -49.5q-37 -33 -58 -81q-23 -55 -22 -117v-283 q0 -63 22 -115q20 -51 58 -83q33 -33 82 -49.5t98 -16.5q90 0 166 53q74 53 90 162h155q-10 -100 -41 -160q-35 -70 -86 -108q-51 -43 -114 -64q-57 -23 -127 -28v-187h-88v187q-72 6 -135 30q-63 20 -117 72q-55 51 -84 125q-33 74 -33 184z" />
<glyph unicode="&#xa3;" d="M152 0v147h131v527h-131v88h131v278q0 117 36 197q37 78 97 127q55 47 133 70q70 20 147.5 20t147.5 -20q78 -23 133 -70q59 -49 96 -127q37 -80 37 -197h-154v2q0 68 -20 117q-18 43 -57 82q-37 33 -84 49q-49 16 -98.5 16.5t-98.5 -16t-82 -49.5q-37 -33 -57 -82 q-23 -55 -23 -117v-280h520v-88h-520v-527h674v-147h-958z" />
<glyph unicode="&#xa4;" d="M29 164l172 174q-63 72 -97 164q-35 92 -34.5 194.5t34.5 196.5q35 90 97 162l-172 174l63 61l172 -174q70 63 164 98q92 35 194.5 35t196.5 -35q92 -35 162 -98l172 174l64 -61l-175 -174q63 -70 99 -162q35 -94 35 -196.5t-35 -194.5q-35 -94 -99 -164l175 -174 l-64 -62l-172 172q-72 -61 -162 -96q-94 -35 -196.5 -35t-194.5 35q-92 33 -164 96l-172 -172zM217 696q0 -86 33 -157q31 -74 86 -129.5t129 -85.5q72 -33 158 -33t157 33q74 31 129 86q53 53 88 129q31 74 31 157.5t-31 157.5q-35 76 -88 129t-129 88q-74 31 -157.5 31 t-157.5 -31q-76 -35 -129 -88q-55 -55 -86 -129q-33 -72 -33 -158z" />
<glyph unicode="&#xa5;" d="M72 1434h170l383 -699l381 699h170l-428 -775h280v-88h-328v-192h328v-88h-328v-291h-153v291h-328v88h328v192h-328v88h279z" />
<glyph unicode="&#xa6;" d="M580 -205v694h88v-694h-88zM580 739v695h88v-695h-88z" />
<glyph unicode="&#xa7;" d="M195 575q0 109 55 179q53 68 151 102q-55 39 -98 107q-41 66 -41 165q0 70 29 134q29 61 76 102q45 41 112 68q68 23 142 22q150 0 249 -86q100 -90 123 -246h-92q-14 109 -90 178q-74 68 -190 68q-49 0 -99 -16q-45 -14 -84 -47t-59 -76q-25 -45 -25 -101q0 -92 52 -149 q49 -57 126 -86l238 -82q49 -18 90 -37q47 -20 92 -59q43 -37 74 -92q29 -61 29 -140q0 -111 -58 -180q-55 -68 -155 -102q61 -45 102 -113q41 -72 41 -174q0 -61 -18 -119q-18 -53 -60 -98q-37 -41 -108 -70q-70 -25 -168 -24q-88 0 -154 26q-70 29 -115 74q-47 45 -75 111 q-29 63 -37 141h92q12 -119 92 -192.5t197 -73.5q139 0 200 65q61 68 61.5 160t-48.5 160q-49 65 -129 94l-240 82q-51 20 -88 37q-47 20 -92 59t-72 92q-29 57 -28 137zM287 575q0 -49 16 -88q12 -33 45 -65q29 -29 68 -49q31 -16 82 -35l211 -74q47 4 88 15q47 12 82 38 q35 25 61 66q23 41 23 100q0 100 -62 156q-63 57 -149 84l-215 72q-25 -2 -88 -15q-47 -12 -80 -37q-39 -33 -58 -65q-25 -39 -24 -103z" />
<glyph unicode="&#xa8;" d="M303 1243v156h156v-156h-156zM786 1243v156h156v-156h-156z" />
<glyph unicode="&#xa9;" d="M82 510v414q0 117 35 217q37 98 106 168q68 68 170 108q100 37 230 37q127 0 229 -37q102 -39 170 -108q70 -70 106 -168q35 -100 35 -217v-414q0 -117 -35 -217q-37 -98 -106.5 -168t-169.5 -107q-98 -39 -229 -38.5t-230 38.5q-100 37 -169.5 107t-106.5 168 q-35 100 -35 217zM170 510q0 -98 31 -180q25 -76 88 -140q59 -59 141 -92q80 -33 192.5 -32.5t192.5 32.5q86 35 143.5 92.5t88.5 139.5q28 86 28 180v414q0 94 -28 180q-31 84 -89 141q-53 53 -143 90q-80 33 -192.5 33t-192.5 -33q-86 -35 -141 -90q-61 -61 -88 -141 q-31 -84 -31 -180v-414zM309 582v270q0 141 86 223q84 82 228 82q137 0 221 -76q84 -78 92 -204h-139q-8 74 -64 108q-51 33 -110 33q-35 0 -62 -8q-31 -10 -55 -31q-25 -20 -41 -51q-16 -37 -16 -76v-270q0 -43 16 -76q14 -33 41 -53q20 -18 55 -28.5t62 -10.5q57 0 110 35 q55 35 64 108h139q-8 -125 -94 -205q-82 -76 -219 -76q-143 0 -228 82q-86 84 -86 224z" />
<glyph unicode="&#xaa;" d="M285 424v92h657v-92h-657zM285 844q0 37 8 67q10 39 29 68q16 29 53 59q35 27 86 43q70 20 157 31q33 4 104 9t85 7v11q0 8 -2 10q-2 88 -60 135q-55 43 -129 43q-66 0 -118 -35q-51 -37 -68 -108h-137q10 84 41 131q29 47 78 84q43 29 98 45q53 12 106 12 q57 0 112.5 -14.5t107.5 -52.5q49 -43 77 -101q29 -68 29 -158v-512h-133v82q-39 -53 -104 -73q-66 -25 -148 -25q-57 0 -102 14q-51 16 -86 46q-39 27 -61.5 75.5t-22.5 106.5zM418 850q0 -51 41 -86q39 -33 125 -33q39 0 84 10q37 8 73 35q31 20 50 60q18 33 18 86v88 q-80 -6 -207 -21q-78 -8 -123 -35q-37 -23 -47 -45q-14 -23 -14 -59z" />
<glyph unicode="&#xab;" d="M113 526l430 430l65 -63l-366 -367l366 -366l-65 -64zM571 526l430 430l66 -63l-367 -367l367 -366l-66 -64z" />
<glyph unicode="&#xac;" d="M217 528v93h811v-453h-92v360h-719z" />
<glyph unicode="&#xad;" d="M326 528v93h594v-93h-594z" />
<glyph unicode="&#xae;" d="M82 510v414q0 117 35 217q37 98 106 168q68 68 170 108q100 37 230 37q127 0 229 -37q102 -39 170 -108q70 -70 106 -168q35 -100 35 -217v-414q0 -117 -35 -217q-37 -98 -106.5 -168t-169.5 -107q-98 -39 -229 -38.5t-230 38.5q-100 37 -169.5 107t-106.5 168 q-35 100 -35 217zM170 510q0 -98 31 -180q25 -76 88 -140q59 -59 141 -92q80 -33 192.5 -32.5t192.5 32.5q86 35 143.5 92.5t88.5 139.5q28 86 28 180v414q0 94 -28 180q-31 84 -89 141q-53 53 -143 90q-80 33 -192.5 33t-192.5 -33q-86 -35 -141 -90q-61 -61 -88 -141 q-31 -84 -31 -180v-414zM338 289v856h348q125 0 197 -66q70 -63 69 -182q0 -98 -49 -159.5t-141 -80.5l217 -368h-156l-213 362h-133v-362h-139zM477 786h209q55 0 90 29q33 27 33 80q0 57 -33 84t-90 27h-209v-220z" />
<glyph unicode="&#xaf;" d="M303 1270v102h639v-102h-639z" />
<glyph unicode="&#xb0;" d="M303 1124q0 70 27 125q25 57 67 101q41 41 103 69q57 25 123 25t125 -25q59 -27 100 -69.5t70 -100.5q25 -57 24 -125q0 -63 -24 -123q-29 -61 -70 -102q-43 -43 -100 -68q-55 -27 -125 -26q-68 0 -123 26q-59 25 -102.5 68t-67.5 102q-27 55 -27 123zM391 1124 q0 -51 19 -90q18 -43 49 -73q29 -33 73 -52q41 -18 90.5 -18t92.5 18q43 20 71 52q31 31 50 73q18 39 18 90q0 49 -18 93q-18 41 -50 73q-31 31 -71 49q-43 18 -92.5 18.5t-90.5 -18.5q-43 -18 -73 -49q-31 -33 -49 -73q-19 -44 -19 -93z" />
<glyph unicode="&#xb1;" d="M217 317v93h811v-93h-811zM217 717v92h361v248h92v-248h358v-92h-358v-248h-92v248h-361z" />
<glyph unicode="&#xb2;" d="M367 821v129l303 312q43 41 63 77q18 31 19 66q0 51 -35 92q-33 39 -92 39q-57 0 -90 -39q-35 -41 -35 -92q0 -55 39 -94l-93 -92q-35 31 -57 84q-23 49 -22 102q0 57 20 100q23 49 55 84q33 33 82 56q43 20 101 20q59 0 102 -20q49 -23 82 -56q33 -35 55 -84 q20 -43 21 -100q0 -66 -25 -113q-31 -55 -88 -114l-223 -228h336v-129h-518z" />
<glyph unicode="&#xb3;" d="M354 1069h133q0 -51 35 -92q33 -39 90 -39q59 0 93 39q35 41 34.5 92t-34.5 92q-33 39 -93 39v123h9q41 2 69 35q25 31 25 72q0 47 -27 75q-27 31 -76 31q-43 0 -71 -31q-29 -33 -29 -75h-133q0 49 18.5 92t51.5 75q31 31 73 50q41 18 90.5 18t92.5 -18q41 -18 73 -50 q33 -33 51.5 -75.5t18.5 -92t-19 -90.5q-23 -47 -53 -73q43 -31 72 -86q25 -53 24 -111q0 -57 -20 -100q-23 -51 -55 -84q-35 -33 -84 -56q-43 -20 -100.5 -20t-100.5 20q-49 23 -82 56t-55 84q-20 43 -21 100z" />
<glyph unicode="&#xb4;" d="M336 1294l547 150l26 -98l-547 -150z" />
<glyph unicode="&#xb6;" d="M133 1024q0 86 33 160q31 74 86 129q53 55 131 88q72 33 158 33h514v-1612h-88v1526h-318v-1526h-88v792h-20q-86 0 -158 33q-76 33 -131 88.5t-86 130.5q-33 72 -33 158z" />
<glyph unicode="&#xb7;" d="M516 487v215h215v-215h-215z" />
<glyph unicode="&#xb8;" d="M440 -274h172v172h103v-275h-275v103z" />
<glyph unicode="&#xb9;" d="M360 821v129h215v518l-112 -112l-92 90l204 207h134v-703h217v-129h-566z" />
<glyph unicode="&#xba;" d="M299 424v92h649v-92h-649zM299 928v202q0 94 31 158q25 57 76 101q47 39 104 53q55 14 113 14q59 0 114 -14q57 -14 105 -53q49 -43 78 -101q29 -68 28 -158v-202q0 -92 -28 -156q-29 -61 -78 -100q-43 -37 -104.5 -53.5t-114.5 -16.5q-51 0 -112.5 16.5t-104.5 53.5 q-49 39 -76 100q-31 61 -31 156zM432 928q0 -102 57 -148q56 -49 133.5 -49t137.5 49q55 47 55 148v202q0 98 -55 148q-57 49 -137 49q-78 0 -134 -49q-57 -49 -57 -148v-202z" />
<glyph unicode="&#xbb;" d="M178 160l66 -64l430 430l-430 430l-66 -63l367 -367zM639 160l66 -64l430 430l-430 430l-66 -63l367 -367z" />
<glyph unicode="&#xbc;" d="M76 899v82h139v336l-74 -76l-59 59l133 134h86v-453h137v-82h-362zM145 307l889 891l66 -65l-889 -891zM741 129v82l238 328l68 -50l-203 -278h133v108h86v-108h55v-82h-55v-129h-86v129h-236z" />
<glyph unicode="&#xbd;" d="M76 899v82h139v336l-74 -76l-59 59l133 134h86v-453h137v-82h-362zM145 307l889 891l66 -65l-889 -891zM774 0v82l197 203q29 29 39 47q10 25 10 45q0 37 -21 59q-23 23 -59 23q-35 0 -57 -23q-23 -27 -23 -59q0 -37 25 -62l-60 -59q-20 20 -37 53q-14 29 -14 68 q0 70 49 119q47 47 117 47q68 0 119 -47q47 -51 47 -119q0 -47 -14.5 -76t-57.5 -72l-143 -147h215v-82h-332z" />
<glyph unicode="&#xbe;" d="M109 1057h86q0 -35 22 -58q20 -25 57 -24.5t58 24.5q23 23 22 58q0 37 -20 59q-25 25 -53 27h-7v78h7q29 4 43 22q16 23 16 47q0 29 -18 49q-18 18 -47 18.5t-48 -18.5q-18 -20 -18 -49h-86q0 63 45 109q43 43 106 43q61 0 109 -43q43 -47 43 -109q0 -33 -12.5 -59.5 t-32.5 -46.5q59 -49 59 -127q0 -70 -47 -117q-49 -49 -119 -49t-116 49q-49 47 -49 117zM145 307l889 891l66 -65l-889 -891zM741 129v82l238 328l68 -50l-203 -278h133v108h86v-108h55v-82h-55v-129h-86v129h-236z" />
<glyph unicode="&#xbf;" d="M227 16q0 78 27 144q25 70 70 123q49 57 108 90q61 37 133 49v164h154v-305h-78q-59 0 -102 -21q-49 -23 -82 -55q-33 -35 -56 -84q-20 -47 -20 -104.5t20 -104.5q23 -49 56 -84q33 -33 82 -55q43 -20 102 -20.5t102 20.5q49 23 82 55q33 35 56 84q20 47 20 104h154 q0 -88 -33 -161q-35 -74 -88 -131q-57 -53 -131 -89q-74 -33 -162 -32.5t-160 32.5q-78 33 -131 89q-55 55 -90 131q-33 74 -33 161zM535 842v215h215v-215h-215z" />
<glyph unicode="&#xc0;" d="M72 0l460 1434h181l461 -1434h-160l-131 403h-521l-131 -403h-159zM336 1661l26 98l547 -149l-26 -99zM410 549h426l-213 665z" />
<glyph unicode="&#xc1;" d="M72 0l460 1434h181l461 -1434h-160l-131 403h-521l-131 -403h-159zM336 1610l547 149l26 -98l-547 -150zM410 549h426l-213 665z" />
<glyph unicode="&#xc2;" d="M72 0l460 1434h181l461 -1434h-160l-131 403h-521l-131 -403h-159zM291 1602l332 157l331 -157l-43 -91l-288 138l-289 -138zM410 549h426l-213 665z" />
<glyph unicode="&#xc3;" d="M72 0l460 1434h181l461 -1434h-160l-131 403h-521l-131 -403h-159zM272 1608l273 145l162 -117l219 117l47 -88l-273 -145l-161 116l-220 -116zM410 549h426l-213 665z" />
<glyph unicode="&#xc4;" d="M72 0l460 1434h181l461 -1434h-160l-131 403h-521l-131 -403h-159zM303 1559v155h156v-155h-156zM410 549h426l-213 665zM786 1559v155h156v-155h-156z" />
<glyph unicode="&#xc5;" d="M72 0l438 1362q-51 27 -86 84.5t-35 120.5q0 49 19 92q18 41 51 74q29 33 73 51q41 18 90.5 18t92.5 -18q41 -18 73.5 -51t51.5 -74q18 -43 18 -92q0 -63 -35 -121q-33 -55 -88 -84l439 -1362h-160l-131 403h-521l-131 -403h-159zM410 549h426l-213 665zM489 1567 q0 -55 39 -94t95 -39q57 0 96 38.5t39 94.5q0 57 -39 96t-96 39q-55 0 -94.5 -39t-39.5 -96z" />
<glyph unicode="&#xc6;" d="M72 0l460 1434h553v-156h-337v-475h194v-156h-194v-491h337v-156h-495v403h-228l-131 -403h-159zM410 549h180v563z" />
<glyph unicode="&#xc7;" d="M168 465v504q0 111 35 202q35 90 94 154q63 63 147 96q81 33 187 33q98 0 180 -31q84 -31 143 -88q61 -61 97 -139q35 -86 41 -186h-158q-12 141 -96 217q-88 72 -207 71q-66 0 -119 -20.5t-96 -63.5q-43 -41 -66 -102q-25 -61 -24 -143v-504q0 -82 24 -143 q23 -61 66 -103q37 -41 96 -63q53 -20 119 -21q121 0 207 74q84 72 96 215h158q-6 -100 -41 -186q-35 -78 -97 -140q-59 -57 -143 -88q-82 -31 -180 -30q-100 0 -187 34q-90 35 -147 97q-59 59 -94 151t-35 203zM408 -274h172v172h102v-275h-274v103z" />
<glyph unicode="&#xc8;" d="M236 0v1434h815v-156h-658v-475h514v-156h-514v-491h658v-156h-815zM356 1661l27 98l547 -149l-27 -99z" />
<glyph unicode="&#xc9;" d="M236 0v1434h815v-156h-658v-475h514v-156h-514v-491h658v-156h-815zM356 1610l547 149l27 -98l-547 -150z" />
<glyph unicode="&#xca;" d="M236 0v1434h815v-156h-658v-475h514v-156h-514v-491h658v-156h-815zM311 1602l332 157l332 -157l-43 -91l-289 138l-289 -138z" />
<glyph unicode="&#xcb;" d="M236 0v1434h815v-156h-658v-475h514v-156h-514v-491h658v-156h-815zM324 1559v155h155v-155h-155zM807 1559v155h156v-155h-156z" />
<glyph unicode="&#xcc;" d="M215 0v156h330v1122h-330v156h817v-156h-330v-1122h330v-156h-817zM336 1661l26 98l547 -149l-26 -99z" />
<glyph unicode="&#xcd;" d="M215 0v156h330v1122h-330v156h817v-156h-330v-1122h330v-156h-817zM336 1610l547 149l26 -98l-547 -150z" />
<glyph unicode="&#xce;" d="M215 0v156h330v1122h-330v156h817v-156h-330v-1122h330v-156h-817zM291 1602l332 157l331 -157l-43 -91l-288 138l-289 -138z" />
<glyph unicode="&#xcf;" d="M215 0v156h330v1122h-330v156h817v-156h-330v-1122h330v-156h-817zM303 1559v155h156v-155h-156zM786 1559v155h156v-155h-156z" />
<glyph unicode="&#xd0;" d="M47 672v92h143v670h463q104 0 188.5 -33t145.5 -96q63 -66 96 -154q33 -86 33 -203v-463q0 -117 -33 -202q-35 -90 -96 -152q-57 -61 -145 -96t-189 -35h-463v672h-143zM348 156h305q66 0 119 20q57 23 98 64t66 102q23 63 22 143v463q0 80 -22 144q-25 61 -66 102 q-47 43 -98 63q-53 20 -119 21h-305v-514h305v-92h-305v-516z" />
<glyph unicode="&#xd1;" d="M160 0v1434h157l611 -1129v1129h157v-1434h-157l-611 1128v-1128h-157zM272 1608l273 145l162 -117l219 117l47 -88l-273 -145l-161 116l-220 -116z" />
<glyph unicode="&#xd2;" d="M160 465v504q0 111 35 202q35 90 94 154q63 63 147 96q80 33 187 33q104 0 188 -32.5t145 -96.5q63 -66 97 -154q32 -85 32 -202v-504q0 -117 -32 -203q-33 -88 -97 -153q-61 -63 -145 -96t-188 -33q-106 0 -187 32q-84 33 -147 97q-59 63 -94 153q-35 92 -35 203z M317 465q0 -82 25 -143q23 -61 66 -103q37 -41 96 -63q53 -20 118.5 -20.5t118.5 20.5q57 23 98.5 63.5t65.5 102.5q23 63 23 143v504q0 80 -23 143q-25 61 -65 102q-47 43 -99 64q-53 20 -118.5 20t-118.5 -20.5t-96 -63.5q-43 -41 -66 -102q-25 -61 -25 -143v-504z M336 1661l26 98l547 -149l-26 -99z" />
<glyph unicode="&#xd3;" d="M160 465v504q0 111 35 202q35 90 94 154q63 63 147 96q80 33 187 33q104 0 188 -32.5t145 -96.5q63 -66 97 -154q32 -85 32 -202v-504q0 -117 -32 -203q-33 -88 -97 -153q-61 -63 -145 -96t-188 -33q-106 0 -187 32q-84 33 -147 97q-59 63 -94 153q-35 92 -35 203z M317 465q0 -82 25 -143q23 -61 66 -103q37 -41 96 -63q53 -20 118.5 -20.5t118.5 20.5q57 23 98.5 63.5t65.5 102.5q23 63 23 143v504q0 80 -23 143q-25 61 -65 102q-47 43 -99 64q-53 20 -118.5 20t-118.5 -20.5t-96 -63.5q-43 -41 -66 -102q-25 -61 -25 -143v-504z M336 1610l547 149l26 -98l-547 -150z" />
<glyph unicode="&#xd4;" d="M160 465v504q0 111 35 202q35 90 94 154q63 63 147 96q80 33 187 33q104 0 188 -32.5t145 -96.5q63 -66 97 -154q32 -85 32 -202v-504q0 -117 -32 -203q-33 -88 -97 -153q-61 -63 -145 -96t-188 -33q-106 0 -187 32q-84 33 -147 97q-59 63 -94 153q-35 92 -35 203z M291 1602l332 157l331 -157l-43 -91l-288 138l-289 -138zM317 465q0 -82 25 -143q23 -61 66 -103q37 -41 96 -63q53 -20 118.5 -20.5t118.5 20.5q57 23 98.5 63.5t65.5 102.5q23 63 23 143v504q0 80 -23 143q-25 61 -65 102q-47 43 -99 64q-53 20 -118.5 20t-118.5 -20.5 t-96 -63.5q-43 -41 -66 -102q-25 -61 -25 -143v-504z" />
<glyph unicode="&#xd5;" d="M160 465v504q0 111 35 202q35 90 94 154q63 63 147 96q80 33 187 33q104 0 188 -32.5t145 -96.5q63 -66 97 -154q32 -85 32 -202v-504q0 -117 -32 -203q-33 -88 -97 -153q-61 -63 -145 -96t-188 -33q-106 0 -187 32q-84 33 -147 97q-59 63 -94 153q-35 92 -35 203z M272 1608l273 145l162 -117l219 117l47 -88l-273 -145l-161 116l-220 -116zM317 465q0 -82 25 -143q23 -61 66 -103q37 -41 96 -63q53 -20 118.5 -20.5t118.5 20.5q57 23 98.5 63.5t65.5 102.5q23 63 23 143v504q0 80 -23 143q-25 61 -65 102q-47 43 -99 64 q-53 20 -118.5 20t-118.5 -20.5t-96 -63.5q-43 -41 -66 -102q-25 -61 -25 -143v-504z" />
<glyph unicode="&#xd6;" d="M160 465v504q0 111 35 202q35 90 94 154q63 63 147 96q80 33 187 33q104 0 188 -32.5t145 -96.5q63 -66 97 -154q32 -85 32 -202v-504q0 -117 -32 -203q-33 -88 -97 -153q-61 -63 -145 -96t-188 -33q-106 0 -187 32q-84 33 -147 97q-59 63 -94 153q-35 92 -35 203z M303 1559v155h156v-155h-156zM317 465q0 -82 25 -143q23 -61 66 -103q37 -41 96 -63q53 -20 118.5 -20.5t118.5 20.5q57 23 98.5 63.5t65.5 102.5q23 63 23 143v504q0 80 -23 143q-25 61 -65 102q-47 43 -99 64q-53 20 -118.5 20t-118.5 -20.5t-96 -63.5q-43 -41 -66 -102 q-25 -61 -25 -143v-504zM786 1559v155h156v-155h-156z" />
<glyph unicode="&#xd7;" d="M272 289l285 284l-285 285l66 66l285 -285l286 285l66 -66l-287 -285l287 -284l-66 -66l-286 285l-285 -285z" />
<glyph unicode="&#xd8;" d="M129 -20l113 188q-82 119 -82 297v504q0 111 35 202q35 90 94 154q63 63 147 96q80 33 187 33q94 0 180 -29q82 -31 139 -86l96 162l76 -47l-113 -186q43 -63 64 -133q20 -74 20 -166v-504q0 -117 -32 -203q-33 -88 -97 -153q-61 -63 -145 -96t-188 -33q-197 0 -322 116 l-96 -164zM317 465q0 -82 21 -135l518 866q-37 47 -100 78q-61 25 -133 24q-66 0 -119 -20.5t-96 -63.5q-43 -41 -66 -102q-25 -61 -25 -143v-504zM387 238q37 -49 102 -78q61 -25 134 -25q66 0 118 21q57 23 98.5 63.5t65.5 102.5q23 63 23 143v504q0 70 -23 137z" />
<glyph unicode="&#xd9;" d="M160 465v969h157v-969q0 -82 25 -143q23 -61 66 -103q37 -41 96 -63q53 -20 118.5 -20.5t118.5 20.5q57 23 98.5 63.5t65.5 102.5q23 63 23 143v969h157v-969q0 -117 -32 -203q-33 -90 -97 -151q-57 -61 -145 -97q-82 -35 -188 -34q-109 0 -187 34q-90 35 -147 97 q-59 59 -94 151t-35 203zM336 1661l26 98l547 -149l-26 -99z" />
<glyph unicode="&#xda;" d="M160 465v969h157v-969q0 -82 25 -143q23 -61 66 -103q37 -41 96 -63q53 -20 118.5 -20.5t118.5 20.5q57 23 98.5 63.5t65.5 102.5q23 63 23 143v969h157v-969q0 -117 -32 -203q-33 -90 -97 -151q-57 -61 -145 -97q-82 -35 -188 -34q-109 0 -187 34q-90 35 -147 97 q-59 59 -94 151t-35 203zM336 1610l547 149l26 -98l-547 -150z" />
<glyph unicode="&#xdb;" d="M160 465v969h157v-969q0 -82 25 -143q23 -61 66 -103q37 -41 96 -63q53 -20 118.5 -20.5t118.5 20.5q57 23 98.5 63.5t65.5 102.5q23 63 23 143v969h157v-969q0 -117 -32 -203q-33 -90 -97 -151q-57 -61 -145 -97q-82 -35 -188 -34q-109 0 -187 34q-90 35 -147 97 q-59 59 -94 151t-35 203zM291 1602l332 157l331 -157l-43 -91l-288 138l-289 -138z" />
<glyph unicode="&#xdc;" d="M160 465v969h157v-969q0 -82 25 -143q23 -61 66 -103q37 -41 96 -63q53 -20 118.5 -20.5t118.5 20.5q57 23 98.5 63.5t65.5 102.5q23 63 23 143v969h157v-969q0 -117 -32 -203q-33 -90 -97 -151q-57 -61 -145 -97q-82 -35 -188 -34q-109 0 -187 34q-90 35 -147 97 q-59 59 -94 151t-35 203zM303 1559v155h156v-155h-156zM786 1559v155h156v-155h-156z" />
<glyph unicode="&#xdd;" d="M72 1434h172l381 -695l379 695h172l-474 -865v-569h-157v571zM336 1610l547 149l26 -98l-547 -150z" />
<glyph unicode="&#xde;" d="M209 0v1434h158v-279h305q127 0 213 -33q90 -35 143 -90t82 -139q25 -82 25 -176q0 -96 -25 -176q-29 -80 -82 -138q-55 -59 -143 -92q-86 -33 -213 -32h-305v-279h-158zM367 434h305q80 0 141 23q59 23 92 61q37 41 51 88q17 56 17 111t-17 110q-14 45 -51 91 q-35 39 -92 59q-61 23 -141 22h-305v-565z" />
<glyph unicode="&#xdf;" d="M258 0v1182q0 68 12 116q8 45 41 78q27 27 78 43q43 14 121 15h33v-148h-33q-55 0 -76 -20q-23 -23 -22 -72v-137h528v-146l-240 -311q74 -25 142 -72q63 -45 110 -108q43 -61 72 -139q25 -76 25 -162q0 -106 -39 -197q-39 -88 -109 -162q-74 -70 -162 -108 q-90 -39 -196 -39v147q70 0 137 29q61 27 113 78q49 53 75.5 114.5t26.5 137.5q0 78 -27 139q-25 59 -75 113q-51 51 -113 78q-68 29 -137 28v148l221 284h-352v-909h-154z" />
<glyph unicode="&#xe0;" d="M193 293q0 33 10 84q8 45 37 88q29 45 69 76q43 35 113 55q88 27 205 39q25 2 73 6t89.5 8t82.5 6v19q0 68 -20 117q-18 43 -57 81q-37 33 -84 50q-50 16 -99 16q-92 0 -163 -49q-72 -53 -91 -156h-157q8 94 51 166q41 70 96 111q61 43 127 59q72 16 137 16q78 0 148 -20 q78 -23 133 -70q59 -49 96 -127q37 -80 37 -196v-672h-154v109q-53 -66 -135 -97q-84 -33 -194 -32q-68 0 -131 18q-66 18 -111 57q-49 37 -78 97q-31 57 -30 141zM334 1346l26 98l547 -150l-26 -98zM346 297q0 -72 57 -121q55 -49 172 -49q57 0 117 16q55 16 94 50 q39 29 64 79q22 50 22 109v137q-188 -12 -276 -26q-106 -16 -158 -43q-61 -35 -76 -68q-16 -39 -16 -84z" />
<glyph unicode="&#xe1;" d="M193 293q0 33 10 84q8 45 37 88q29 45 69 76q43 35 113 55q88 27 205 39q25 2 73 6t89.5 8t82.5 6v19q0 68 -20 117q-18 43 -57 81q-37 33 -84 50q-50 16 -99 16q-92 0 -163 -49q-72 -53 -91 -156h-157q8 94 51 166q41 70 96 111q61 43 127 59q72 16 137 16q78 0 148 -20 q78 -23 133 -70q59 -49 96 -127q37 -80 37 -196v-672h-154v109q-53 -66 -135 -97q-84 -33 -194 -32q-68 0 -131 18q-66 18 -111 57q-49 37 -78 97q-31 57 -30 141zM334 1294l547 150l26 -98l-547 -150zM346 297q0 -72 57 -121q55 -49 172 -49q57 0 117 16q55 16 94 50 q39 29 64 79q22 50 22 109v137q-188 -12 -276 -26q-106 -16 -158 -43q-61 -35 -76 -68q-16 -39 -16 -84z" />
<glyph unicode="&#xe2;" d="M193 293q0 33 10 84q8 45 37 88q29 45 69 76q43 35 113 55q88 27 205 39q25 2 73 6t89.5 8t82.5 6v19q0 68 -20 117q-18 43 -57 81q-37 33 -84 50q-50 16 -99 16q-92 0 -163 -49q-72 -53 -91 -156h-157q8 94 51 166q41 70 96 111q61 43 127 59q72 16 137 16q78 0 148 -20 q78 -23 133 -70q59 -49 96 -127q37 -80 37 -196v-672h-154v109q-53 -66 -135 -97q-84 -33 -194 -32q-68 0 -131 18q-66 18 -111 57q-49 37 -78 97q-31 57 -30 141zM289 1286l332 158l331 -158l-43 -90l-288 137l-289 -137zM346 297q0 -72 57 -121q55 -49 172 -49 q57 0 117 16q55 16 94 50q39 29 64 79q22 50 22 109v137q-188 -12 -276 -26q-106 -16 -158 -43q-61 -35 -76 -68q-16 -39 -16 -84z" />
<glyph unicode="&#xe3;" d="M193 293q0 33 10 84q8 45 37 88q29 45 69 76q43 35 113 55q88 27 205 39q25 2 73 6t89.5 8t82.5 6v19q0 68 -20 117q-18 43 -57 81q-37 33 -84 50q-50 16 -99 16q-92 0 -163 -49q-72 -53 -91 -156h-157q8 94 51 166q41 70 96 111q61 43 127 59q72 16 137 16q78 0 148 -20 q78 -23 133 -70q59 -49 96 -127q37 -80 37 -196v-672h-154v109q-53 -66 -135 -97q-84 -33 -194 -32q-68 0 -131 18q-66 18 -111 57q-49 37 -78 97q-31 57 -30 141zM270 1292l273 146l162 -117l219 117l47 -88l-273 -146l-161 117l-220 -117zM346 297q0 -72 57 -121 q55 -49 172 -49q57 0 117 16q55 16 94 50q39 29 64 79q22 50 22 109v137q-188 -12 -276 -26q-106 -16 -158 -43q-61 -35 -76 -68q-16 -39 -16 -84z" />
<glyph unicode="&#xe4;" d="M193 293q0 33 10 84q8 45 37 88q29 45 69 76q43 35 113 55q88 27 205 39q25 2 73 6t89.5 8t82.5 6v19q0 68 -20 117q-18 43 -57 81q-37 33 -84 50q-50 16 -99 16q-92 0 -163 -49q-72 -53 -91 -156h-157q8 94 51 166q41 70 96 111q61 43 127 59q72 16 137 16q78 0 148 -20 q78 -23 133 -70q59 -49 96 -127q37 -80 37 -196v-672h-154v109q-53 -66 -135 -97q-84 -33 -194 -32q-68 0 -131 18q-66 18 -111 57q-49 37 -78 97q-31 57 -30 141zM301 1243v156h156v-156h-156zM346 297q0 -72 57 -121q55 -49 172 -49q57 0 117 16q55 16 94 50q39 29 64 79 q22 50 22 109v137q-188 -12 -276 -26q-106 -16 -158 -43q-61 -35 -76 -68q-16 -39 -16 -84zM784 1243v156h156v-156h-156z" />
<glyph unicode="&#xe5;" d="M193 293q0 33 10 84q8 45 37 88q29 45 69 76q43 35 113 55q88 27 205 39q25 2 73 6t89.5 8t82.5 6v19q0 68 -20 117q-18 43 -57 81q-37 33 -84 50q-49 16 -99 16q-92 0 -163 -49q-72 -53 -91 -156h-157q16 139 82 215q66 74 159 109q-31 39 -45 73q-18 42 -18 89 q0 49 18 92q18 41 52 73q29 33 73 52q41 18 90.5 18t92.5 -18q41 -18 73.5 -51t50.5 -74q18 -43 19 -92q0 -47 -19 -89q-18 -43 -49 -73q47 -16 97 -49q49 -39 77 -78q31 -41 54 -111q18 -66 18 -147v-672h-154v109q-53 -66 -135 -97q-84 -33 -194 -32q-68 0 -131 18 q-66 18 -111 57q-49 37 -78 97q-31 57 -30 141zM346 297q0 -72 57 -121q55 -49 172 -49q57 0 117 16q55 16 94 50q39 29 64 79q22 50 22 109v137q-188 -12 -276 -26q-106 -16 -158 -43q-61 -35 -76 -68q-16 -39 -16 -84zM479 1219q0 -55 39 -94.5t94 -39.5q57 0 96.5 39 t39.5 95q0 57 -39 96t-97 39q-55 0 -94 -39t-39 -96z" />
<glyph unicode="&#xe6;" d="M104 276v62q0 139 80 219q78 78 217 78h144v153q0 72 -37 111t-106.5 39t-106.5 -39t-37 -111v-55h-154v55q0 139 80 220q78 78 217 77q66 0 123 -24q53 -23 97 -78q41 53 98 78q59 25 123 24q137 0 219 -77q78 -82 78 -220v-294h-441v-218q0 -68 37 -108.5t106.5 -40.5 t106.5 41q37 39 37 108v56h154v-56q0 -139 -78 -217q-80 -80 -219 -79q-63 0 -123 24q-57 25 -98 78q-43 -55 -97 -78q-57 -25 -123 -24q-139 0 -217 79q-80 76 -80 217zM258 276q0 -68 37 -108.5t106.5 -40.5t106.5 41q37 39 37 108v218h-144q-70 0 -106.5 -43t-36.5 -113 v-62zM698 635h287v153q0 72 -37 111t-106.5 39t-106.5 -39t-37 -111v-153z" />
<glyph unicode="&#xe7;" d="M215 393v279q0 117 37 196q37 78 96 127q55 47 133 70q70 20 148 20q68 0 139 -18q68 -18 129 -59q55 -41 96 -113q37 -66 47 -172h-155q-16 109 -90 162q-76 53 -166 53q-49 0 -98.5 -16.5t-81.5 -49.5q-37 -33 -58 -81q-23 -55 -22 -117v-283q0 -63 22 -115 q20 -51 58 -83q33 -33 82 -49.5t98 -16.5q90 0 166 53q74 53 90 162h155q-10 -106 -47 -172q-41 -74 -96 -111q-57 -43 -129 -61t-139 -18q-78 0 -148 20q-78 23 -133 70q-59 47 -96 126.5t-37 196.5zM406 -274h172v172h102v-275h-274v103z" />
<glyph unicode="&#xe8;" d="M211 393v279q0 117 37 196q37 78 96 127q55 47 133 70q70 20 147.5 20t147.5 -20q78 -23 133 -70q59 -49 96 -127q37 -80 37 -196v-178h-673v-103q0 -63 22 -115q20 -51 57 -83q33 -33 82.5 -49.5t98.5 -16.5q94 0 163 51q72 49 91 154h157q-8 -98 -49 -166 q-41 -70 -98 -109q-59 -43 -125 -61q-76 -16 -139 -16q-78 0 -148 20q-78 23 -133 70q-59 51 -96 129q-37 76 -37 194zM338 1346l27 98l546 -150l-26 -98zM365 635h520v39q0 68 -21 117q-18 43 -57 81q-37 33 -84 50q-49 16 -98.5 16t-98.5 -16.5t-82 -49.5q-37 -33 -57 -81 q-23 -55 -22 -117v-39z" />
<glyph unicode="&#xe9;" d="M211 393v279q0 117 37 196q37 78 96 127q55 47 133 70q70 20 147.5 20t147.5 -20q78 -23 133 -70q59 -49 96 -127q37 -80 37 -196v-178h-673v-103q0 -63 22 -115q20 -51 57 -83q33 -33 82.5 -49.5t98.5 -16.5q94 0 163 51q72 49 91 154h157q-8 -98 -49 -166 q-41 -70 -98 -109q-59 -43 -125 -61q-76 -16 -139 -16q-78 0 -148 20q-78 23 -133 70q-59 51 -96 129q-37 76 -37 194zM338 1294l547 150l26 -98l-546 -150zM365 635h520v39q0 68 -21 117q-18 43 -57 81q-37 33 -84 50q-49 16 -98.5 16t-98.5 -16.5t-82 -49.5 q-37 -33 -57 -81q-23 -55 -22 -117v-39z" />
<glyph unicode="&#xea;" d="M211 393v279q0 117 37 196q37 78 96 127q55 47 133 70q70 20 147.5 20t147.5 -20q78 -23 133 -70q59 -49 96 -127q37 -80 37 -196v-178h-673v-103q0 -63 22 -115q20 -51 57 -83q33 -33 82.5 -49.5t98.5 -16.5q94 0 163 51q72 49 91 154h157q-8 -98 -49 -166 q-41 -70 -98 -109q-59 -43 -125 -61q-76 -16 -139 -16q-78 0 -148 20q-78 23 -133 70q-59 51 -96 129q-37 76 -37 194zM293 1286l332 158l331 -158l-43 -90l-288 137l-289 -137zM365 635h520v39q0 68 -21 117q-18 43 -57 81q-37 33 -84 50q-49 16 -98.5 16t-98.5 -16.5 t-82 -49.5q-37 -33 -57 -81q-23 -55 -22 -117v-39z" />
<glyph unicode="&#xeb;" d="M211 393v279q0 117 37 196q37 78 96 127q55 47 133 70q70 20 147.5 20t147.5 -20q78 -23 133 -70q59 -49 96 -127q37 -80 37 -196v-178h-673v-103q0 -63 22 -115q20 -51 57 -83q33 -33 82.5 -49.5t98.5 -16.5q94 0 163 51q72 49 91 154h157q-8 -98 -49 -166 q-41 -70 -98 -109q-59 -43 -125 -61q-76 -16 -139 -16q-78 0 -148 20q-78 23 -133 70q-59 51 -96 129q-37 76 -37 194zM305 1243v156h156v-156h-156zM365 635h520v39q0 68 -21 117q-18 43 -57 81q-37 33 -84 50q-49 16 -98.5 16t-98.5 -16.5t-82 -49.5q-37 -33 -57 -81 q-23 -55 -22 -117v-39zM788 1243v156h156v-156h-156z" />
<glyph unicode="&#xec;" d="M180 0v147h373v762h-270v148h424v-910h372v-147h-899zM342 1346l27 98l546 -150l-26 -98z" />
<glyph unicode="&#xed;" d="M180 0v147h373v762h-270v148h424v-910h372v-147h-899zM342 1294l547 150l26 -98l-546 -150z" />
<glyph unicode="&#xee;" d="M180 0v147h373v762h-270v148h424v-910h372v-147h-899zM297 1286l332 158l332 -158l-43 -90l-289 137l-289 -137z" />
<glyph unicode="&#xef;" d="M180 0v147h373v762h-270v148h424v-910h372v-147h-899zM309 1243v156h156v-156h-156zM793 1243v156h155v-156h-155z" />
<glyph unicode="&#xf0;" d="M209 393v279q0 117 37 196q37 78 96 127q55 47 133 70q70 20 148 20h22q8 -2 23 -2l-84 115h-258v88h194l-106 148h182l106 -148h166v-88h-100l197 -268q35 -49 53 -111q18 -66 18 -147v-279q0 -119 -37 -194q-37 -78 -96 -129q-55 -47 -133 -70q-70 -20 -147.5 -20 t-147.5 20q-78 23 -133 70q-59 51 -96 129q-37 76 -37 194zM362 391q0 -63 23 -115q20 -51 57 -83q33 -33 82 -49.5t98.5 -16.5t98.5 16q47 16 84 50q39 39 57 83q21 47 21 115v283q0 68 -21 117q-18 43 -57 81q-37 33 -84 50q-49 16 -98.5 16t-98.5 -16.5t-82 -49.5 q-37 -33 -57 -81q-23 -55 -23 -117v-283z" />
<glyph unicode="&#xf1;" d="M213 0v1057h154v-101q39 63 114 99q74 30 146 30q78 0 147 -20q78 -23 133 -70q59 -49 97 -127q37 -80 36 -196v-672h-153v674q0 68 -21 117q-18 43 -57 81q-37 33 -84 50q-49 16 -98 16t-98.5 -16.5t-82.5 -49.5q-37 -33 -57 -81q-23 -55 -22 -117v-674h-154zM276 1292 l273 146l162 -117l219 117l47 -88l-272 -146l-162 117l-219 -117z" />
<glyph unicode="&#xf2;" d="M209 393v279q0 117 37 196q37 78 96 127q55 47 133 70q70 20 147.5 20t147.5 -20q78 -23 133 -70q59 -49 96 -127q37 -79 37 -196v-279q0 -119 -37 -194q-37 -78 -96 -129q-55 -47 -133 -70q-70 -20 -147.5 -20t-147.5 20q-78 23 -133 70q-59 51 -96 129q-37 76 -37 194z M336 1346l26 98l547 -150l-26 -98zM362 391q0 -63 23 -115q20 -51 57 -83q33 -33 82 -49.5t98.5 -16.5t98.5 16q47 16 84 50q39 39 57 83q21 47 21 115v283q0 68 -21 117q-18 43 -57 81q-37 33 -84 50q-49 16 -98.5 16t-98.5 -16.5t-82 -49.5q-37 -33 -57 -81 q-23 -55 -23 -117v-283z" />
<glyph unicode="&#xf3;" d="M209 393v279q0 117 37 196q37 78 96 127q55 47 133 70q70 20 147.5 20t147.5 -20q78 -23 133 -70q59 -49 96 -127q37 -79 37 -196v-279q0 -119 -37 -194q-37 -78 -96 -129q-55 -47 -133 -70q-70 -20 -147.5 -20t-147.5 20q-78 23 -133 70q-59 51 -96 129q-37 76 -37 194z M336 1294l547 150l26 -98l-547 -150zM362 391q0 -63 23 -115q20 -51 57 -83q33 -33 82 -49.5t98.5 -16.5t98.5 16q47 16 84 50q39 39 57 83q21 47 21 115v283q0 68 -21 117q-18 43 -57 81q-37 33 -84 50q-49 16 -98.5 16t-98.5 -16.5t-82 -49.5q-37 -33 -57 -81 q-23 -55 -23 -117v-283z" />
<glyph unicode="&#xf4;" d="M209 393v279q0 117 37 196q37 78 96 127q55 47 133 70q70 20 147.5 20t147.5 -20q78 -23 133 -70q59 -49 96 -127q37 -79 37 -196v-279q0 -119 -37 -194q-37 -78 -96 -129q-55 -47 -133 -70q-70 -20 -147.5 -20t-147.5 20q-78 23 -133 70q-59 51 -96 129q-37 76 -37 194z M291 1286l332 158l331 -158l-43 -90l-288 137l-289 -137zM362 391q0 -63 23 -115q20 -51 57 -83q33 -33 82 -49.5t98.5 -16.5t98.5 16q47 16 84 50q39 39 57 83q21 47 21 115v283q0 68 -21 117q-18 43 -57 81q-37 33 -84 50q-49 16 -98.5 16t-98.5 -16.5t-82 -49.5 q-37 -33 -57 -81q-23 -55 -23 -117v-283z" />
<glyph unicode="&#xf5;" d="M209 393v279q0 117 37 196q37 78 96 127q55 47 133 70q70 20 147.5 20t147.5 -20q78 -23 133 -70q59 -49 96 -127q37 -79 37 -196v-279q0 -119 -37 -194q-37 -78 -96 -129q-55 -47 -133 -70q-70 -20 -147.5 -20t-147.5 20q-78 23 -133 70q-59 51 -96 129q-37 76 -37 194z M272 1292l273 146l162 -117l219 117l47 -88l-273 -146l-161 117l-220 -117zM362 391q0 -63 23 -115q20 -51 57 -83q33 -33 82 -49.5t98.5 -16.5t98.5 16q47 16 84 50q39 39 57 83q21 47 21 115v283q0 68 -21 117q-18 43 -57 81q-37 33 -84 50q-49 16 -98.5 16t-98.5 -16.5 t-82 -49.5q-37 -33 -57 -81q-23 -55 -23 -117v-283z" />
<glyph unicode="&#xf6;" d="M209 393v279q0 117 37 196q37 78 96 127q55 47 133 70q70 20 147.5 20t147.5 -20q78 -23 133 -70q59 -49 96 -127q37 -79 37 -196v-279q0 -119 -37 -194q-37 -78 -96 -129q-55 -47 -133 -70q-70 -20 -147.5 -20t-147.5 20q-78 23 -133 70q-59 51 -96 129q-37 76 -37 194z M303 1243v156h156v-156h-156zM362 391q0 -63 23 -115q20 -51 57 -83q33 -33 82 -49.5t98.5 -16.5t98.5 16q47 16 84 50q39 39 57 83q21 47 21 115v283q0 68 -21 117q-18 43 -57 81q-37 33 -84 50q-49 16 -98.5 16t-98.5 -16.5t-82 -49.5q-37 -33 -57 -81q-23 -55 -23 -117 v-283zM786 1243v156h156v-156h-156z" />
<glyph unicode="&#xf7;" d="M217 528v93h811v-93h-811zM537 168q0 35 26 61q25 25 60 25q33 0 61 -25q25 -29 25 -61q0 -35 -25 -59q-27 -27 -61.5 -27t-59.5 27q-26 24 -26 59zM537 981q0 35 26 61q25 25 60 25q33 0 61 -25q25 -27 25 -61q0 -35 -25 -59q-27 -27 -61.5 -27t-59.5 27q-26 24 -26 59z " />
<glyph unicode="&#xf8;" d="M209 393v279q0 117 37 196q37 78 96 127q55 47 133 70q70 20 148 20q66 0 125 -14q68 -16 114 -47l66 109l76 -48l-72 -118q49 -51 76 -121q28 -74 28 -174v-279q0 -119 -37 -194q-37 -78 -96 -129q-55 -47 -133 -70q-70 -20 -147 -20q-68 0 -125 14q-70 16 -117 47 l-66 -109l-75 48l71 118q-45 49 -73 121q-29 74 -29 174zM362 391q0 -88 37 -145l383 643q-68 49 -159 49q-49 0 -98.5 -16.5t-82.5 -49.5q-37 -33 -57 -81q-23 -56 -23 -117v-283zM461 176q68 -49 162 -49q49 0 98 16q47 16 84 50q39 39 57 83q21 47 21 115v283 q0 41 -11 82q-8 33 -26 65z" />
<glyph unicode="&#xf9;" d="M211 387v670h154v-660q0 -70 22 -121q20 -47 59 -83q33 -33 80 -50q49 -16 92 -16q45 0 95 16q41 14 82 52q39 39 57 81q20 47 20 115v666h154v-1057h-154v109q-37 -59 -112 -97q-72 -32 -142 -32q-66 0 -137 18q-74 23 -131 68q-59 45 -100 127q-39 76 -39 194z M334 1346l26 98l547 -150l-26 -98z" />
<glyph unicode="&#xfa;" d="M211 387v670h154v-660q0 -70 22 -121q20 -47 59 -83q33 -33 80 -50q49 -16 92 -16q45 0 95 16q41 14 82 52q39 39 57 81q20 47 20 115v666h154v-1057h-154v109q-37 -59 -112 -97q-72 -32 -142 -32q-66 0 -137 18q-74 23 -131 68q-59 45 -100 127q-39 76 -39 194z M334 1294l547 150l26 -98l-547 -150z" />
<glyph unicode="&#xfb;" d="M211 387v670h154v-660q0 -70 22 -121q20 -47 59 -83q33 -33 80 -50q49 -16 92 -16q45 0 95 16q41 14 82 52q39 39 57 81q20 47 20 115v666h154v-1057h-154v109q-37 -59 -112 -97q-72 -32 -142 -32q-66 0 -137 18q-74 23 -131 68q-59 45 -100 127q-39 76 -39 194z M289 1286l332 158l331 -158l-43 -90l-288 137l-289 -137z" />
<glyph unicode="&#xfc;" d="M211 387v670h154v-660q0 -70 22 -121q20 -47 59 -83q33 -33 80 -50q49 -16 92 -16q45 0 95 16q41 14 82 52q39 39 57 81q20 47 20 115v666h154v-1057h-154v109q-37 -59 -112 -97q-72 -32 -142 -32q-66 0 -137 18q-74 23 -131 68q-59 45 -100 127q-39 76 -39 194z M301 1243v156h156v-156h-156zM784 1243v156h156v-156h-156z" />
<glyph unicode="&#xfd;" d="M156 1057h163l304 -858l303 858h164l-480 -1325q-23 -61 -78 -84t-155 -25h-92v148h110q49 0 66 16q18 16 26 45l56 152zM336 1294l547 150l26 -98l-547 -150z" />
<glyph unicode="&#xfe;" d="M217 -377v1811h154v-478q39 63 114 99q74 31 146 30q78 0 147 -20q78 -23 133 -70q59 -49 97 -127q37 -80 36 -196v-279q0 -119 -36 -194q-37 -78 -97 -129q-55 -47 -133 -70q-69 -20 -147 -20q-74 0 -146 32q-74 31 -114 97v-486h-154zM371 391q0 -63 22 -115 q20 -51 58 -83q33 -33 82 -49.5t98 -16.5t98 16q47 16 84 50q39 39 57 83q21 47 21 115v283q0 68 -21 117q-18 43 -57 81q-37 33 -84 50q-49 16 -98 16t-98.5 -16.5t-81.5 -49.5q-37 -33 -58 -81q-23 -55 -22 -117v-283z" />
<glyph unicode="&#xff;" d="M156 1057h163l304 -858l303 858h164l-480 -1325q-23 -61 -78 -84t-155 -25h-92v148h110q49 0 66 16q18 16 26 45l56 152zM303 1243v156h156v-156h-156zM786 1243v156h156v-156h-156z" />
<glyph unicode="&#x152;" d="M160 485v463q0 111 35 203q35 90 94 154q63 63 147 96q80 33 187 33h495v-156h-338v-475h195v-156h-195v-491h338v-156h-495q-100 0 -187 35q-90 35 -147 96q-59 59 -94 151.5t-35 202.5zM317 485q0 -82 25 -143q23 -61 66 -102q37 -41 96 -64q53 -20 119 -20v1122 q-66 0 -119 -20.5t-96 -63.5q-43 -41 -66 -102q-25 -62 -25 -144v-463z" />
<glyph unicode="&#x153;" d="M106 276v512q0 139 80 220q78 78 217 77q63 0 123 -24q53 -23 97 -78q41 53 98 78t123 24q137 0 219 -77q78 -82 78 -220v-294h-441v-218q0 -68 37 -108.5t106.5 -40.5t106.5 41q37 39 37 108v56h154v-56q0 -139 -78 -217q-80 -80 -219 -79q-66 0 -123 24q-57 25 -98 78 q-43 -55 -97 -78q-60 -24 -123 -24q-141 0 -217 79q-80 76 -80 217zM260 276q0 -68 37 -108.5t106.5 -40.5t106.5 41q37 39 37 108v512q0 72 -37 111t-106.5 39t-106.5 -39t-37 -111v-512zM700 635h287v153q0 72 -37 111t-106.5 39t-106.5 -39t-37 -111v-153z" />
<glyph unicode="&#x178;" d="M72 1434h172l381 -695l379 695h172l-474 -865v-569h-157v571zM303 1559v155h156v-155h-156zM786 1559v155h156v-155h-156z" />
<glyph unicode="&#x2c6;" d="M291 1286l332 158l331 -158l-43 -90l-288 137l-289 -137z" />
<glyph unicode="&#x2dc;" d="M272 1292l273 146l162 -117l219 117l47 -88l-273 -146l-161 117l-220 -117z" />
<glyph unicode="&#x2000;" horiz-adv-x="901" />
<glyph unicode="&#x2001;" horiz-adv-x="1802" />
<glyph unicode="&#x2002;" horiz-adv-x="901" />
<glyph unicode="&#x2003;" horiz-adv-x="1802" />
<glyph unicode="&#x2004;" horiz-adv-x="600" />
<glyph unicode="&#x2005;" horiz-adv-x="450" />
<glyph unicode="&#x2006;" horiz-adv-x="300" />
<glyph unicode="&#x2007;" horiz-adv-x="300" />
<glyph unicode="&#x2008;" horiz-adv-x="225" />
<glyph unicode="&#x2009;" horiz-adv-x="360" />
<glyph unicode="&#x200a;" horiz-adv-x="100" />
<glyph unicode="&#x2010;" d="M326 528v93h594v-93h-594z" />
<glyph unicode="&#x2011;" d="M326 528v93h594v-93h-594z" />
<glyph unicode="&#x2012;" d="M326 528v93h594v-93h-594z" />
<glyph unicode="&#x2013;" d="M217 528v93h811v-93h-811z" />
<glyph unicode="&#x2014;" d="M152 528v93h940v-93h-940z" />
<glyph unicode="&#x2018;" d="M485 995l179 449l94 -39l-178 -449z" />
<glyph unicode="&#x2019;" d="M485 995l179 449l94 -39l-178 -449z" />
<glyph unicode="&#x201a;" d="M485 -205l179 449l94 -39l-178 -449z" />
<glyph unicode="&#x201c;" d="M260 995l178 449l94 -39l-178 -449zM715 995l178 449l94 -39l-178 -449z" />
<glyph unicode="&#x201d;" d="M260 995l178 449l94 -39l-178 -449zM715 995l178 449l94 -39l-178 -449z" />
<glyph unicode="&#x201e;" d="M258 -205l178 449l94 -39l-178 -449zM715 -205l178 449l94 -39l-178 -449z" />
<glyph unicode="&#x2022;" d="M279 610.5q0 73.5 26 134.5q29 63 74 109q47 47 110 74q59 27 133 26.5t136 -26.5q63 -29 108 -74t74 -109q27 -61 27 -134.5t-27 -133.5q-27 -63 -74 -110q-45 -45 -108 -74q-61 -27 -135 -27t-134 27q-63 27 -110 74t-74 110q-26 60 -26 133.5z" />
<glyph unicode="&#x2026;" d="M98 0v215h215v-215h-215zM514 0v215h215v-215h-215zM930 0v215h215v-215h-215z" />
<glyph unicode="&#x202f;" horiz-adv-x="360" />
<glyph unicode="&#x2039;" d="M313 528l430 430l66 -63l-367 -367l367 -366l-66 -64z" />
<glyph unicode="&#x203a;" d="M436 162l367 366l-367 367l66 63l430 -430l-430 -430z" />
<glyph unicode="&#x205f;" horiz-adv-x="450" />
<glyph unicode="&#x20ac;" d="M57 563v88h144v133h-144v88h144v97q0 111 35 202q35 90 94 154q63 63 147 96q80 33 187 33q98 0 180 -31q84 -31 143 -88q61 -61 96 -139q35 -86 41 -186h-153q-6 76 -33 129q-29 55 -68 92q-37 33 -94 57q-53 18 -112 19q-66 0 -119 -21q-57 -20 -99 -65 q-43 -43 -67 -107q-25 -66 -25 -145v-97h514v-88h-514v-133h514v-88h-514v-98q0 -84 25 -146q25 -63 67 -106q39 -41 99 -63q57 -23 119 -23q63 0 112 20q55 20 94 56q39 37 68 92q27 53 33 129h153q-6 -100 -41 -186q-35 -78 -96 -140q-59 -57 -143 -88q-82 -31 -180 -30 q-109 0 -187 34q-90 35 -147 97q-59 59 -94 151t-35 203v98h-144z" />
<glyph unicode="&#x2122;" d="M39 1303v131h547v-131h-207v-572h-133v572h-207zM662 731v703h124l148 -351l147 351h125v-703h-131v408l-92 -219h-98l-92 219v-408h-131z" />
<glyph unicode="&#x25fc;" horiz-adv-x="1054" d="M0 0v1055h1055v-1055h-1055z" />
</font>
</defs>
</svg>
